<svg id="Layer_1" data-name="Layer 1" xmlns="http://www.w3.org/2000/svg" viewBox="0 0 800 800"><defs><style>.cls-1{fill:#30261d;}</style></defs><path class="cls-1" d="M468.93,331.8a7.48,7.48,0,0,1,.78,4.05,24.52,24.52,0,0,1-.43,3.85,58.28,58.28,0,0,1-1.93,7.4,55.48,55.48,0,0,1-2.93,7.09,19.36,19.36,0,0,1-1,1.74,6.74,6.74,0,0,1-.7.91,2.89,2.89,0,0,1-.59.52,2.69,2.69,0,0,1-.59.27,2.16,2.16,0,0,1-.57,0l-.28,0-.12,0a3.84,3.84,0,0,1-2-1.89,7.5,7.5,0,0,1-.74-2.11,16.32,16.32,0,0,1,.73-8A24.21,24.21,0,0,1,460,342a7.93,7.93,0,0,0,.52-3.29,49.78,49.78,0,0,0-.65-7.35,57.5,57.5,0,0,0-1.5-7.25v-.05a.42.42,0,0,1,.28-.52.44.44,0,0,1,.52.26,59.33,59.33,0,0,1,1.94,7.34,49.56,49.56,0,0,1,1.07,7.55,9.31,9.31,0,0,1-.48,4.09,23.48,23.48,0,0,0-1.13,3.41,15.36,15.36,0,0,0-.27,6.85,5.3,5.3,0,0,0,.51,1.41,1.36,1.36,0,0,0,.6.68s0,0,0,0a.42.42,0,0,0-.16,0,.64.64,0,0,0-.34,0c-.1,0-.12,0-.17.06a1.18,1.18,0,0,0,.11-.1,5.13,5.13,0,0,0,.46-.57,17.27,17.27,0,0,0,.9-1.49,51.65,51.65,0,0,0,3-6.69,56.54,56.54,0,0,0,2.24-7,28.13,28.13,0,0,0,.66-3.56,6.74,6.74,0,0,0-.26-3.28l0-.08a.64.64,0,0,1,.31-.85A.65.65,0,0,1,468.93,331.8Z"/><path class="cls-1" d="M460.52,355.82a51,51,0,0,1-3.29,7.82c-.65,1.25-1.33,2.49-2.1,3.71a15.74,15.74,0,0,1-1.36,1.84,4,4,0,0,1-.58.53,1.62,1.62,0,0,1-.28.16,1.26,1.26,0,0,1-.47.15,1.94,1.94,0,0,1-.34,0,.75.75,0,0,1-.15,0l-.23,0a3.08,3.08,0,0,1-1.45-.88,5.26,5.26,0,0,1-1.13-2.32,9.67,9.67,0,0,1-.25-2.31,12.31,12.31,0,0,1,.25-2.26,6.55,6.55,0,0,1,.34-1.12l.36-1c1-2.61,1.88-5.23,2.65-7.9a.64.64,0,1,1,1.24.35.14.14,0,0,1,0,.06c-1,2.6-1.88,5.26-2.72,7.92l-.31,1a6.66,6.66,0,0,0-.18.91,6.77,6.77,0,0,0,.1,1.9,6.2,6.2,0,0,0,1.39,3.1c.14.11.26.2.31.19h-.21l-.23.06-.05,0a1.13,1.13,0,0,0,.19-.18,13,13,0,0,0,1.13-1.5c.74-1.12,1.46-2.29,2.16-3.47s1.4-2.38,2.06-3.59,1.35-2.41,2-3.61v0a.65.65,0,0,1,1.2.48Z"/><path class="cls-1" d="M451.48,326.66a91.07,91.07,0,0,1,2.79,9.61,47.31,47.31,0,0,1,1.45,10,10.64,10.64,0,0,1-.31,2.69c-.25.9-.57,1.62-.87,2.42q-.92,2.33-1.91,4.62a79.76,79.76,0,0,1-4.48,9,17.1,17.1,0,0,1-1.51,2.18,5.61,5.61,0,0,1-.54.56,2.44,2.44,0,0,1-1,.55,1.73,1.73,0,0,1-.91,0,2.07,2.07,0,0,1-.56-.3,3.52,3.52,0,0,1-.64-.64,8.62,8.62,0,0,1-1.52-5.38,14.67,14.67,0,0,1,1.36-5.11,43.62,43.62,0,0,1,2.31-4.52c1.77-2.67,1.9-5.94,1.56-9.17s-1.24-6.42-1.73-9.78a.47.47,0,0,1,.92-.15v0c.57,3.19,1.62,6.4,2.06,9.75a21.3,21.3,0,0,1,.18,5.12,12.3,12.3,0,0,1-.52,2.58,14.14,14.14,0,0,1-1.06,2.39,41.92,41.92,0,0,0-2,4.43A14.43,14.43,0,0,0,443.5,362a6.73,6.73,0,0,0,1.18,4,1.74,1.74,0,0,0,.24.24s.05,0,0,0-.28-.06-.3,0,.24-.17.43-.42a16.53,16.53,0,0,0,1.32-1.89c1.67-2.76,3.09-5.76,4.51-8.73.69-1.49,1.37-3,2-4.51.3-.74.67-1.55.88-2.24a9,9,0,0,0,.32-2.23,46,46,0,0,0-1.07-9.69c-.64-3.23-1.43-6.45-2.37-9.61a.43.43,0,0,1,.29-.54A.45.45,0,0,1,451.48,326.66Z"/><path class="cls-1" d="M445.34,355.18a12.48,12.48,0,0,1-1.57,3.54,11.24,11.24,0,0,1-1.2,1.59,7.59,7.59,0,0,1-.76.73,3.15,3.15,0,0,1-1.27.69,1.66,1.66,0,0,1-1.31-.29,2.45,2.45,0,0,1-.62-.65,4.78,4.78,0,0,1-.48-1.12,7.59,7.59,0,0,1-.28-2.08,11.86,11.86,0,0,1,.64-3.93,14.82,14.82,0,0,1,.78-1.79,7.48,7.48,0,0,0,.55-1.57,14.17,14.17,0,0,0,.35-3.46,27.33,27.33,0,0,0-1.15-7c-3.07-9.15-14.51-12.3-19.28-21.51-1.36-2.1-2.56-4.23-3.77-6.36a54.28,54.28,0,0,1-3.33-6.7,17.89,17.89,0,0,1-1.34-7.58,17.55,17.55,0,0,1,2-7.38A16.9,16.9,0,0,1,425,281.4a18.61,18.61,0,0,1,7.47.09,15.66,15.66,0,0,1,6.65,3.45c1,.78,1.89,1.59,2.82,2.38s1.86,1.52,2.82,2.31c1.89,1.55,3.85,3.06,5.69,4.66,3.71,3.17,7.44,6.42,10.92,9.89A29.23,29.23,0,0,1,464,307a14.37,14.37,0,0,1,2,3.44c1,2.33,1.8,4.66,2.56,7s1.4,4.74,2,7.14c.3,1.2.58,2.41.82,3.66.12.61.23,1.26.31,1.93,0,.16,0,.38,0,.56l0,.29a2.17,2.17,0,0,1,0,.4,5.05,5.05,0,0,1-.12.56l-.09.27a2.85,2.85,0,0,1-.23.33,2.19,2.19,0,0,1-1.21.79,3.58,3.58,0,0,1-1.6,0,7.6,7.6,0,0,1-1.11-.37,12.11,12.11,0,0,1-1.85-1,11.65,11.65,0,0,1-3-2.88,5.86,5.86,0,0,1-.57-1,9.67,9.67,0,0,1-.35-.93L461,325.4c-.4-1.15-.85-2.29-1.27-3.43l-.64-1.72-.33-.85a2.48,2.48,0,0,0-.29-.57,1.69,1.69,0,0,0-.42-.38l-.76-.43c-.51-.28-1-.54-1.57-.78a20.45,20.45,0,0,0-6.79-1.71,44.33,44.33,0,0,1-14.5-3.13,18.33,18.33,0,0,1-6.21-4.26,12.4,12.4,0,0,1-3.14-6.87.54.54,0,1,1,1.08-.14h0a11.3,11.3,0,0,0,2.92,6.21,16.24,16.24,0,0,0,5.85,3.86,43.32,43.32,0,0,0,14.1,2.67,22.24,22.24,0,0,1,7.41,1.67c.59.24,1.16.51,1.73.8l.85.46a3.57,3.57,0,0,1,1,.81,4.27,4.27,0,0,1,.59,1l.35.84.74,1.68c.5,1.12,1,2.25,1.49,3.36a18.35,18.35,0,0,0,1.51,3,9.85,9.85,0,0,0,2.45,2,8.69,8.69,0,0,0,1.39.71,4.09,4.09,0,0,0,.63.2c.1,0,.14,0,.22,0s0,0,0,0-.26.09-.46.3a.65.65,0,0,0-.09.16l0,0a.15.15,0,0,0,0,.11v-.23c0-.12,0-.21,0-.35-.06-.54-.14-1.11-.24-1.69-.21-1.16-.46-2.34-.74-3.51-.55-2.34-1.17-4.69-1.85-7s-1.39-4.65-2.25-6.83a11.84,11.84,0,0,0-1.56-2.95,27.83,27.83,0,0,0-2.3-2.66c-3.31-3.56-6.84-6.88-10.44-10.18-1.79-1.68-3.65-3.23-5.48-4.85-.9-.79-1.85-1.6-2.75-2.45s-1.77-1.69-2.67-2.49a14.16,14.16,0,0,0-6.09-3.5,15,15,0,0,0-13.38,3,16.06,16.06,0,0,0-4.17,5.6,16.84,16.84,0,0,0-1.47,6.75,17.05,17.05,0,0,0,1.42,6.71,51.29,51.29,0,0,0,3.26,6.39c1.25,2.1,2.4,4.26,3.67,6.28a38.89,38.89,0,0,0,4.26,5.71,64,64,0,0,0,5.32,4.85,52.3,52.3,0,0,1,5.37,5.17,17.4,17.4,0,0,1,3.75,6.6,31.66,31.66,0,0,1,1.25,7.38,16,16,0,0,1-.26,3.83,9.51,9.51,0,0,1-.6,1.9,9.44,9.44,0,0,0-.57,1.61,9.07,9.07,0,0,0-.17,3.32,7.14,7.14,0,0,0,.34,1.53,2.91,2.91,0,0,0,.25.55s.08.1,0,0l-.05,0a.52.52,0,0,0-.15-.06.73.73,0,0,0-.26,0c-.14,0,.16-.08.31-.21a6.62,6.62,0,0,0,.58-.51c.4-.37.77-.8,1.15-1.23a26.83,26.83,0,0,0,2-2.84h0a.65.65,0,0,1,.9-.21A.64.64,0,0,1,445.34,355.18Z"/><path class="cls-1" d="M335.08,332.47a6.86,6.86,0,0,0-.26,3.28,28.18,28.18,0,0,0,.67,3.56,54.9,54.9,0,0,0,2.24,7,51.65,51.65,0,0,0,3,6.69,13.37,13.37,0,0,0,.9,1.49,5.13,5.13,0,0,0,.46.57c.06.07.12.1.1.1s-.06,0-.17-.06a.61.61,0,0,0-.33,0,.42.42,0,0,0-.16,0c-.05,0,0,0,0,0a1.31,1.31,0,0,0,.61-.68,5,5,0,0,0,.5-1.41,15.21,15.21,0,0,0-.26-6.85,23.48,23.48,0,0,0-1.13-3.41,9.32,9.32,0,0,1-.49-4.09,52.19,52.19,0,0,1,1.07-7.55,59.38,59.38,0,0,1,2-7.34.43.43,0,0,1,.54-.25.42.42,0,0,1,.26.51l0,.05a59.32,59.32,0,0,0-1.5,7.25,49.76,49.76,0,0,0-.64,7.35,7.77,7.77,0,0,0,.52,3.29,26.54,26.54,0,0,1,1.48,3.61,16.56,16.56,0,0,1,.73,8,7.87,7.87,0,0,1-.75,2.11,3.81,3.81,0,0,1-2,1.89l-.13,0-.27,0a2.14,2.14,0,0,1-.57,0,2.69,2.69,0,0,1-.59-.27,3.29,3.29,0,0,1-.6-.52,6.62,6.62,0,0,1-.69-.91,17.21,17.21,0,0,1-1-1.74,54.07,54.07,0,0,1-2.93-7.09,58.28,58.28,0,0,1-1.93-7.4,24.52,24.52,0,0,1-.43-3.85,7.48,7.48,0,0,1,.78-4.05.64.64,0,0,1,.88-.23.65.65,0,0,1,.26.82Z"/><path class="cls-1" d="M343.6,355.37c.61,1.2,1.27,2.42,2,3.61s1.35,2.41,2.06,3.59,1.41,2.35,2.16,3.47a12,12,0,0,0,1.13,1.5.83.83,0,0,0,.19.18l-.06,0a1,1,0,0,0-.22-.06h-.22c.06,0,.17-.08.32-.19a6.2,6.2,0,0,0,1.38-3.1,6.77,6.77,0,0,0,.11-1.9,6.66,6.66,0,0,0-.18-.91l-.32-1c-.84-2.66-1.7-5.32-2.72-7.92a.65.65,0,1,1,1.21-.47.14.14,0,0,0,0,.06c.77,2.67,1.7,5.29,2.65,7.9l.36,1a9,9,0,0,1,.34,1.12,11.49,11.49,0,0,1,.24,2.26,9.17,9.17,0,0,1-.24,2.31,5.29,5.29,0,0,1-1.14,2.32,3.1,3.1,0,0,1-1.44.88l-.24,0-.14,0a2.11,2.11,0,0,1-.35,0,1.33,1.33,0,0,1-.47-.15,1.19,1.19,0,0,1-.27-.16,3.5,3.5,0,0,1-.58-.53,15.74,15.74,0,0,1-1.36-1.84c-.78-1.22-1.46-2.46-2.1-3.71a49.11,49.11,0,0,1-3.29-7.82.64.64,0,0,1,1.19-.48Z"/><path class="cls-1" d="M352.25,326.93c-.94,3.16-1.72,6.38-2.36,9.61a46.63,46.63,0,0,0-1.08,9.69,8.56,8.56,0,0,0,.33,2.23c.21.69.57,1.5.88,2.24.64,1.51,1.32,3,2,4.51,1.42,3,2.83,6,4.5,8.73a16.57,16.57,0,0,0,1.33,1.89c.19.25.56.49.43.42s-.33,0-.31,0,0,0,0,0a1.06,1.06,0,0,0,.24-.24,6.66,6.66,0,0,0,1.18-4,13.89,13.89,0,0,0-1.06-4.49,41.83,41.83,0,0,0-2-4.43,14.14,14.14,0,0,1-1.06-2.39,11.7,11.7,0,0,1-.52-2.58,21.3,21.3,0,0,1,.17-5.12c.45-3.35,1.49-6.56,2.06-9.75v0a.46.46,0,0,1,.91.15c-.49,3.36-1.4,6.53-1.73,9.78s-.2,6.5,1.56,9.17a43.68,43.68,0,0,1,2.32,4.52,15.12,15.12,0,0,1,1.36,5.11,8.62,8.62,0,0,1-1.52,5.38,3.52,3.52,0,0,1-.64.64,2.23,2.23,0,0,1-.56.3,1.74,1.74,0,0,1-.91,0,2.44,2.44,0,0,1-.95-.55,4.67,4.67,0,0,1-.54-.56,17.2,17.2,0,0,1-1.52-2.18,81.48,81.48,0,0,1-4.48-9q-1-2.29-1.91-4.62c-.3-.8-.61-1.52-.86-2.42a9.81,9.81,0,0,1-.31-2.69,48,48,0,0,1,1.44-10,93.57,93.57,0,0,1,2.8-9.61.43.43,0,0,1,.55-.26A.42.42,0,0,1,352.25,326.93Z"/><path class="cls-1" d="M358.76,354.69a26.76,26.76,0,0,0,2,2.84c.38.43.75.86,1.15,1.23a6.7,6.7,0,0,0,.59.51c.15.13.44.26.3.21a.73.73,0,0,0-.26,0,.45.45,0,0,0-.14.06l-.05,0c-.08.08,0,0,0,0a3.72,3.72,0,0,0,.25-.55,7.8,7.8,0,0,0,.34-1.53,9.3,9.3,0,0,0-.17-3.32,10.39,10.39,0,0,0-.57-1.61,9.51,9.51,0,0,1-.6-1.9,16,16,0,0,1-.26-3.83,31.66,31.66,0,0,1,1.25-7.38,17.51,17.51,0,0,1,3.74-6.6,53.44,53.44,0,0,1,5.38-5.17A64,64,0,0,0,377,322.8a38.83,38.83,0,0,0,4.25-5.71c1.28-2,2.43-4.18,3.68-6.28a51.21,51.21,0,0,0,3.25-6.39,16.88,16.88,0,0,0,1.42-6.71,16.66,16.66,0,0,0-1.46-6.75,16.06,16.06,0,0,0-4.17-5.6,15.33,15.33,0,0,0-13.38-3,14.16,14.16,0,0,0-6.09,3.5c-.91.8-1.78,1.64-2.67,2.49S360,290,359.11,290.8c-1.82,1.62-3.69,3.17-5.47,4.85-3.6,3.3-7.13,6.62-10.45,10.18a29.18,29.18,0,0,0-2.29,2.66,11.86,11.86,0,0,0-1.57,2.95c-.86,2.18-1.57,4.51-2.24,6.83s-1.31,4.66-1.86,7c-.27,1.17-.53,2.35-.73,3.51-.11.58-.19,1.15-.25,1.69,0,.14,0,.23,0,.35V331c0,.06,0,.13,0,.06a.15.15,0,0,0,0-.11.1.1,0,0,0-.05,0,.6.6,0,0,0-.08-.16c-.21-.21-.32-.28-.46-.3s-.06,0,0,0,.11,0,.22,0a4.46,4.46,0,0,0,.63-.2,8.69,8.69,0,0,0,1.39-.71,9.62,9.62,0,0,0,2.44-2,18.35,18.35,0,0,0,1.51-3c.52-1.11,1-2.24,1.5-3.36l.73-1.68.36-.84a3.52,3.52,0,0,1,1.54-1.85l.85-.46c.57-.29,1.15-.56,1.74-.8a22.19,22.19,0,0,1,7.4-1.67,43.27,43.27,0,0,0,14.1-2.67,16.28,16.28,0,0,0,5.86-3.86,11.36,11.36,0,0,0,2.91-6.21h0a.55.55,0,0,1,.62-.47.54.54,0,0,1,.47.61,12.47,12.47,0,0,1-3.14,6.87,18.43,18.43,0,0,1-6.21,4.26,44.38,44.38,0,0,1-14.5,3.13,20.45,20.45,0,0,0-6.79,1.71c-.54.24-1.06.5-1.58.78l-.75.43a1.69,1.69,0,0,0-.42.38,1.88,1.88,0,0,0-.29.57l-.33.85-.64,1.72c-.42,1.14-.87,2.28-1.27,3.43l-.61,1.73a9.67,9.67,0,0,1-.35.93,6.6,6.6,0,0,1-.57,1,11.68,11.68,0,0,1-3,2.88,12,12,0,0,1-1.84,1,7.6,7.6,0,0,1-1.11.37,3.62,3.62,0,0,1-1.61,0,2.19,2.19,0,0,1-1.21-.79,2.7,2.7,0,0,1-.22-.33l-.09-.27a2.66,2.66,0,0,1-.12-.56,1.51,1.51,0,0,1,0-.4v-.29c0-.18,0-.4,0-.56.08-.67.18-1.32.31-1.93.24-1.25.52-2.46.82-3.66.6-2.4,1.28-4.78,2-7.14s1.55-4.68,2.56-7a14,14,0,0,1,2-3.44,30.65,30.65,0,0,1,2.6-2.81c3.47-3.47,7.2-6.72,10.92-9.89,1.84-1.6,3.8-3.11,5.69-4.66,1-.79,1.9-1.52,2.82-2.31s1.84-1.6,2.81-2.38a15.75,15.75,0,0,1,6.66-3.45,18.56,18.56,0,0,1,7.46-.09,16.92,16.92,0,0,1,11.7,8.87,17.39,17.39,0,0,1,2,7.38,17.74,17.74,0,0,1-1.34,7.58,52.86,52.86,0,0,1-3.32,6.7c-1.21,2.13-2.41,4.26-3.77,6.36-4.77,9.21-16.22,12.36-19.28,21.51a27.78,27.78,0,0,0-1.16,7,14.17,14.17,0,0,0,.35,3.46,7.51,7.51,0,0,0,.56,1.57,14.82,14.82,0,0,1,.78,1.79,11.85,11.85,0,0,1,.63,3.93,7.23,7.23,0,0,1-.28,2.08,4.06,4.06,0,0,1-.48,1.12,2.39,2.39,0,0,1-.61.65,1.66,1.66,0,0,1-1.31.29,3.08,3.08,0,0,1-1.27-.69,9,9,0,0,1-.77-.73,11.16,11.16,0,0,1-1.19-1.59,12.2,12.2,0,0,1-1.57-3.54.65.65,0,0,1,.47-.79.64.64,0,0,1,.71.29Z"/><path class="cls-1" d="M420.71,331.45a19.49,19.49,0,0,1-21.35,19.26,19.38,19.38,0,0,1-16.89-14.77,20.54,20.54,0,0,1-.24-7.89,18,18,0,0,1,2.89-7.38,36.31,36.31,0,0,1,2.48-3c.83-.95,1.66-1.89,2.44-2.85a26.3,26.3,0,0,0,3.91-6.16,31.37,31.37,0,0,0,2.17-7,43.11,43.11,0,0,0,.65-7.42l.34-7.57c.1-2.51.19-5,.1-7.52a24.72,24.72,0,0,0-1.15-7.26l0-.07,0-.06,0,.07-.21-.51-.05-.25a.53.53,0,0,0,.16.39l-.12-.17a53.86,53.86,0,0,0-3.69-6.25c-1.35-2-2.75-4-4.17-6q-4.29-6-8.78-11.8h0a.34.34,0,0,1,.51-.44c3.27,3.29,6.7,6.46,10.25,9.44q2.67,2.24,5.5,4.22a28.6,28.6,0,0,0,5.92,3.35h0l-.29-.06a5.83,5.83,0,0,1,5,2.8,5.91,5.91,0,0,1,.17,5.83l0-.09a23.94,23.94,0,0,0-1,7.49c0,2.62.05,5.25.16,7.9l.33,8a33.27,33.27,0,0,0,1,7.61,30.81,30.81,0,0,0,2.73,7.08,33,33,0,0,0,4.46,6.19c.85,1,1.76,1.81,2.72,3a16.8,16.8,0,0,1,2.23,3.69A20.3,20.3,0,0,1,420.71,331.45Zm-2.74,0a17.37,17.37,0,0,0-1.58-7.14,13.91,13.91,0,0,0-1.89-3.09c-.71-.87-1.75-1.88-2.62-2.9a35.83,35.83,0,0,1-4.76-6.75,31.72,31.72,0,0,1-2.86-7.77,37.11,37.11,0,0,1-.89-8.17l-.15-7.94c-.05-2.66-.1-5.33,0-8,0-1.35.14-2.7.32-4.07a15.18,15.18,0,0,1,1-4.11v0l0-.06a4.1,4.1,0,0,0,0-4,4.17,4.17,0,0,0-3.54-2.11H401a.59.59,0,0,1-.23-.05h0a30.16,30.16,0,0,1-6.12-3.71c-1.89-1.41-3.7-2.91-5.45-4.47-3.5-3.12-6.82-6.4-10-9.83l.51-.44h0q4.59,5.76,9,11.68c1.46,2,2.9,4,4.3,6a54.2,54.2,0,0,1,3.88,6.36l-.11-.17a.66.66,0,0,1,.17.43l-.06-.25.26.58,0,.07,0,.07,0-.07a26.42,26.42,0,0,1,1.37,7.62c.13,2.56.1,5.1,0,7.63l-.19,7.57a43.54,43.54,0,0,1-.54,7.68,33.55,33.55,0,0,1-2.2,7.45,28.45,28.45,0,0,1-4.07,6.66c-1.56,2-3.38,3.92-4.78,5.78a17.51,17.51,0,0,0-2.83,6.53A17.16,17.16,0,0,0,412.55,344,17,17,0,0,0,418,331.45Z"/><path class="cls-1" d="M396.89,352a75.56,75.56,0,0,0,3.25,11.44l.5,1.4a3.79,3.79,0,0,0,.7,1.33c.69.8,1.61,1.52,1.82,2.5s-.26,2.19.15,3.1.54,1.91.84,2.85c1.2,3.77,2.59,7.48,3.81,11.25.5,1.92,1.23,3.76,1.84,5.64l1.93,5.62a.08.08,0,0,1-.05.1.07.07,0,0,1-.1-.05l-2.14-5.54c-.75-1.83-1.37-3.71-2.22-5.51-1.45-3.68-2.72-7.43-4.18-11.11-.37-.92-.76-1.83-1.15-2.74s-1.43-1.59-1.85-2.49-.21-2-.18-3.09a3.79,3.79,0,0,0-.31-1.47l-.49-1.4a76.2,76.2,0,0,0-4.74-10.92,1.38,1.38,0,0,1,2.42-1.32A1.56,1.56,0,0,1,396.89,352Z"/><path class="cls-1" d="M413.1,391.05l-5.82-4.91.51-.25c.13,3.07.34,6.14.51,9.21,0,0,0,0-.05.06a.06.06,0,0,1-.06-.05c-.34-3.06-.63-6.12-1-9.17a.3.3,0,0,1,.26-.33.33.33,0,0,1,.25.08l5.5,5.26a.06.06,0,0,1,0,.09A.08.08,0,0,1,413.1,391.05Z"/><path class="cls-1" d="M410.08,351.87c-.69,3.55-1.18,7.13-1.56,10.71-.2,1.79-.36,3.59-.49,5.38,0,.45-.09.9-.1,1.35a3.54,3.54,0,0,0,.34,1.4,2.57,2.57,0,0,1-.09,2.7,4.55,4.55,0,0,0-.67,1.29c-.09.45-.14.9-.21,1.34l-.41,2.68c-.29,1.78-.49,3.57-.72,5.36l-1.29,10.74v-.07a17.47,17.47,0,0,1-.51,5.3,7.75,7.75,0,0,1-2.8,4.46.12.12,0,0,1-.16,0,.11.11,0,0,1,0-.16,7.4,7.4,0,0,0,2.47-4.38,16.65,16.65,0,0,0,.25-5.12v-.07h0L405,384c.11-1.8.28-3.59.34-5.39l.13-2.71c0-.45,0-.9,0-1.35a4.67,4.67,0,0,0-.39-1.4,2.55,2.55,0,0,1,.43-2.67,3.77,3.77,0,0,0,.62-1.3c.07-.45.11-.89.16-1.34.22-1.79.42-3.58.58-5.38.34-3.59.55-7.19.58-10.81a1.3,1.3,0,1,1,2.59,0A1.94,1.94,0,0,1,410.08,351.87Z"/><path class="cls-1" d="M395.75,401.65l1.43-.19c.46-.12.93-.19,1.39-.34a9.83,9.83,0,0,0,2.56-1.2,7.57,7.57,0,0,0,2-2,6.41,6.41,0,0,0,1.05-2.51h0v0a.36.36,0,0,1,.42-.28.36.36,0,0,1,.27.27,14.73,14.73,0,0,0,2.25,5.17,9.48,9.48,0,0,0,2,2,7.41,7.41,0,0,0,2.59,1.13h0a.11.11,0,0,1-.05.21,7.68,7.68,0,0,1-2.74-1.07,9.82,9.82,0,0,1-2.16-2,14.4,14.4,0,0,1-1.54-2.52,15.4,15.4,0,0,1-1-2.78l.7,0h0a6.91,6.91,0,0,1-1.29,2.75,8.1,8.1,0,0,1-2.2,2,10.13,10.13,0,0,1-2.72,1.14c-.48.13-1,.19-1.44.28l-1.46.13a.1.1,0,0,1-.11-.09.09.09,0,0,1,.09-.11Z"/><path class="cls-1" d="M400.66,296.72c.59,3.73,3,9.18,5.54,9.18-1.87-5.18-2.54-27.11-2.22-30.15a18.25,18.25,0,0,0-1.24-4.75c-.37-.73-.65-1.51-1-2.25a6.63,6.63,0,0,1-.52-4.89,9.5,9.5,0,0,0-4.34,1.31,4.13,4.13,0,0,0-1.73,3.71c.1.78,1.15,2.05,1.47,2.78C400.37,280.23,400.07,293,400.66,296.72Z"/><path class="cls-1" d="M396.17,266.5,379.41,247s0,0,0,0a0,0,0,0,1,0,0l17.21,19.11a.34.34,0,1,1-.5.45Z"/><path class="cls-1" d="M401.45,238.83a88,88,0,1,1-88,88,88,88,0,0,1,88-88m0-4.65a92.66,92.66,0,1,0,92.66,92.66,92.75,92.75,0,0,0-92.66-92.66Z"/><path class="cls-1" d="M401.45,229a97.89,97.89,0,1,1-97.88,97.89A97.89,97.89,0,0,1,401.45,229m0-1.36a99.25,99.25,0,1,0,99.25,99.25,99.36,99.36,0,0,0-99.25-99.25Z"/><path class="cls-1" d="M182.09,513.83H169.64V463.39H155.19V453.21h41.26v10.18H182.09Z"/><path class="cls-1" d="M264.6,453.21h13l-16.9,60.62H248.16l-9.54-39.71-9.55,39.71H216.53L200,453.21h13.18l9.72,38.26,9.82-38.26h12.36l9.45,38.9Z"/><path class="cls-1" d="M335.21,462.21c5.18,5.82,7.73,12.81,7.73,21.63A31,31,0,0,1,312,515c-17.72,0-31.63-13.72-31.63-31.17A31.29,31.29,0,0,1,312.13,452,31,31,0,0,1,335.21,462.21Zm-42.16,21.45c0,11.27,8.08,19.9,18.63,19.9s18.62-8.63,18.62-19.63c0-11.72-7.81-20.36-18.53-20.36S293.05,472.12,293.05,483.66Z"/><path class="cls-1" d="M412.72,503.56v10.27H380V453.21h12.45v50.35Z"/><path class="cls-1" d="M433.9,503.38l-3.64,10.45H417.08L438,453.21h15.54l20.71,60.62H460.61l-3.45-10.45Zm11.63-35.26-8.45,25.08h16.81Z"/><path class="cls-1" d="M480.69,453.21h17.18c9.81,0,16.45,2,21.81,6.73,6.18,5.45,9.54,13.36,9.54,22.9,0,9.72-3.45,18.45-9.63,24-5,4.54-12.27,7-21,7h-17.9Zm12.45,50.35h2.37c6.63,0,10.72-1.18,14.26-4.18,4.36-3.73,6.82-9.45,6.82-16.18,0-12.08-7.36-19.9-18.9-19.9h-4.55Z"/><path class="cls-1" d="M551.39,513.83H538.94V453.21h12.45Z"/><path class="cls-1" d="M574.38,478.3h21.27v10.17H574.38v15.18h21.27v10.18H561.93V453.21h33.72v10.18H574.38Z"/><path class="cls-1" d="M615.54,496.11v.82c0,4.08,3.55,7.08,8.27,7.08,4.55,0,8-2.81,8-6.45a6.05,6.05,0,0,0-2.45-4.82c-1.55-1.18-2.64-1.63-7.36-3.36-13.27-4.72-18-9.72-18-19,0-11,8.09-18.36,20-18.36s19.44,6.91,20.44,18.54H631.9c-.45-5.09-3-7.54-7.9-7.54-4.46,0-7.46,2.54-7.46,6.36,0,2.45,1.28,4.36,3.73,5.72a42.26,42.26,0,0,0,7.09,3c6.63,2.46,10,4.18,12.63,6.73a15.7,15.7,0,0,1,4.82,11.72c0,11.09-8.36,18.45-20.91,18.45-12.72,0-20.53-7.27-20.44-18.9Z"/><path class="cls-1" d="M307.34,571.68h-7.77V533.86h7.77V550.3l10.71-16.44h9l-12.24,18.2,12.24,19.62h-9.12l-10.6-16.84Z"/><path class="cls-1" d="M339.14,571.68h-7.76V533.86h7.76Z"/><path class="cls-1" d="M360,571.68h-7.76V540.21h-9v-6.35H369v6.35h-9Z"/><path class="cls-1" d="M403,566.69c-4.37,4.08-8.45,5.72-14.06,5.72s-10.21-1.93-13.55-5.67a20.93,20.93,0,0,1-5.1-13.89c0-11.5,7.82-19.72,18.76-19.72,5.84,0,9.81,1.64,14.29,6l-5.05,5.11c-3.06-2.78-5.67-3.91-8.84-3.91-6.63,0-11.28,5.1-11.28,12.35s4.87,12.53,11.68,12.53a10.47,10.47,0,0,0,8.44-3.85Z"/><path class="cls-1" d="M415.85,571.68h-7.76V533.86h7.76v16H430.2v-16H438v37.82H430.2V556.2H415.85Z"/><path class="cls-1" d="M452.37,549.51h13.26v6.35H452.37v9.47h13.26v6.35h-21V533.86h21v6.35H452.37Z"/><path class="cls-1" d="M479.92,571.68h-7.77V533.86h7.66l15.82,23.59V533.86h7.76v37.82h-7.6l-15.87-23.93Z"/></svg>