<svg id="Layer_1" data-name="Layer 1" xmlns="http://www.w3.org/2000/svg" viewBox="0 0 800 800"><defs><style>.cls-1{fill:#30261d;}</style></defs><path class="cls-1" d="M130.26,352.81l2.07.66C131.73,353.3,131,353.07,130.26,352.81Z"/><path class="cls-1" d="M138.16,347.73c2,.8,3.6,1.51,4.58,2l-3.89-1.63Z"/><path class="cls-1" d="M142,340.09l11.45,10C146.29,347.43,142.45,343,142,340.09Z"/><path class="cls-1" d="M141,325.35H128.09a50.39,50.39,0,0,0-50.4,50.4v48.51a50.4,50.4,0,0,0,50.4,50.39H141a50.4,50.4,0,0,0,50.4-50.39V375.75A50.39,50.39,0,0,0,141,325.35Zm8,131.93c-1,1.52-11.52-2.38-18.21-5.17,1.93,1,7.85,4.05,8.92,4.55,2.89,1.37,5.83,6,4.31,7.91-.87,1-13.23-3-16.9-4.73l-.11-.1a2.55,2.55,0,0,1-.2,1.63c-1.1,2-24-8.19-25.35-14.07l-.4.1c-.53.64-1.06,1-1.49.82-1.72-.6-11-17.34-12.7-23.06-.73-2.47-.6-5.3-.59-7.86,0-4,.24-7.93.51-11.89q.49-6.9,1.26-13.79c.43-3.86.24-8.2,1.7-11.83a18.77,18.77,0,0,1,5.9-7.49c9.13-7.1,22.91-3.28,28,6.79,2.13,4.16,3.19,9,4.34,13.52a57.73,57.73,0,0,1,2.13,12.83c.19,6.83-3,17.16.57,24.54,1.26,2.6,5.39,9.57,10.31,11.27,4.37,1.52,7.24,6.07,6.3,7-.6.57-3.74.55-6.95-.55a20.3,20.3,0,0,1,6,3.35C148.71,453.3,149.52,456.38,148.94,457.28ZM182.65,394q-.42,6.91-1.13,13.8c-.39,3.86-.17,8.2-1.59,11.85a18.74,18.74,0,0,1-5.83,7.53c-9.07,7.19-22.88,3.5-28.11-6.53-2.15-4.15-3.27-9-4.47-13.48a58.7,58.7,0,0,1-2.24-12.81c-.25-6.84,2.86-17.2-.79-24.53-1.28-2.58-5.47-9.53-10.4-11.18-4.39-1.48-7.3-6-6.36-6.93.59-.59,3.73-.58,6.94.48a20,20,0,0,1-6-3.31c-2.41-2.2-3.26-5.29-2.7-6.21,1-1.51,11.41,2.23,18.11,5-2.09-1.05-7.75-3.93-8.79-4.41-2.92-1.33-5.9-6-4.4-7.86.85-1.06,13.26,2.87,17,4.57l.12.11a2.58,2.58,0,0,1,.18-1.64c1.08-2.06,24.07,8,25.47,13.85l.4-.12c.52-.64,1.05-1,1.48-.84,1.72.59,11.17,17.26,12.9,23,.76,2.47.66,5.3.67,7.86C183.08,386.11,182.89,390.08,182.65,394Zm-43.9,53.07c-1-.36-1.93-.64-2.62-.86Zm-12.5,3c.94.46,2.51,1.16,4.4,2l-.53-.29Zm-10.68-.46L127,459.74C126.49,456.87,122.67,452.35,115.57,449.65Z"/><path class="cls-1" d="M130.26,352.81l2.07.66C131.73,353.3,131,353.07,130.26,352.81Z"/><path class="cls-1" d="M138.16,347.73c2,.8,3.6,1.51,4.58,2l-3.89-1.63Z"/><path class="cls-1" d="M153.41,350.05c-7.12-2.62-11-7.1-11.45-10Z"/><path class="cls-1" d="M127,459.74l-11.38-10.09C122.67,452.35,126.49,456.87,127,459.74Z"/><path class="cls-1" d="M130.12,451.78l.53.29c-1.89-.8-3.46-1.5-4.4-2Z"/><path class="cls-1" d="M136.13,446.25c.69.22,1.6.5,2.62.86Z"/><path class="cls-1" d="M166.54,352.09a4.48,4.48,0,0,0-1-1.51,13.76,13.76,0,0,0-1.47-1.37,33.44,33.44,0,0,0-3.43-2.35,66.38,66.38,0,0,0-7.5-3.87,62,62,0,0,0-7.84-3,17.13,17.13,0,0,0-1.94-.48,5.61,5.61,0,0,0-.84-.09.45.45,0,0,0-.18,0l.06,0a.39.39,0,0,0,.14-.06,1,1,0,0,0,.26-.22.75.75,0,0,0,.13-.18l0,0h0a1.54,1.54,0,0,0,.06,1,5.68,5.68,0,0,0,.29.77,7.8,7.8,0,0,0,.44.79,17.68,17.68,0,0,0,5.76,5.35,28.26,28.26,0,0,0,3.69,1.85c.14.05.36.17.56.27l.59.32.95.73a20.27,20.27,0,0,1,1.61,1.6,59,59,0,0,1,5.25,7c.79,1.22,1.57,2.43,2.3,3.68s1.45,2.48,2.08,3.85a.49.49,0,0,1-.87.43l0,0c-.63-1.2-1.43-2.42-2.21-3.6s-1.62-2.35-2.45-3.5a59,59,0,0,0-5.44-6.48,8.88,8.88,0,0,0-3.09-2.24,30.38,30.38,0,0,1-4.13-1.74,18.7,18.7,0,0,1-7.06-5.87,8.61,8.61,0,0,1-1.12-2.32,4.38,4.38,0,0,1,.12-3.17l0-.05.06-.1a1.94,1.94,0,0,1,.21-.29,2,2,0,0,1,.46-.39,2.66,2.66,0,0,1,.4-.17,2.12,2.12,0,0,1,.31-.09,3.67,3.67,0,0,1,.89-.06,9.12,9.12,0,0,1,1.29.18,20.73,20.73,0,0,1,2.23.6,64.07,64.07,0,0,1,8.13,3.38,65.2,65.2,0,0,1,7.56,4.43,28.56,28.56,0,0,1,3.47,2.78,13.94,13.94,0,0,1,1.55,1.69,5.86,5.86,0,0,1,1.1,2.22.74.74,0,0,1-1.42.41Z"/><path class="cls-1" d="M141.06,340.42c-1.47-.48-3-.94-4.52-1.34s-3.06-.84-4.58-1.23-3.06-.77-4.57-1.07a15.22,15.22,0,0,0-2.14-.3H125l.06,0a.84.84,0,0,0,.18-.11,1,1,0,0,0,.18-.17c0-.05,0,0,0,0s0,0,0,0-.08.2-.1.4a4.9,4.9,0,0,0,.38,1.75,9.17,9.17,0,0,0,1,1.9,7.77,7.77,0,0,0,1.46,1.62l.43.32.45.27,1.05.55c2.85,1.49,5.7,2.92,8.64,4.22a.74.74,0,1,1-.6,1.35l-.06,0h0c-2.8-1.53-5.67-2.92-8.56-4.26l-1.09-.5a8.83,8.83,0,0,1-1.18-.63,13.45,13.45,0,0,1-2-1.64,10.9,10.9,0,0,1-1.67-2.06,6.13,6.13,0,0,1-1-2.81,3.61,3.61,0,0,1,.46-1.89l.15-.23a.5.5,0,0,1,.09-.13,1.93,1.93,0,0,1,.3-.27,1.55,1.55,0,0,1,.3-.18l.2-.08a1.42,1.42,0,0,1,.36-.09,4.09,4.09,0,0,1,.89,0,16.18,16.18,0,0,1,2.6.39c1.62.36,3.17.81,4.71,1.3a56,56,0,0,1,9,3.67.74.74,0,0,1-.58,1.36Z"/><path class="cls-1" d="M157.1,370.5c-1.8-3.32-3.77-6.57-5.87-9.71q-1.57-2.35-3.3-4.58a35.9,35.9,0,0,0-3.7-4.15,10.07,10.07,0,0,0-2.07-1.55l-.26-.14-.32-.14-.64-.28-1.3-.53q-2.62-1.07-5.3-2c-3.55-1.27-7.15-2.52-10.73-3.41a19,19,0,0,0-2.61-.47,5,5,0,0,0-.54,0,.52.52,0,0,0-.17,0c-.07,0,0,0,0,0s.12-.06.15-.12a.21.21,0,0,0,.06-.1l0,0c0-.07,0,0,0,0a1.57,1.57,0,0,0,0,.38,6.15,6.15,0,0,0,.79,2.21,8.86,8.86,0,0,0,1.51,2,16,16,0,0,0,4.49,2.79,47.38,47.38,0,0,0,5.24,1.94,16.24,16.24,0,0,1,2.8,1.08,13.44,13.44,0,0,1,2.52,1.67,25.05,25.05,0,0,1,4,4.3c2.35,3.08,4.11,6.52,6.23,9.57v0a.53.53,0,0,1-.85.63c-1.19-1.55-2.19-3.17-3.24-4.75s-2.12-3.13-3.29-4.58c-2.35-2.9-5.11-5.44-8.71-6.18a49.42,49.42,0,0,1-5.53-1.79,17.14,17.14,0,0,1-5.27-3,10.15,10.15,0,0,1-2-2.48,8.36,8.36,0,0,1-1.13-3.12,4,4,0,0,1,0-1,2.48,2.48,0,0,1,.22-.69,1.86,1.86,0,0,1,.71-.77,2.55,2.55,0,0,1,.69-.25,2.76,2.76,0,0,1,.53-.07,6.6,6.6,0,0,1,.89,0,20.78,20.78,0,0,1,3,.54,90.88,90.88,0,0,1,10.95,3.7c1.78.71,3.54,1.43,5.3,2.2l1.32.59.66.31.33.15.35.21a11.87,11.87,0,0,1,2.44,1.93,37.56,37.56,0,0,1,3.73,4.5q1.69,2.34,3.2,4.79A105.48,105.48,0,0,1,158,370.05a.5.5,0,0,1-.88.46Z"/><path class="cls-1" d="M129.31,353.27a30.32,30.32,0,0,0-3.94-.67,18,18,0,0,0-1.93-.07,7.94,7.94,0,0,0-.88.06,2.39,2.39,0,0,0-.35.07c-.09,0-.17.07-.07,0a.24.24,0,0,0,.09-.08.38.38,0,0,0,.12-.16.37.37,0,0,0,.07-.14.19.19,0,0,0,0-.08c0-.07,0,0,0,0a3.48,3.48,0,0,0,.25.65,8.8,8.8,0,0,0,1,1.52,10.78,10.78,0,0,0,2.82,2.56,6.78,6.78,0,0,0,.84.45l.44.19.49.2a10,10,0,0,1,2,1.05,18.14,18.14,0,0,1,3.32,2.89,37.59,37.59,0,0,1,5,7,20.21,20.21,0,0,1,2.3,8.39,59.25,59.25,0,0,1-.14,8.54c-.17,2.8-.5,5.59-.39,8.25a44.76,44.76,0,0,0,1.18,8.08c.61,2.68,1.42,5.36,2.13,8.07a63.38,63.38,0,0,0,2.53,7.83q.39.93.84,1.83c.31.58.65,1.13,1,1.71s.77,1.06,1.15,1.59.89,1,1.33,1.47a19.24,19.24,0,0,0,6.66,4.28,18.46,18.46,0,0,0,7.93,1.16,16.32,16.32,0,0,0,7.63-2.59,19.27,19.27,0,0,0,1.65-1.2q.78-.68,1.5-1.41a16.62,16.62,0,0,0,2.5-3.23,13.8,13.8,0,0,0,1.54-3.73,23.63,23.63,0,0,0,.54-4.05c.09-1.38.11-2.77.16-4.18s.16-2.85.25-4.23c.16-2.79.42-5.55.51-8.36.24-5.61.41-11.16.21-16.74a32.3,32.3,0,0,0-.3-4,13.33,13.33,0,0,0-.41-1.84c-.19-.58-.44-1.2-.7-1.82-1.09-2.47-2.39-4.94-3.73-7.36s-2.72-4.84-4.18-7.19c-.73-1.17-1.47-2.33-2.25-3.44-.38-.55-.78-1.1-1.17-1.57a4.46,4.46,0,0,0-.49-.52s-.08-.06.07,0a1.38,1.38,0,0,0,.39.11.94.94,0,0,0,.61-.12c.12-.09,0,0-.14.21a4.28,4.28,0,0,0-.35.68,10.27,10.27,0,0,0-.57,1.7,10.87,10.87,0,0,0-.37,3.58,6.43,6.43,0,0,0,.13.75l.05.17.09.25.19.49.73,2q.72,2,1.5,3.93l.77,2,.4,1c0,.14.15.39.22.62a4.11,4.11,0,0,1,.13.7,3.9,3.9,0,0,1-.12,1.44c-.1.36-.2.71-.31,1.06-.23.69-.49,1.38-.77,2.05a25.26,25.26,0,0,1-4.66,7.35,48.82,48.82,0,0,0-9.27,13.6,18.57,18.57,0,0,0-1.62,7.89,12.83,12.83,0,0,0,2.7,7.39.63.63,0,0,1-.11.89.63.63,0,0,1-.88-.11,14.19,14.19,0,0,1-3-8.11,20.76,20.76,0,0,1,1.6-8.49c2.14-5.36,5.58-10,9.24-14.29a23.38,23.38,0,0,0,4.12-6.9c.24-.63.45-1.27.64-1.91.1-.32.18-.65.26-1a1.84,1.84,0,0,0,0-.66,1.32,1.32,0,0,0-.07-.32c0-.1-.07-.18-.15-.37l-.42-1-.86-1.92c-.58-1.27-1.17-2.54-1.78-3.81l-.9-1.89-.23-.48-.11-.24-.14-.32a6.59,6.59,0,0,1-.36-1.29,13.36,13.36,0,0,1,.09-4.77,12.81,12.81,0,0,1,.67-2.31,6.64,6.64,0,0,1,.6-1.19,4,4,0,0,1,1.26-1.34,2.45,2.45,0,0,1,3,.27,8.16,8.16,0,0,1,.94,1c.49.62.91,1.21,1.32,1.82.81,1.2,1.56,2.41,2.29,3.63,1.47,2.44,2.84,4.91,4.16,7.42s2.54,5.06,3.62,7.76c.27.68.52,1.37.74,2.13a15.4,15.4,0,0,1,.44,2.27,32.75,32.75,0,0,1,.18,4.38c0,5.64-.4,11.3-.84,16.88-.19,2.79-.56,5.6-.83,8.4-.14,1.41-.31,2.78-.41,4.16s-.18,2.79-.35,4.21a24,24,0,0,1-.8,4.24,14.9,14.9,0,0,1-1.81,3.95,20.92,20.92,0,0,1-6,6.13,19.4,19.4,0,0,1-16.68,2.3,20,20,0,0,1-7.63-4.34,20.6,20.6,0,0,1-5.06-7.23,56.39,56.39,0,0,1-2.75-8.13c-.73-2.71-1.48-5.41-2.08-8.21a47,47,0,0,1-1.11-8.56,71.16,71.16,0,0,1,.68-8.53,57.4,57.4,0,0,0,.5-8.24,17.62,17.62,0,0,0-1.88-7.76,30.33,30.33,0,0,0-4.77-6.65,16.72,16.72,0,0,0-3.09-2.52,8.79,8.79,0,0,0-1.73-.82l-.22-.08-.27-.09-.54-.19c-.36-.14-.71-.3-1-.47a13.29,13.29,0,0,1-3.71-2.66,8.85,8.85,0,0,1-1.46-1.91,5,5,0,0,1-.51-1.3,3.12,3.12,0,0,1,0-1c0-.12,0-.23.08-.35a3.26,3.26,0,0,1,.18-.38,3.17,3.17,0,0,1,.28-.36l.3-.24a3,3,0,0,1,.91-.36,6.53,6.53,0,0,1,.69-.11,8.21,8.21,0,0,1,1.21,0,14.5,14.5,0,0,1,6.4,1.91.75.75,0,0,1-.55,1.37Z"/><path class="cls-1" d="M102.5,447.91a4.48,4.48,0,0,0,1,1.51,12.87,12.87,0,0,0,1.47,1.37,33.44,33.44,0,0,0,3.43,2.35,65.54,65.54,0,0,0,7.5,3.87,61.38,61.38,0,0,0,7.84,3,17.13,17.13,0,0,0,1.94.48,5.63,5.63,0,0,0,.83.09c.12,0,.21,0,.18,0l0,0a.39.39,0,0,0-.14.06.85.85,0,0,0-.26.22.79.79,0,0,0-.14.18l0,0h0a1.54,1.54,0,0,0-.06-1,7.43,7.43,0,0,0-.29-.77,7.8,7.8,0,0,0-.44-.79,17.68,17.68,0,0,0-5.76-5.35,28.9,28.9,0,0,0-3.69-1.85,5.49,5.49,0,0,1-.56-.27l-.59-.32-1-.73a22,22,0,0,1-1.6-1.6,57.88,57.88,0,0,1-5.25-7c-.79-1.22-1.57-2.43-2.3-3.68s-1.45-2.48-2.08-3.85a.49.49,0,0,1,.87-.43v0a40.67,40.67,0,0,0,2.22,3.6c.78,1.19,1.61,2.35,2.45,3.5a57.91,57.91,0,0,0,5.44,6.48,8.88,8.88,0,0,0,3.09,2.24,30.25,30.25,0,0,1,4.12,1.74,18.73,18.73,0,0,1,7.07,5.87,8.61,8.61,0,0,1,1.12,2.32,4.38,4.38,0,0,1-.12,3.17l0,.05s0,0-.05.1a1.94,1.94,0,0,1-.21.29,2.07,2.07,0,0,1-.47.39,2.2,2.2,0,0,1-.39.17,2.12,2.12,0,0,1-.31.09,3.67,3.67,0,0,1-.89.06,8.91,8.91,0,0,1-1.29-.18,20.12,20.12,0,0,1-2.23-.6,64.07,64.07,0,0,1-8.13-3.38,65.2,65.2,0,0,1-7.56-4.43,28.56,28.56,0,0,1-3.47-2.78,13.17,13.17,0,0,1-1.55-1.69,5.86,5.86,0,0,1-1.1-2.22.74.74,0,0,1,1.42-.41Z"/><path class="cls-1" d="M128,459.58c1.47.48,3,.93,4.52,1.34s3.05.84,4.58,1.23,3.06.77,4.57,1.07a15.09,15.09,0,0,0,2.13.3H144l-.06,0a.84.84,0,0,0-.18.11,1,1,0,0,0-.18.17c0,.05,0,0,0,0s0,0,0,0,.08-.2.1-.4a4.73,4.73,0,0,0-.39-1.75,9.12,9.12,0,0,0-1-1.9,7.77,7.77,0,0,0-1.46-1.62l-.43-.32-.45-.27-1.06-.55c-2.84-1.49-5.69-2.92-8.63-4.22a.74.74,0,1,1,.6-1.35l.06,0h0c2.8,1.53,5.67,2.92,8.56,4.26l1.09.5a9.49,9.49,0,0,1,1.18.63,12.89,12.89,0,0,1,2,1.64,11,11,0,0,1,1.68,2.06,6.37,6.37,0,0,1,1,2.81,3.53,3.53,0,0,1-.47,1.89l-.14.23a.64.64,0,0,1-.1.13,1.5,1.5,0,0,1-.29.27,1.57,1.57,0,0,1-.31.18l-.19.08a1.42,1.42,0,0,1-.36.09,4.16,4.16,0,0,1-.9,0,16,16,0,0,1-2.59-.39c-1.62-.36-3.17-.81-4.72-1.3a56.29,56.29,0,0,1-9-3.67.74.74,0,0,1,.58-1.36Z"/><path class="cls-1" d="M111.94,429.5c1.8,3.32,3.77,6.57,5.87,9.71,1,1.57,2.14,3.1,3.3,4.58a35.83,35.83,0,0,0,3.69,4.15,10.64,10.64,0,0,0,2.07,1.55l.27.14.31.14.65.28,1.3.53q2.63,1.07,5.3,2c3.55,1.27,7.15,2.52,10.73,3.41a18.71,18.71,0,0,0,2.61.47,4.89,4.89,0,0,0,.53,0,.42.42,0,0,0,.17,0c.08,0,0,0,0,0s-.12.06-.15.12a.36.36,0,0,0-.07.1l0,0c0,.07,0,0,0,0a2.63,2.63,0,0,0,0-.38,6.12,6.12,0,0,0-.78-2.21,8.86,8.86,0,0,0-1.51-2,16,16,0,0,0-4.49-2.79,48.14,48.14,0,0,0-5.24-1.94,16.24,16.24,0,0,1-2.8-1.08,13.44,13.44,0,0,1-2.52-1.67,25.05,25.05,0,0,1-4-4.3c-2.35-3.08-4.11-6.52-6.23-9.57l0,0a.54.54,0,0,1,.14-.74.52.52,0,0,1,.72.11c1.19,1.55,2.19,3.17,3.24,4.75s2.12,3.13,3.29,4.58c2.35,2.9,5.11,5.44,8.71,6.18a47.45,47.45,0,0,1,5.53,1.79,17,17,0,0,1,5.26,3,10.19,10.19,0,0,1,2,2.48,8.36,8.36,0,0,1,1.13,3.12,4,4,0,0,1,0,1,2.48,2.48,0,0,1-.22.69,1.86,1.86,0,0,1-.71.77,2.67,2.67,0,0,1-.69.25,2.87,2.87,0,0,1-.53.07,6.6,6.6,0,0,1-.89,0,20.78,20.78,0,0,1-3-.54,90.88,90.88,0,0,1-11-3.7c-1.78-.71-3.55-1.43-5.3-2.2l-1.32-.59-.66-.31-.33-.15-.36-.21a11.8,11.8,0,0,1-2.43-1.93,37.56,37.56,0,0,1-3.73-4.5c-1.14-1.56-2.2-3.16-3.2-4.79A107.84,107.84,0,0,1,111.05,430a.49.49,0,0,1,.23-.66.49.49,0,0,1,.65.2Z"/><path class="cls-1" d="M139.73,446.73a30.32,30.32,0,0,0,3.94.67,17.88,17.88,0,0,0,1.92.07,8,8,0,0,0,.89-.06,2.39,2.39,0,0,0,.35-.07c.09,0,.17-.07.07,0a.24.24,0,0,0-.09.08.51.51,0,0,0-.13.16.35.35,0,0,0-.06.14.19.19,0,0,0,0,.08c0,.07,0,0,0,0a2.8,2.8,0,0,0-.24-.65,8.8,8.8,0,0,0-1-1.52,10.78,10.78,0,0,0-2.82-2.56,6.78,6.78,0,0,0-.84-.45l-.44-.19-.49-.2a10,10,0,0,1-2-1.05,18.14,18.14,0,0,1-3.32-2.89,37.59,37.59,0,0,1-5-7,20.06,20.06,0,0,1-2.3-8.39,60.73,60.73,0,0,1,.13-8.54,80.43,80.43,0,0,0,.4-8.25,44.76,44.76,0,0,0-1.18-8.08c-.61-2.68-1.42-5.36-2.13-8.07a65.11,65.11,0,0,0-2.53-7.83c-.26-.62-.54-1.23-.85-1.83s-.65-1.13-1-1.71-.77-1.06-1.14-1.59-.89-1-1.33-1.47a19.33,19.33,0,0,0-6.66-4.28A18.46,18.46,0,0,0,104,370a16.32,16.32,0,0,0-7.63,2.59,19.27,19.27,0,0,0-1.65,1.2c-.52.45-1,.92-1.5,1.41a16.62,16.62,0,0,0-2.5,3.23,13.8,13.8,0,0,0-1.54,3.73,23.5,23.5,0,0,0-.54,4.05c-.09,1.38-.11,2.77-.16,4.18s-.16,2.85-.25,4.23c-.17,2.79-.43,5.55-.51,8.36-.24,5.61-.41,11.16-.21,16.74a32.3,32.3,0,0,0,.3,4,11.63,11.63,0,0,0,.41,1.83c.19.59.44,1.21.7,1.83,1.08,2.47,2.39,4.94,3.73,7.36s2.72,4.84,4.18,7.19c.72,1.17,1.47,2.33,2.25,3.44.38.55.78,1.1,1.17,1.57a3.74,3.74,0,0,0,.49.52s.08.06-.08,0a1.41,1.41,0,0,0-.38-.11.94.94,0,0,0-.61.12c-.12.09,0,0,.14-.21a5.31,5.31,0,0,0,.35-.68,10.27,10.27,0,0,0,.57-1.7,10.87,10.87,0,0,0,.37-3.58,4.79,4.79,0,0,0-.14-.75l-.05-.17-.09-.25-.18-.49-.73-2c-.48-1.32-1-2.63-1.5-3.93l-.77-2-.4-1a5.65,5.65,0,0,1-.22-.61A4.16,4.16,0,0,1,97,428c.1-.36.21-.71.32-1.06.23-.69.48-1.38.77-2.05a25.26,25.26,0,0,1,4.66-7.35A48.82,48.82,0,0,0,112,404a18.73,18.73,0,0,0,1.62-7.89,12.77,12.77,0,0,0-2.71-7.39.64.64,0,0,1,.12-.89.62.62,0,0,1,.87.11,14,14,0,0,1,3,8.11,20.59,20.59,0,0,1-1.59,8.49c-2.14,5.36-5.58,10-9.25,14.29a23.56,23.56,0,0,0-4.11,6.9c-.24.63-.46,1.27-.65,1.91-.09.32-.18.65-.26,1a1.84,1.84,0,0,0,0,.66,2.14,2.14,0,0,0,.08.32,2.35,2.35,0,0,0,.15.37l.42,1,.86,1.92q.87,1.9,1.77,3.81l.91,1.89.23.48.11.24.14.32a7.36,7.36,0,0,1,.36,1.29,13.6,13.6,0,0,1-.09,4.77,12.81,12.81,0,0,1-.67,2.31,7.38,7.38,0,0,1-.6,1.19,4.12,4.12,0,0,1-1.26,1.34,2.45,2.45,0,0,1-3-.27,7.44,7.44,0,0,1-.94-1c-.49-.62-.91-1.21-1.32-1.82-.81-1.2-1.56-2.41-2.3-3.63-1.46-2.44-2.83-4.91-4.15-7.42s-2.54-5.06-3.63-7.76c-.26-.68-.52-1.37-.73-2.13a16.87,16.87,0,0,1-.45-2.27,34.46,34.46,0,0,1-.17-4.38c0-5.64.39-11.3.84-16.88.19-2.79.56-5.6.83-8.4.14-1.41.31-2.78.41-4.16s.18-2.79.34-4.21a24.77,24.77,0,0,1,.81-4.24,14.9,14.9,0,0,1,1.81-3.95,21,21,0,0,1,6-6.13,19.42,19.42,0,0,1,16.69-2.3,19.94,19.94,0,0,1,7.62,4.34,20.5,20.5,0,0,1,5.07,7.23,56.34,56.34,0,0,1,2.74,8.13c.74,2.71,1.49,5.41,2.09,8.21a46.1,46.1,0,0,1,1.1,8.56,69.17,69.17,0,0,1-.67,8.53,58.9,58.9,0,0,0-.51,8.24,17.77,17.77,0,0,0,1.89,7.76,30,30,0,0,0,4.77,6.65,16.72,16.72,0,0,0,3.09,2.52,8.71,8.71,0,0,0,1.72.82l.22.08.28.09.54.19c.35.14.7.3,1,.47a13.09,13.09,0,0,1,3.71,2.66,8.51,8.51,0,0,1,1.45,1.91,4.7,4.7,0,0,1,.52,1.3,3.12,3.12,0,0,1,.05,1c0,.12-.05.23-.09.35a2.48,2.48,0,0,1-.17.38,3.17,3.17,0,0,1-.28.36,3.55,3.55,0,0,1-.31.23,2.83,2.83,0,0,1-.9.37,6.53,6.53,0,0,1-.69.11,8.21,8.21,0,0,1-1.21,0,14.5,14.5,0,0,1-6.4-1.91.75.75,0,0,1,.55-1.37Z"/><path class="cls-1" d="M138.12,320.51a58.78,58.78,0,0,1,58.77,58.78v41.42a58.78,58.78,0,0,1-58.77,58.78h-7.2a58.78,58.78,0,0,1-58.77-58.78V379.29a58.78,58.78,0,0,1,58.77-58.78h7.2m0-4.11h-7.2A63,63,0,0,0,68,379.29v41.42a63,63,0,0,0,62.88,62.89h7.2A63,63,0,0,0,201,420.71V379.29a63,63,0,0,0-62.88-62.89Z"/><path class="cls-1" d="M265.45,328.08v12.55h-14.7v60H238.21v-60h-14.7V328.08Z"/><path class="cls-1" d="M346.15,328.12v50.79a21.75,21.75,0,0,1-37.26,15.27,21.76,21.76,0,0,1-37.26-15.27V328.12h12.55v50.79a9.22,9.22,0,0,0,18.44,0V328.12h12.55v50.79a9.22,9.22,0,1,0,18.44,0V328.12Z"/><path class="cls-1" d="M401.62,352.21v24.31a24.13,24.13,0,0,1-48.26,0V352.21a24.13,24.13,0,0,1,48.26,0Zm-12.55,0a11.58,11.58,0,1,0-23.16,0v24.31a11.58,11.58,0,0,0,23.16,0Z"/><path class="cls-1" d="M480.57,388.27v12.54H438.62V328.26h12.54v60Z"/><path class="cls-1" d="M537,352.28v48.39H524.45V374.93H501.37v25.82H488.82V352.28a24.09,24.09,0,0,1,48.17,0Zm-12.54,10.11V352.28a11.54,11.54,0,0,0-23.08,0v10.11Z"/><path class="cls-1" d="M595,351.44v26.07a23.26,23.26,0,0,1-23.24,23.24H548.62v-60h-5.45V328.2h28.58A23.26,23.26,0,0,1,595,351.44Zm-12.54,0a10.71,10.71,0,0,0-10.7-10.7H561.17v47.47h10.58a10.71,10.71,0,0,0,10.7-10.7Z"/><path class="cls-1" d="M621.31,340.94v47.33h5.44v12.54H603.33V388.27h5.44V340.94h-5.44V328.4h5.44v-.14h12.54v.14h5.44v12.54Z"/><path class="cls-1" d="M647.61,349.47a8.73,8.73,0,0,0,8.73,8.73h23.2v12.55h-23.2a21.22,21.22,0,0,1-8.73-1.88v10.61a8.74,8.74,0,0,0,8.73,8.73h23.2v12.54h-23.2a21.29,21.29,0,0,1-21.27-21.27v-30a21.29,21.29,0,0,1,21.27-21.27h23.2v12.54h-23.2A8.73,8.73,0,0,0,647.61,349.47Z"/><path class="cls-1" d="M731.94,380.71c-.5,11.42-10,20-22,20-15.18,0-20.4-10.65-21.63-13.92l11.94-4.53c1,2.59,3.46,5.68,9.69,5.68,5.17,0,9.07-3.3,9.27-7.84.07-1.64.29-6.62-11.34-10.61-17.08-5.86-20.28-15.88-20-23.26.51-11.43,10-20,22-20,15.17,0,20.39,10.66,21.63,13.92l-11.95,4.53c-1-2.59-3.46-5.67-9.68-5.67-5.18,0-9.07,3.29-9.27,7.83-.08,1.64-.3,6.63,11.33,10.62C729.07,363.31,732.27,373.33,731.94,380.71Z"/><path class="cls-1" d="M262,444.17a14.3,14.3,0,0,1,4.49,10.39v12.23h-7.83V454.56a6.51,6.51,0,0,0-6-6.47h-7v18.72H237.8V421.55h7.83v18.69h7a6.51,6.51,0,0,0,6-6.47V421.55h7.83v12.23A14.28,14.28,0,0,1,262,444.17Z"/><path class="cls-1" d="M282.87,429.46V459h3.39v7.83H271.65V459H275V429.46h-3.39v-7.82H275v-.09h7.83v.09h3.39v7.82Z"/><path class="cls-1" d="M316.32,421.44v7.83h-9.17v37.44h-7.82V429.27h-9.18v-7.83Z"/><path class="cls-1" d="M342.46,451.64h7.83a15.06,15.06,0,0,1-30.11,0V436.47a15.06,15.06,0,0,1,30.11,0h-7.83a7.23,7.23,0,0,0-14.45,0v15.17a7.23,7.23,0,0,0,14.45,0Z"/><path class="cls-1" d="M385.57,421.55v45.22h-7.83v-18.7H363.28v18.75h-7.83V421.55h7.83v18.7h14.46v-18.7Z"/><path class="cls-1" d="M398.55,434.79a5.44,5.44,0,0,0,5.44,5.44h14.48v7.83H404a13.27,13.27,0,0,1-5.44-1.17v6.62A5.45,5.45,0,0,0,404,459h14.48v7.83H404a13.29,13.29,0,0,1-13.27-13.27V434.79A13.29,13.29,0,0,1,404,421.51h14.48v7.83H404A5.44,5.44,0,0,0,398.55,434.79Z"/><path class="cls-1" d="M454.84,435.83v30.9H447v-30.9a6.55,6.55,0,1,0-13.09,0v30.9H426.1V429.37h-3.74v-7.83h3.92a7.64,7.64,0,0,1,5.78,2.65,14.36,14.36,0,0,1,22.78,11.64Z"/></svg>