<svg id="Layer_1" data-name="Layer 1" xmlns="http://www.w3.org/2000/svg" viewBox="0 0 800 800"><defs><style>.cls-1{fill:#30261d;}</style></defs><path class="cls-1" d="M385.44,296.8a9.61,9.61,0,0,0-2.31-.14c-.48-.67-1-1.33-1.47-2h0a3.39,3.39,0,0,0-.33-.42c-.52-.68-1.08-1.36-1.66-2v0a1.06,1.06,0,1,1,1.58-1.41,0,0,0,0,1,0,0c1,1.14,1.85,2.3,2.7,3.5h0c.16.23.34.47.5.71.42.59.83,1.18,1.23,1.79Z"/><path class="cls-1" d="M386.57,298.18c.29.44.58.89.87,1.36a4.3,4.3,0,0,0-.95,0c-.43,0-.84,0-1.28.09-.08-.13-.16-.24-.24-.35-.25-.35-.49-.72-.75-1.07a13.48,13.48,0,0,1,2.11-.36Z"/><path class="cls-1" d="M397.21,316.21a2.47,2.47,0,0,0-.56.43,2.65,2.65,0,0,0-.46.7c-.58-1-1.18-2-1.76-3-.9-1.54-1.81-3.06-2.74-4.58-.25-.43-.53-.86-.8-1.29s-.53-.87-.8-1.3a2.68,2.68,0,0,0-.46-1.66l0,0a.53.53,0,0,1-.06-.14l-.56.08c-.34-.55-.67-1.09-1-1.62l.16,0a11.05,11.05,0,0,0,1.37-.28,1.62,1.62,0,0,0,.33-.13l.6,1c.11.17.23.37.34.56l.05.08h0l.48.8c.26.45.53.88.79,1.33v0c1.24,2.11,2.48,4.25,3.68,6.41C396.24,314.45,396.73,315.33,397.21,316.21Z"/><path class="cls-1" d="M399.82,322.18s0,0-.05.06a.56.56,0,0,1-.22.18h-.11a.29.29,0,0,1-.16,0h0a.63.63,0,0,1-.58-.36V322l0,0a1,1,0,0,0-.08-.18v0a2.53,2.53,0,0,0-.13-.22.55.55,0,0,0-.08-.18,2.16,2.16,0,0,0-.19-.37,5.1,5.1,0,0,0-.29-.57,6.61,6.61,0,0,0-.34-.64c-.09-.21-.21-.42-.32-.62h0c-.15-.31-.32-.61-.48-.9a1.9,1.9,0,0,1,.86-1.39c.56,1,1.1,2.08,1.6,3.16a1.06,1.06,0,0,1,.14.31.06.06,0,0,1,0,.06,1.32,1.32,0,0,1,.17.39,3.87,3.87,0,0,1,.29.62.3.3,0,0,1,.06.11A.61.61,0,0,1,399.82,322.18Z"/><path class="cls-1" d="M441.93,389.33a109,109,0,0,0-2.16-16c-1-5.23-2.27-10.4-3.74-15.51-.74-2.56-1.49-5.11-2.38-7.64-.45-1.27-.92-2.53-1.46-3.79-.27-.65-.54-1.28-.88-1.94a10.37,10.37,0,0,0-1.31-2,46.4,46.4,0,0,0-6-5.56c-.77-.63-1.55-1.25-2.33-1.83a20.55,20.55,0,0,1-4.77-1.13c-.69-.26-1.36-.53-2-.83l1.18,1c2,1.69,4,3.41,5.9,5.16a51.17,51.17,0,0,1,5.25,5.43,5.4,5.4,0,0,1,.78,1.36c.23.53.44,1.12.65,1.71.41,1.18.76,2.42,1.11,3.65.71,2.5,1.35,5,1.94,7.53,1.15,5.09,2.21,10.2,3.07,15.32q.64,3.84,1.12,7.68c.32,2.56.58,5.12.67,7.61.05,1.25.05,2.5,0,3.68a11.74,11.74,0,0,1-.53,3.09,2.82,2.82,0,0,1-.17.39s0,0,.07,0-.11.09-.07,0c-.4.23-.82.55-1.32.78a28.73,28.73,0,0,1-3.26,1.49,75,75,0,0,1-14.71,3.73,99.08,99.08,0,0,1-30.62.14,75.1,75.1,0,0,1-14.8-3.6,25.48,25.48,0,0,1-3.31-1.46,15.2,15.2,0,0,1-1.46-.85,1.58,1.58,0,0,1-.24-.48,11.61,11.61,0,0,1-.57-3.2c-.08-1.21-.1-2.46-.07-3.72a123.12,123.12,0,0,1,1.73-15.38q1.24-7.71,3.09-15.34c.61-2.53,1.21-5.06,1.94-7.56.36-1.24.73-2.47,1.16-3.67.21-.6.44-1.19.68-1.75a5.66,5.66,0,0,1,.84-1.42,47.32,47.32,0,0,1,5.36-5.44c2-1.75,4-3.43,6-5.09l1.17-.95a20.65,20.65,0,0,1-2,.63,21,21,0,0,1-2.85.53c-1.3,1-2.58,2-3.86,3.09a48.65,48.65,0,0,0-5.9,5.56,9.1,9.1,0,0,0-1.25,1.91c-.32.64-.59,1.26-.85,1.9-.53,1.25-1,2.51-1.41,3.78-.86,2.52-1.66,5.05-2.37,7.61-1.42,5.12-2.67,10.27-3.72,15.49a114.4,114.4,0,0,0-2.24,15.9,41.49,41.49,0,0,0,0,4.18,15.71,15.71,0,0,0,.75,4.56,5.55,5.55,0,0,0,1.89,2.74,21,21,0,0,0,1.93,1.21,30.29,30.29,0,0,0,3.86,1.78,80.06,80.06,0,0,0,15.76,4.1,99.21,99.21,0,0,0,32.26.14,81.14,81.14,0,0,0,15.85-3.95,34,34,0,0,0,3.92-1.78,22.39,22.39,0,0,0,2-1.2,6.24,6.24,0,0,0,2-2.91,17.33,17.33,0,0,0,.8-4.67C442,392.1,442,390.71,441.93,389.33ZM417.66,332q-5.12-3.73-10.37-7.21c-.28-.2-.56-.39-.84-.56s-.6-.4-.89-.58l-.22-.16.07,0a2.25,2.25,0,0,1,.3-.24,8.12,8.12,0,0,0-1.06-.88h-.17c-.24.26-.48.51-.71.77l0,.05a.69.69,0,0,0-.09.65,4.39,4.39,0,0,0,.48.49l4.06,3.28c.32.27.66.52,1,.8s.64.51,1,.78l1.77,1.45a30.29,30.29,0,0,0,5.27,2.58,21.33,21.33,0,0,0,3.23.88Zm-5-15.24c-1.15.43-2.29.89-3.42,1.37a0,0,0,0,1,0,0c-1.39,1.15-2.8,2.27-4.11,3.55a3.44,3.44,0,0,0-.27.27,2.29,2.29,0,0,0-.27.27v0l.09.06a3,3,0,0,0,.42,0l.45-.05c.81-.13,1.64-.35,2.13-.46,0,0,0,0,0,0,2.84-2.05,5.92-3.85,8.89-5.73.47-.27.91-.55,1.38-.83A35.68,35.68,0,0,0,412.65,316.79Zm-14.93,7.77v0l-.41-.84a1.39,1.39,0,0,0-.06-.13l0,.05c-.86,1.23-1.79,2.4-2.65,3.61.88-.7,1.77-1.41,2.67-2.09l.58-.43Zm1-1.33s0,0-.05-.08v0c-.13-.14-.26-.3-.42-.45a.58.58,0,0,0-.17-.19.59.59,0,0,0-.18-.17s0-.09-.09-.12a.18.18,0,0,0-.09-.08.61.61,0,0,0-.12-.16l-.07,0s0-.05-.06-.09a.47.47,0,0,0-.13-.11.77.77,0,0,1,.07.16.42.42,0,0,1,0,.12l.09.23a.22.22,0,0,0,0,.09l.06,0s0,0,0,.05.11.28.17.41a.47.47,0,0,0,.08.14v0c.15.35.29.66.42.91s.13.26.16.35l.14-.11h0l.06-.07a.53.53,0,0,0,.13-.19A.63.63,0,0,0,398.73,323.23Zm-2.52-2.61c-.89-.81-1.81-1.58-2.74-2.33l-.55-.43c-.49-.26-1-.5-1.48-.74a33.37,33.37,0,0,0-9.38-3.1c1.41.81,2.82,1.63,4.21,2.46,2.43,1.49,4.91,2.94,7.28,4.51l.73.26c.74.27,1.56.45,2.33.69A12,12,0,0,1,396.21,320.62Zm.6,1.89a2.46,2.46,0,0,1-.48.43l.24.2a5.06,5.06,0,0,0,.31-.43C396.86,322.64,396.83,322.58,396.81,322.51Zm-11.87,9.75c-.37.27-.72.54-1.09.83.47-.08.91-.18,1.36-.29a22.88,22.88,0,0,0,4.42-1.68c.89-.72,1.81-1.44,2.7-2.14l0,0c.35-.51.72-1,1.1-1.57.55-.77,1.11-1.52,1.67-2.25l.33-.47C391.9,327.14,388.38,329.65,384.94,332.26Zm2.91-18.2L386.3,313c-.89-.62-1.81-1.25-2.7-1.84q-2.36-1.56-4.74-3a18.82,18.82,0,0,0-2.58-.45,17.8,17.8,0,0,0-4.78.24l2.8,1.62c.37.2.71.41,1.07.62h0l2.49,1.45c.88.51,1.77,1,2.64,1.52a25.57,25.57,0,0,1,9.48,2.51Zm53.81-15.8c-.05-.18-.13-.34-.19-.5l-.13-.22-.06-.12c-.21-.3-.39-.6-.61-.89a12.37,12.37,0,0,0-1.39-1.59,19.38,19.38,0,0,0-3.19-2.41c-2.17-1.34-4.27-2.42-6.22-3.68s-3.95-2.69-6-4a36.61,36.61,0,0,0-6.72-3.57,12,12,0,0,0-2-.57,8.12,8.12,0,0,0-1.15-.12l-.63,0a2.41,2.41,0,0,0-1.11.33,2.74,2.74,0,0,0-.89.8,1.94,1.94,0,0,0-.19.34l-.11.23-.17.36-.24.52a16.75,16.75,0,0,0-.77,1.74,2.31,2.31,0,0,0-.16.41c-.87,2.18-1.57,4.37-2.24,6.55-1.41,4.67-2.69,9.34-3.78,14.06L402.05,313l-.76,3.56-.08.35,0-.21-.72-3.41-1.55-6.81c-1-4.53-2.24-9-3.57-13.52-.66-2.24-1.39-4.47-2.21-6.71-.08-.19-.16-.38-.22-.57-.23-.56-.43-1.12-.69-1.68a7.54,7.54,0,0,0-.5-1.09l-.41-.85a2.29,2.29,0,0,0-.53-.75,2.71,2.71,0,0,0-1-.61,2.81,2.81,0,0,0-.59-.13h-.29l-.56,0c-.37,0-.72.05-1.07.1a18.14,18.14,0,0,0-7,3.12,48.87,48.87,0,0,0-5.62,4.51,101.85,101.85,0,0,0-9.65,10.4l-.54.69-.27.35a2.82,2.82,0,0,0-.55,1.06,3.25,3.25,0,0,0-.08,1.16v0a2.79,2.79,0,0,0,.32,1,1.19,1.19,0,0,0,.08.16,3.14,3.14,0,0,0,.83.91l.28.18c1.15-.82,2.3-1.62,3.47-2.37l-.8-.48-.3.4-.2.22a.31.31,0,0,0,.07-.16.85.85,0,0,0-.08-.64,2,2,0,0,0-.19-.24l.19.11.51.31.22-.27c.74-.92,1.46-1.8,2.21-2.69a0,0,0,0,0,0,0c.43-.49.85-1,1.29-1.45q2.71-3.11,5.68-5.91a47.59,47.59,0,0,1,5.12-4.28,15.45,15.45,0,0,1,5.54-2.68c.22,0,.43,0,.66-.08h.09l-.11-.22h0a.86.86,0,0,0,.26.18.51.51,0,0,0,.17,0h-.35l.26.47c.52.91.94,2,1.39,3,.85,2.1,1.65,4.24,2.38,6.43,1.49,4.35,2.8,8.79,4.16,13.22l1.94,6.67.61,2.1a2.62,2.62,0,0,1,1.77,1.47l.11-.11.1-.08a2.69,2.69,0,0,1,1.73-.66l.85-3,2-6.95c1.42-4.6,2.77-9.21,4.35-13.74.79-2.24,1.6-4.49,2.56-6.62.24-.53.47-1.07.74-1.56l.36-.67h-.32a.43.43,0,0,0,.26-.1.55.55,0,0,0,.23-.19s0,0,0,.06l-.09.18,0,.06c.2,0,.4.07.6.08a10,10,0,0,1,1.45.45,33.92,33.92,0,0,1,6,3.34c2,1.33,3.89,2.72,6,4.1s4.31,2.53,6.23,3.74a14.89,14.89,0,0,1,2.56,2,9.45,9.45,0,0,1,1,1.12l.22.32.05,0-.05,0-1.48.91-.21.13-.69.41-1.85,1.12c1.11.72,2.23,1.49,3.36,2.28l1.29-.77.32-.2.9-.52.35-.21.38-.24a2.84,2.84,0,0,0,.82-.72,3.23,3.23,0,0,0,.72-1.95A3,3,0,0,0,441.66,298.26Zm-15.5,9.39a16.14,16.14,0,0,0-2.87.53c-1.5,1-3,2-4.49,3l0,0c-.88.59-1.74,1.2-2.62,1.82-.37.24-.74.52-1.11.77-1.2.86-2.4,1.73-3.57,2.64l.9-.35a32.74,32.74,0,0,1,7.39-1.92l3.84-2.31c.93-.54,1.83-1.08,2.74-1.63h0c.87-.5,1.71-1,2.58-1.52l1.44-.85A17.17,17.17,0,0,0,426.16,307.65Zm-24.71,10.43-.13.19a.47.47,0,0,1,0,.16,5.82,5.82,0,0,0,.19,1.16c0,.11.08.23.12.35a2.22,2.22,0,0,0,.14.38.38.38,0,0,0,0,.1,1.19,1.19,0,0,0,.08-.16.89.89,0,0,1,.05-.13l0-.13.07-.22,0-.21.26-.86.4-1.43A2,2,0,0,0,401.45,318.08Zm-.44,2.43a6,6,0,0,1-.26-.85.58.58,0,0,1,0-.19h0v0a2.26,2.26,0,0,1-.09-.58,1.41,1.41,0,0,1-.05-.4,1,1,0,0,0-.05-.3,1.9,1.9,0,0,0-1-1.36l.08.29.48,1.68,0,.11.14.48.07.24.06.24,0,.18.05.14a1.88,1.88,0,0,0,.14.34,1.64,1.64,0,0,0,.21.24,1.14,1.14,0,0,0,.29.17A3.09,3.09,0,0,1,401,320.51Zm-3.29,1.6a.34.34,0,0,1,0,.13.1.1,0,0,1,.07-.05A.18.18,0,0,0,397.72,322.11Zm0,2.45c-.16.19-.31.38-.49.58l.58-.43Zm1-1.33a3.19,3.19,0,0,1-.3.42c-.05.08-.11.14-.16.22s.13.26.16.35l.14-.11h0l.06-.07a.53.53,0,0,0,.13-.19A.63.63,0,0,0,398.73,323.23Z"/><path class="cls-1" d="M404.94,319.09a2.08,2.08,0,0,1,0,.43,1.54,1.54,0,0,1-.1.35.69.69,0,0,1-.05.13h.05a2,2,0,0,0-.17.32c-.08.14-.15.3-.23.44a.05.05,0,0,1,0,.05v0l-.19.35v0h0a4,4,0,0,0-.23.34c-.11.14-.2.28-.31.41a1.24,1.24,0,0,1-.17.23c-.06.09-.14.17-.2.27a.62.62,0,0,1-.4-.05.64.64,0,0,1-.27-.24.6.6,0,0,1-.05-.61c.11-.27.24-.53.36-.8a.7.7,0,0,1,.09-.17,1.31,1.31,0,0,1,.17-.36s0,0,0,0l0,0c.05-.11.1-.22.16-.33l.1-.21c.3-.63.61-1.23.92-1.83A2,2,0,0,1,404.94,319.09Z"/><path class="cls-1" d="M414.52,303.76l-1,1.63c-.2,0-.4-.06-.6-.09a1.21,1.21,0,0,1-.05.14l0,0a2.74,2.74,0,0,0-.46,1.71c-.27.43-.54.85-.79,1.28s-.55.88-.81,1.31c-.93,1.5-1.84,3-2.74,4.55s-1.61,2.78-2.4,4.19a1,1,0,0,0-.13-.42,2.42,2.42,0,0,0-.75-1c.64-1.2,1.3-2.37,1.94-3.57,1.21-2.2,2.45-4.37,3.73-6.53l.72-1.23.43-.72a.54.54,0,0,1,.11-.18c.1-.19.21-.37.32-.54.21-.35.4-.69.63-1a1.37,1.37,0,0,0,.35.15,10.35,10.35,0,0,0,1.37.28Z"/><path class="cls-1" d="M418.27,298.18c-.26.36-.51.73-.77,1.1-.08.11-.14.21-.21.32h0c-.45-.05-.88-.08-1.33-.09a4.65,4.65,0,0,0-1,0c.27-.47.56-.92.86-1.38l.24-.35A13.6,13.6,0,0,1,418.27,298.18Z"/><path class="cls-1" d="M422.86,292.26s0,0,0,0l0,0c-.56.62-1.12,1.28-1.65,2a3.25,3.25,0,0,0-.31.42c-.52.64-1,1.3-1.49,2a10.12,10.12,0,0,0-2.37.14,2.84,2.84,0,0,0-.31.06c.4-.6.8-1.2,1.22-1.79.16-.24.32-.48.5-.7.85-1.22,1.76-2.4,2.73-3.57a1.14,1.14,0,0,1,1.59-.13A1.13,1.13,0,0,1,422.86,292.26Z"/><path class="cls-1" d="M390.82,284.62a24.1,24.1,0,0,1,5.36-1.78,21.67,21.67,0,0,1,2.83-.43,13.11,13.11,0,0,1,3,0,8.43,8.43,0,0,1,1.62.35l1.28.45a6.68,6.68,0,0,0,2,.52,7.32,7.32,0,0,0,2.21-.7,4.78,4.78,0,0,1,3.27-.19.65.65,0,0,1,.37.84.65.65,0,0,1-.52.41l-.18,0a5.41,5.41,0,0,0-2,.94c-.39.23-.65.46-1.13.75a5.17,5.17,0,0,1-1.68.67,7.35,7.35,0,0,1-3.32-.43l-1.32-.42a6.9,6.9,0,0,0-1-.25,25.94,25.94,0,0,0-5.07,0c-1.76.12-3.55.31-5.35.51h0a.67.67,0,0,1-.36-1.26Z"/><path class="cls-1" d="M406.53,290.76a64.24,64.24,0,0,1-1.73,8.69c-.75,2.84-1.59,5.64-2.55,8.42a.66.66,0,0,1-1.25-.41h0c.83-2.76,1.56-5.57,2.18-8.39a63.7,63.7,0,0,0,1.33-8.49h0a1,1,0,0,1,2,.16Z"/><path class="cls-1" d="M409.85,361.36a3.23,3.23,0,0,0-.3-.85,4.47,4.47,0,0,0-1-1.33,3.75,3.75,0,0,0-3.24-.91,5.45,5.45,0,0,0-2.49,1.22,7.4,7.4,0,0,0-.88.89,6,6,0,0,0-.87-.94,5.55,5.55,0,0,0-2.52-1.25,3.9,3.9,0,0,0-3.32.93,4.86,4.86,0,0,0-1,1.36,3.17,3.17,0,0,0-.31.86,2.8,2.8,0,0,0-.11,1,5.11,5.11,0,0,0,1.26,3.05A9.78,9.78,0,0,0,397,367.2a20,20,0,0,0,4.17,2.43l0,0a1.77,1.77,0,0,0,1.49,0,19.76,19.76,0,0,0,4.14-2.48,11.86,11.86,0,0,0,1.89-1.81,5.14,5.14,0,0,0,1.22-3A2.43,2.43,0,0,0,409.85,361.36Z"/><path class="cls-1" d="M399.82,321.44a1.42,1.42,0,0,0-.38-.53l-.34-.24h0a2.58,2.58,0,0,0-.32-.18c-.4-.24-.8-.46-1.22-.67-.25-.15-.51-.29-.77-.42a4.37,4.37,0,0,1,.09.5,14.71,14.71,0,0,0,.49,1.82.77.77,0,0,1,.07.16.42.42,0,0,1,0,.12l.09.23a.22.22,0,0,0,0,.09l.06,0s0,0,0,.05.11.28.17.41a.47.47,0,0,0,.08.14v0c.15.35.29.66.42.91s.13.26.16.35,0,0,0,0a.72.72,0,0,0,.11-.15h0s0-.05,0-.08.1-.11.15-.18.3-.43.45-.64.16-.22.23-.34a.56.56,0,0,0,.1-.15,1.71,1.71,0,0,0,.21-.45s0-.05,0-.08A1.17,1.17,0,0,0,399.82,321.44Zm-2,3.27-.09-.15v0l-.41-.84a1.39,1.39,0,0,0-.06-.13l0,.05c-.86,1.23-1.79,2.4-2.65,3.61-.16.21-.31.4-.45.61s-.39.53-.56.8-.51.7-.75,1.06l.78-.58a25.37,25.37,0,0,0,3.34-3c.37-.4.71-.8,1-1.17C397.9,324.86,397.85,324.8,397.81,324.71Zm-1-2.2a2.46,2.46,0,0,1-.48.43c-.4.37-.85.72-1.34,1.12a27.56,27.56,0,0,1-3.3,2.26,20.28,20.28,0,0,1-9.77,2.69,16.73,16.73,0,0,1-3.06-.27,8.58,8.58,0,0,1-3.33-1.22,4.24,4.24,0,0,1-1.87-2.91,4.35,4.35,0,0,1,.43-2.24c1.33-3.07,4.26-4.27,7.35-4.27.35,0,.72,0,1.08,0a36.28,36.28,0,0,1,7.81,1.78c1.08.32,2.15.69,3.22,1.07l.73.26c.74.27,1.56.45,2.33.69a12,12,0,0,1-.4-1.32,9.42,9.42,0,0,1-.23-1.2c-.24-.12-.5-.25-.73-.38-.77-.4-1.54-.8-2.33-1.18-.49-.26-1-.5-1.48-.74a33.37,33.37,0,0,0-9.38-3.1,14.23,14.23,0,0,0-1.84-.13c-.4,0-.81,0-1.21.06a12,12,0,0,0-9.16,5.73,9.28,9.28,0,0,0-.44,8.9,9.82,9.82,0,0,0,6.6,4.53,18.93,18.93,0,0,0,3.78.38,21.92,21.92,0,0,0,4.06-.4c.47-.08.91-.18,1.36-.29a22.88,22.88,0,0,0,4.42-1.68,17.72,17.72,0,0,0,2-1.15c.22-.34.44-.66.68-1l0,0c.35-.51.72-1,1.1-1.57.55-.77,1.11-1.52,1.67-2.25l.33-.47c.39-.51.77-1,1.12-1.53a5.06,5.06,0,0,0,.31-.43C396.86,322.64,396.83,322.58,396.81,322.51Z"/><path class="cls-1" d="M397.72,322.11v0a1.72,1.72,0,0,1,0-.32v0a.36.36,0,0,1,0-.14.63.63,0,0,1,0-.19l-.32.41-.06.05a.42.42,0,0,1,0,.12l.09.23a.22.22,0,0,0,0,.09l.06,0,0,0h0a.84.84,0,0,0,.14.06,1.08,1.08,0,0,1,0-.19A.34.34,0,0,0,397.72,322.11Zm0,0v0a1.72,1.72,0,0,1,0-.32v0a.36.36,0,0,1,0-.14.63.63,0,0,1,0-.19l-.32.41-.06.05a.42.42,0,0,1,0,.12l.09.23a.22.22,0,0,0,0,.09l.06,0,0,0h0a.84.84,0,0,0,.14.06,1.08,1.08,0,0,1,0-.19A.34.34,0,0,0,397.72,322.11Zm0,0v0a1.72,1.72,0,0,1,0-.32v0a.36.36,0,0,1,0-.14.63.63,0,0,1,0-.19l-.32.41-.06.05a.42.42,0,0,1,0,.12l.09.23a.22.22,0,0,0,0,.09l.06,0,0,0h0a.84.84,0,0,0,.14.06,1.08,1.08,0,0,1,0-.19A.34.34,0,0,0,397.72,322.11Zm0,0v0a1.72,1.72,0,0,1,0-.32v0a.36.36,0,0,1,0-.14.63.63,0,0,1,0-.19l-.32.41-.06.05a.42.42,0,0,1,0,.12l.09.23a.22.22,0,0,0,0,.09l.06,0,0,0h0a.84.84,0,0,0,.14.06,1.08,1.08,0,0,1,0-.19A.34.34,0,0,0,397.72,322.11Zm0,0v0a1.72,1.72,0,0,1,0-.32v0a.36.36,0,0,1,0-.14.63.63,0,0,1,0-.19l-.32.41-.06.05a.42.42,0,0,1,0,.12l.09.23a.22.22,0,0,0,0,.09l.06,0,0,0h0a.84.84,0,0,0,.14.06,1.08,1.08,0,0,1,0-.19A.34.34,0,0,0,397.72,322.11Zm0,0v0a1.72,1.72,0,0,1,0-.32v0a.36.36,0,0,1,0-.14.63.63,0,0,1,0-.19l-.32.41-.06.05a.42.42,0,0,1,0,.12l.09.23a.22.22,0,0,0,0,.09l.06,0,0,0h0a.84.84,0,0,0,.14.06,1.08,1.08,0,0,1,0-.19A.34.34,0,0,0,397.72,322.11Zm0,0v0a1.72,1.72,0,0,1,0-.32v0a.36.36,0,0,1,0-.14.63.63,0,0,1,0-.19l-.32.41-.06.05a.42.42,0,0,1,0,.12l.09.23s0,.09.05.12l0,0h0a.84.84,0,0,0,.14.06,1.08,1.08,0,0,1,0-.19A.34.34,0,0,0,397.72,322.11Zm0,0v0a1.72,1.72,0,0,1,0-.32v0a.36.36,0,0,1,0-.14.63.63,0,0,1,0-.19l-.32.41-.06.05a.42.42,0,0,1,0,.12l.09.23s0,.09.05.12l0,0h0a.84.84,0,0,0,.14.06,1.08,1.08,0,0,1,0-.19A.34.34,0,0,0,397.72,322.11Zm0,0v0a1.72,1.72,0,0,1,0-.32v0a.36.36,0,0,1,0-.14.63.63,0,0,1,0-.19l-.32.41-.06.05a.42.42,0,0,1,0,.12l.09.23s0,.09.05.12l0,0h0a.84.84,0,0,0,.14.06,1.08,1.08,0,0,1,0-.19A.34.34,0,0,0,397.72,322.11Zm-.25-.29-.06.05a.42.42,0,0,1,0,.12l.09.23s0,.09.05.12l0,0h0a.28.28,0,0,1,.11-.13.34.34,0,0,0,0-.13v0a1.72,1.72,0,0,1,0-.32v0a.36.36,0,0,1,0-.14.63.63,0,0,1,0-.19Zm0,0-.06.05a.42.42,0,0,1,0,.12l.09.23a1.54,1.54,0,0,1,.07-.27.61.61,0,0,1,.12.16v0a1.72,1.72,0,0,1,0-.32v0a.36.36,0,0,1,0-.14.63.63,0,0,1,0-.19Zm0,0s.06.05.06.09l.07,0a.61.61,0,0,1,.12.16v0a1.72,1.72,0,0,1,0-.32v0a.36.36,0,0,1,0-.14.63.63,0,0,1,0-.19Zm2.72-.51a1.57,1.57,0,0,0-.48-.67,2.66,2.66,0,0,0-.32-.24l-.07,0-.06-.05c-.06-.05-.14-.08-.21-.13-.6-.35-1.21-.68-1.84-1h0c-.16-.1-.32-.18-.48-.26,0,.16,0,.3,0,.46a4.37,4.37,0,0,1,.09.5,11.33,11.33,0,0,1,1,.56,3.5,3.5,0,0,1,.56.32c.13.06.24.13.35.19l.08.05a1.75,1.75,0,0,1,.27.16,1,1,0,0,1,.32.4.53.53,0,0,1,0,.35,1.17,1.17,0,0,1-.13.4.53.53,0,0,0-.06.14h0c0,.07-.08.12-.11.18a.13.13,0,0,0,0,.05l-.39.54a3.19,3.19,0,0,1-.3.42c-.05.08-.11.14-.16.22s.13.26.16.35,0,0,0,0a.64.64,0,0,1,.06.11l.13.22a0,0,0,0,0,0,0h0c.08-.11.17-.21.24-.3.26-.34.5-.66.71-1,.06-.08.11-.18.18-.26s.12-.17.19-.32A1.8,1.8,0,0,0,400.19,321.31ZM398,325s0,0-.05-.09-.08-.13-.12-.22l-.09-.15c-.16.19-.31.38-.49.58s-.38.46-.59.68a23.61,23.61,0,0,1-3.09,2.82c-.26.35-.51.7-.75,1.06s-.42.57-.61.88c.56-.36,1.1-.74,1.63-1.14a26.31,26.31,0,0,0,3.3-3c.3-.46.59-.93.89-1.38C398,325.06,398,325,398,325Zm-.51-3.2s.06.05.06.09l.07,0a.61.61,0,0,1,.12.16v0a1.72,1.72,0,0,1,0-.32v0a.36.36,0,0,1,0-.14.63.63,0,0,1,0-.19Zm0,0s.06.05.06.09l.07,0a.61.61,0,0,1,.12.16v0a1.72,1.72,0,0,1,0-.32v0a.36.36,0,0,1,0-.14.63.63,0,0,1,0-.19Zm0,0-.06.05a.42.42,0,0,1,0,.12l.09.23s0,.09.05.12l0,0h0a.28.28,0,0,1,.11-.13.34.34,0,0,0,0-.13v0a1.72,1.72,0,0,1,0-.32v0a.36.36,0,0,1,0-.14.63.63,0,0,1,0-.19Zm.25.29v0a1.72,1.72,0,0,1,0-.32v0a.36.36,0,0,1,0-.14.63.63,0,0,1,0-.19l-.32.41-.06.05a.42.42,0,0,1,0,.12l.09.23s0,.09.05.12l0,0h0a.84.84,0,0,0,.14.06,1.08,1.08,0,0,1,0-.19A.34.34,0,0,0,397.72,322.11Zm0,0v0a1.72,1.72,0,0,1,0-.32v0a.36.36,0,0,1,0-.14.63.63,0,0,1,0-.19l-.32.41-.06.05a.42.42,0,0,1,0,.12l.09.23s0,.09.05.12l0,0h0a.84.84,0,0,0,.14.06,1.08,1.08,0,0,1,0-.19A.34.34,0,0,0,397.72,322.11Zm0,0v0a1.72,1.72,0,0,1,0-.32v0a.36.36,0,0,1,0-.14.63.63,0,0,1,0-.19l-.32.41-.06.05a.42.42,0,0,1,0,.12l.09.23s0,.09.05.12l0,0h0a.84.84,0,0,0,.14.06,1.08,1.08,0,0,1,0-.19A.34.34,0,0,0,397.72,322.11Zm0,0v0a1.72,1.72,0,0,1,0-.32v0a.36.36,0,0,1,0-.14.63.63,0,0,1,0-.19l-.32.41-.06.05a.42.42,0,0,1,0,.12l.09.23a.22.22,0,0,0,0,.09l.06,0,0,0h0a.84.84,0,0,0,.14.06,1.08,1.08,0,0,1,0-.19A.34.34,0,0,0,397.72,322.11Zm0,0v0a1.72,1.72,0,0,1,0-.32v0a.36.36,0,0,1,0-.14.63.63,0,0,1,0-.19l-.32.41-.06.05a.42.42,0,0,1,0,.12l.09.23a.22.22,0,0,0,0,.09l.06,0,0,0h0a.84.84,0,0,0,.14.06,1.08,1.08,0,0,1,0-.19A.34.34,0,0,0,397.72,322.11Zm0,0v0a1.72,1.72,0,0,1,0-.32v0a.36.36,0,0,1,0-.14.63.63,0,0,1,0-.19l-.32.41-.06.05a.42.42,0,0,1,0,.12l.09.23a.22.22,0,0,0,0,.09l.06,0,0,0h0a.84.84,0,0,0,.14.06,1.08,1.08,0,0,1,0-.19A.34.34,0,0,0,397.72,322.11Zm0,0v0a1.72,1.72,0,0,1,0-.32v0a.36.36,0,0,1,0-.14.63.63,0,0,1,0-.19l-.32.41-.06.05a.42.42,0,0,1,0,.12l.09.23a.22.22,0,0,0,0,.09l.06,0,0,0h0a.84.84,0,0,0,.14.06,1.08,1.08,0,0,1,0-.19A.34.34,0,0,0,397.72,322.11Zm0,0v0a1.72,1.72,0,0,1,0-.32v0a.36.36,0,0,1,0-.14.63.63,0,0,1,0-.19l-.32.41-.06.05a.42.42,0,0,1,0,.12l.09.23a.22.22,0,0,0,0,.09l.06,0,0,0h0a.84.84,0,0,0,.14.06,1.08,1.08,0,0,1,0-.19A.34.34,0,0,0,397.72,322.11Zm0,0v0a1.72,1.72,0,0,1,0-.32v0a.36.36,0,0,1,0-.14.63.63,0,0,1,0-.19l-.32.41-.06.05a.42.42,0,0,1,0,.12l.09.23a.22.22,0,0,0,0,.09l.06,0,0,0h0a.84.84,0,0,0,.14.06,1.08,1.08,0,0,1,0-.19A.34.34,0,0,0,397.72,322.11Zm0,0v0a1.72,1.72,0,0,1,0-.32v0a.36.36,0,0,1,0-.14.63.63,0,0,1,0-.19l-.32.41-.06.05a.42.42,0,0,1,0,.12l.09.23a.22.22,0,0,0,0,.09l.06,0,0,0h0a.84.84,0,0,0,.14.06,1.08,1.08,0,0,1,0-.19A.34.34,0,0,0,397.72,322.11Zm0,0v0a1.72,1.72,0,0,1,0-.32v0a.36.36,0,0,1,0-.14.63.63,0,0,1,0-.19l-.32.41-.06.05a.42.42,0,0,1,0,.12l.09.23a.22.22,0,0,0,0,.09l.06,0,0,0h0a.84.84,0,0,0,.14.06,1.08,1.08,0,0,1,0-.19A.34.34,0,0,0,397.72,322.11Zm0,0v0a1.72,1.72,0,0,1,0-.32v0a.36.36,0,0,1,0-.14.63.63,0,0,1,0-.19l-.32.41-.06.05a.42.42,0,0,1,0,.12l.09.23a.22.22,0,0,0,0,.09l.06,0,0,0h0a.84.84,0,0,0,.14.06,1.08,1.08,0,0,1,0-.19A.34.34,0,0,0,397.72,322.11Z"/><path class="cls-1" d="M404.19,321.17v0h0a4,4,0,0,0-.23.34c-.11.14-.2.28-.31.41a1.24,1.24,0,0,1-.17.23c-.06.09-.14.17-.2.27s-.24.29-.36.41a2.83,2.83,0,0,0-.25-.57.39.39,0,0,1-.06-.13,7.22,7.22,0,0,1-.49-1c0-.12-.11-.25-.14-.37a.38.38,0,0,1-.06-.13.75.75,0,0,1-.08-.24h0v0a.38.38,0,0,1,0-.1.2.2,0,0,1,.11-.06,1,1,0,0,1,.53-.15h.14a1.46,1.46,0,0,1,.58.11h0s0,0,0,0a1.47,1.47,0,0,1,.4.24l.19.2C403.92,320.83,404.06,321,404.19,321.17Z"/><path class="cls-1" d="M405.07,322.32a3,3,0,0,1-.42,0l-.09-.06h0c-.05,0-.08-.07-.11-.08s0,0,0,0a2.46,2.46,0,0,0,.22-.34,1,1,0,0,1,.15.18A3,3,0,0,1,405.07,322.32Z"/><path class="cls-1" d="M409.63,329.14c-.29-.2-.56-.39-.83-.6l0,0a39.27,39.27,0,0,1-3.53-3,15.2,15.2,0,0,1-1.12-1.16,4.39,4.39,0,0,1-.48-.49l0,0-.24-.25a11.3,11.3,0,0,0,1-1.19h.32a8.12,8.12,0,0,1,1.06.88h0l0,.06a0,0,0,0,0,0,0c.22.32.43.64.66,1l1.34,2c.45.69.89,1.38,1.36,2.12C409.31,328.62,409.47,328.88,409.63,329.14Z"/><path class="cls-1" d="M420.17,365.06a24,24,0,0,1-1.21,7.26,2.27,2.27,0,0,1-4.28-1.5.21.21,0,0,1,0-.1v0a20.45,20.45,0,0,0,1.19-5.87,44.13,44.13,0,0,0,0-6.4,61.63,61.63,0,0,0-2.27-12.77,48.67,48.67,0,0,0-2.18-6.11c-.43-1-.88-1.94-1.4-2.93l-1.54-2.95c-1.06-2-2.13-3.88-3.25-5.79-.7-1.15-1.41-2.33-2.16-3.44.5.53,1,1.08,1.58,1.6a37.11,37.11,0,0,0,3.64,3.14c.51.38,1,.75,1.52,1.09.41.65.81,1.31,1.2,2l1.69,2.93c.56,1,1.12,2,1.62,3a55.22,55.22,0,0,1,2.59,6.42,66.3,66.3,0,0,1,2.94,13.45A50.84,50.84,0,0,1,420.17,365.06Z"/><path class="cls-1" d="M432.83,318.74a14,14,0,0,0-9.7-4h-.65a21.59,21.59,0,0,0-4.53.49,35.68,35.68,0,0,0-5.3,1.56c-1.15.43-2.29.89-3.42,1.37a0,0,0,0,1,0,0l-2.59,1.1c-.3.13-.62.26-.94.37h0a2.09,2.09,0,0,1-.13.48,9.08,9.08,0,0,1-.64,1.33c-.08.13-.15.24-.23.35a2.46,2.46,0,0,1-.22.34s0,0,0,0,.06.05.11.08h0l.09.06a3,3,0,0,0,.42,0l.45-.05c.81-.13,1.64-.35,2.13-.46,0,0,0,0,0,0,1.5-.37,3-.89,4.44-1.31a37.71,37.71,0,0,1,8.44-1.69c.27,0,.52,0,.78,0a12.27,12.27,0,0,1,7.39,2.19,5,5,0,0,1,2.31,4.1,4.84,4.84,0,0,1-1.46,2.91,9.36,9.36,0,0,1-5.74,2.56,9.65,9.65,0,0,1-1.2.06,17.22,17.22,0,0,1-5.12-.85,32,32,0,0,1-7.67-3.55c-1-.62-2-1.31-3-2-.14-.12-.3-.21-.45-.32s-.38-.34-.62-.56a0,0,0,0,1,0,0l0-.06h0a8.12,8.12,0,0,0-1.06-.88h-.32a11.3,11.3,0,0,1-1,1.19l.24.25,0,0a4.39,4.39,0,0,0,.48.49,15.2,15.2,0,0,0,1.12,1.16,39.27,39.27,0,0,0,3.53,3l0,0c.27.21.54.4.83.6a7,7,0,0,0,.82.57c.46.32.94.63,1.43.91a30.29,30.29,0,0,0,5.27,2.58,21.33,21.33,0,0,0,3.23.88,15.25,15.25,0,0,0,1.63.24,13.83,13.83,0,0,0,1.43.07,13.09,13.09,0,0,0,9.07-3.48,9,9,0,0,0,2.78-4.6A8.67,8.67,0,0,0,432.83,318.74Z"/><path class="cls-1" d="M398,325s0,0,0,.05c-.3.45-.59.92-.89,1.38l-1.49,2.4c-1.09,1.79-2.15,3.61-3.14,5.44s-1.93,3.7-2.73,5.58a53.21,53.21,0,0,0-2.05,5.81A81.77,81.77,0,0,0,385,357.76a49.62,49.62,0,0,0-.48,6,20.4,20.4,0,0,0,.56,5.6,2.55,2.55,0,0,1-1.78,3.15,2.4,2.4,0,0,1-.69.1,2.57,2.57,0,0,1-2.48-1.87,1.25,1.25,0,0,1,0-.19l0,0a26,26,0,0,1-.22-7,54.43,54.43,0,0,1,1-6.53,84.22,84.22,0,0,1,3.7-12.4,57.66,57.66,0,0,1,2.6-5.95c1-1.93,2.11-3.77,3.28-5.56.55-.85,1.11-1.7,1.7-2.53.19-.31.4-.59.61-.88s.49-.71.75-1.06.37-.53.56-.8.29-.4.45-.61c.86-1.21,1.79-2.38,2.65-3.61l0-.05a1.39,1.39,0,0,1,.06.13l.41.84v0l.09.15c0,.09.09.15.12.22S398,325,398,325Z"/><path class="cls-1" d="M399.63,323.33a.86.86,0,0,1-.18.43,6.76,6.76,0,0,0-.44.61c-.09.09-.16.21-.25.32l0,0s-.05-.06-.06-.1a0,0,0,0,1,0,0l-.13-.22a.64.64,0,0,0-.06-.11s0,0,0,0-.1-.22-.16-.35-.27-.56-.42-.91v0a.47.47,0,0,1-.08-.14c-.06-.13-.11-.27-.17-.41v0h0a.28.28,0,0,1,.11-.13.1.1,0,0,1,.07-.05.76.76,0,0,1,.17-.13,1.21,1.21,0,0,1,.48-.11h0a.21.21,0,0,1,.15,0,.94.94,0,0,1,.51.17,1.46,1.46,0,0,1,.19.16l.1.11a.92.92,0,0,1,.14.28A1,1,0,0,1,399.63,323.33Z"/><path class="cls-1" d="M400,322.82s0-.05,0-.07a2.33,2.33,0,0,0-.21-.49,0,0,0,0,1,0,0,1.49,1.49,0,0,0-.3-.32l-.11-.1a1.7,1.7,0,0,0-.64-.23h0a.71.71,0,0,0-.21,0h-.06a1.46,1.46,0,0,0-.22,0,2.33,2.33,0,0,0-.47.14v0l-.08.05a.45.45,0,0,0-.13.1.22.22,0,0,0-.09.08l.09.23a.22.22,0,0,0,0,.09l.06,0s0,0,0,.05.11.28.17.41c0,0,.05-.08.08-.11a.58.58,0,0,1,.23-.21.43.43,0,0,1,.22-.09.65.65,0,0,1,.19,0,.8.8,0,0,1,.43.13.5.5,0,0,1,.2.21.66.66,0,0,1,.13.51.57.57,0,0,1-.12.35l0,0h0c-.12.16-.25.32-.36.5a3.16,3.16,0,0,0-.2.27l.13.22a0,0,0,0,0,0,0s.05.07.06.1a1.74,1.74,0,0,0,.28.32l.09-.14a3.85,3.85,0,0,1,.26-.34c.11-.16.22-.32.35-.48a.34.34,0,0,1,.08-.09A1.59,1.59,0,0,0,400,322.82Z"/><path class="cls-1" d="M402.25,323.57a.72.72,0,0,1,0,.25.63.63,0,0,1,0,.31h0l-.13.12-.46.4a2.36,2.36,0,0,1-1.44.49,2.4,2.4,0,0,1-1.06-.25l-.34-.21a.19.19,0,0,0-.08-.07h0a0,0,0,0,1,0,0l-.13-.22a.64.64,0,0,0-.06-.11s0,0,0,0-.1-.22-.16-.35-.27-.56-.42-.91v0a1,1,0,0,1,0-.25,1.58,1.58,0,0,1,0-.38.73.73,0,0,1,.08-.25,1.33,1.33,0,0,1,.23-.46.55.55,0,0,1,.14-.21,2.28,2.28,0,0,1,.38-.38s0,0,0-.05a1.49,1.49,0,0,0,.32-.29,2.62,2.62,0,0,0,.26-.24l0,0a8.48,8.48,0,0,0,.89-1,3.32,3.32,0,0,0,.33-.5,2.26,2.26,0,0,0,.09.58v0h0a.58.58,0,0,0,0,.19,6,6,0,0,0,.26.85,3.09,3.09,0,0,0,.14.4.42.42,0,0,1,.06.15c.07.17.15.35.23.51a11.39,11.39,0,0,0,.56,1.12,1.57,1.57,0,0,1,.12.3,1.55,1.55,0,0,1,.12.47A.41.41,0,0,1,402.25,323.57Z"/><path class="cls-1" d="M404.94,319.09a2.08,2.08,0,0,1,0,.43,1.54,1.54,0,0,1-.1.35.69.69,0,0,1-.05.13l-.12.31c-.08.14-.15.3-.23.44a.05.05,0,0,1,0,.05v0l-.19.35v0h0a4,4,0,0,0-.23.34c-.11.14-.2.28-.31.41a1.24,1.24,0,0,1-.17.23c-.06.09-.14.17-.2.27s-.24.29-.36.41a2.83,2.83,0,0,0-.25-.57.39.39,0,0,1-.06-.13,7.22,7.22,0,0,1-.49-1c0-.12-.11-.25-.14-.37a.38.38,0,0,1-.06-.13.75.75,0,0,1-.08-.24h0v0a.38.38,0,0,1,0-.1,2.22,2.22,0,0,1-.14-.38c0-.12-.09-.24-.12-.35a5.82,5.82,0,0,1-.19-1.16.47.47,0,0,0,0-.16l.13-.19a2,2,0,0,1,1.3-.8,1.14,1.14,0,0,1,.27,0,2,2,0,0,1,.67.13,1.88,1.88,0,0,1,.67.43A2,2,0,0,1,404.94,319.09Z"/><path class="cls-1" d="M402.12,323.68l-.28.26a6.05,6.05,0,0,1-.48.41,2,2,0,0,1-1.2.4,1.71,1.71,0,0,1-.8-.19,1.48,1.48,0,0,1-.35-.19.2.2,0,0,0-.09-.06c-.06-.07-.14-.13-.2-.21a.18.18,0,0,1-.05-.07h0a1.72,1.72,0,0,1-.22-.37,1.9,1.9,0,0,1-.18-1,.92.92,0,0,1,.05-.28,1.3,1.3,0,0,1,.16-.44.33.33,0,0,1,.1-.14v0a.56.56,0,0,1,.14-.2h0a1.38,1.38,0,0,1,.25-.28.94.94,0,0,0,.16-.14l.31-.26.09-.09.18-.18a7.15,7.15,0,0,0,.7-.8,2.55,2.55,0,0,0,.29-.38v0a2.26,2.26,0,0,1-.09-.58,1.41,1.41,0,0,1-.05-.4,1,1,0,0,0-.05-.3.26.26,0,0,0,0,.08,3.31,3.31,0,0,1-.34.64,6.59,6.59,0,0,1-1,1.18l-.13.13a2.65,2.65,0,0,1-.3.29c-.1.1-.18.16-.26.23l-.06.06a.91.91,0,0,0-.27.25,1.94,1.94,0,0,0-.4.58.51.51,0,0,0-.1.21.53.53,0,0,0-.06.14,1.54,1.54,0,0,0-.07.27.22.22,0,0,0,0,.09l.06,0s0,0,0,.05.11.28.17.41a.47.47,0,0,0,.08.14v0c.15.35.29.66.42.91s.13.26.16.35,0,0,0,0a.64.64,0,0,1,.06.11l.13.22a0,0,0,0,0,0,0s.05.07.06.1a1.74,1.74,0,0,0,.28.32,1.78,1.78,0,0,0,.84.48,1.56,1.56,0,0,0,.31,0,2.6,2.6,0,0,0,1.21-.29,1.65,1.65,0,0,0,.74-.91.56.56,0,0,0,.08-.2h0a.63.63,0,0,0,0-.31.72.72,0,0,0,0-.25Z"/><path class="cls-1" d="M402.25,323.57a.72.72,0,0,1,0,.25.63.63,0,0,1,0,.31h0a.56.56,0,0,1-.08.2,1.65,1.65,0,0,1-.74.91s-.05.05-.08.06a1.9,1.9,0,0,1-1,.28,1.59,1.59,0,0,1-.48-.07A1.78,1.78,0,0,1,399,325a1.74,1.74,0,0,1-.28-.32s-.05-.06-.06-.1a0,0,0,0,1,0,0l-.13-.22a.64.64,0,0,0-.06-.11s0,0,0,0-.1-.22-.16-.35-.27-.56-.42-.91v0a.47.47,0,0,1-.08-.14c-.06-.13-.11-.27-.17-.41s0,0,0-.05l-.06,0a.22.22,0,0,1,0-.09l-.09-.23a.42.42,0,0,0,0-.12.77.77,0,0,0-.07-.16,14.71,14.71,0,0,1-.49-1.82,4.37,4.37,0,0,0-.09-.5c0-.16,0-.3,0-.46s0-.24,0-.37a1.23,1.23,0,0,1,0-.27,1.9,1.9,0,0,1,.86-1.39,1.81,1.81,0,0,1,1-.31h.11a1.78,1.78,0,0,1,.87.22,1.9,1.9,0,0,1,1,1.36,1,1,0,0,1,.05.3,1.41,1.41,0,0,0,.05.4,2.26,2.26,0,0,0,.09.58v0h0a.58.58,0,0,0,0,.19,6,6,0,0,0,.26.85,3.09,3.09,0,0,0,.14.4s0,0,0,.08a.36.36,0,0,1,0,.07c.07.17.15.35.23.51a11.39,11.39,0,0,0,.56,1.12,1.57,1.57,0,0,1,.12.3,1.55,1.55,0,0,1,.12.47A.41.41,0,0,1,402.25,323.57Z"/><path class="cls-1" d="M401.82,320.42v0h0Z"/><path class="cls-1" d="M462.81,261.15a2.76,2.76,0,0,1-1,.56l-.58.18a8.34,8.34,0,0,1-4.29.05,10.84,10.84,0,0,1-3.4-1.52,10.34,10.34,0,0,1-2.61-2.45,7.41,7.41,0,0,1-1.46-3.2A.67.67,0,0,1,450,254a.64.64,0,0,1,.68.33l0,0a6.8,6.8,0,0,0,4.24,3.12,7.38,7.38,0,0,0,2.48.25,3.2,3.2,0,0,0,1.81-.65,2.7,2.7,0,1,1,3.58,4Z"/><path class="cls-1" d="M487.44,336.57a.66.66,0,0,1-.45-.18.62.62,0,0,1,0-.89l.07-.07a.65.65,0,1,1,.92.93A.74.74,0,0,1,487.44,336.57Z"/><path class="cls-1" d="M422.24,299.57a20.74,20.74,0,0,0-4-1.39c-.26.36-.51.73-.77,1.1-.08.11-.14.21-.21.32a26.29,26.29,0,0,1,4.53,1.06h0a.58.58,0,0,0,.4-1.09Zm0,0a20.74,20.74,0,0,0-4-1.39c-.26.36-.51.73-.77,1.1-.08.11-.14.21-.21.32a26.29,26.29,0,0,1,4.53,1.06h0a.58.58,0,0,0,.4-1.09Zm-1.83,4.29h0a37.09,37.09,0,0,1-5.88-.1l-1,1.63c.23.05.45.07.66.1a26.92,26.92,0,0,0,6.42-.34.63.63,0,0,0,.54-.67A.65.65,0,0,0,420.41,303.86Zm1.83-4.29a20.74,20.74,0,0,0-4-1.39c-.26.36-.51.73-.77,1.1-.08.11-.14.21-.21.32a26.29,26.29,0,0,1,4.53,1.06h0a.58.58,0,0,0,.4-1.09Zm-1.83,4.29h0a37.09,37.09,0,0,1-5.88-.1l-1,1.63c.23.05.45.07.66.1a26.92,26.92,0,0,0,6.42-.34.63.63,0,0,0,.54-.67A.65.65,0,0,0,420.41,303.86Zm1.83-4.29a20.74,20.74,0,0,0-4-1.39c-.26.36-.51.73-.77,1.1-.08.11-.14.21-.21.32a26.29,26.29,0,0,1,4.53,1.06h0a.58.58,0,0,0,.4-1.09Zm-1.83,4.29h0a37.09,37.09,0,0,1-5.88-.1l-1,1.63c.23.05.45.07.66.1a26.92,26.92,0,0,0,6.42-.34.63.63,0,0,0,.54-.67A.65.65,0,0,0,420.41,303.86Zm1.83-4.29a20.74,20.74,0,0,0-4-1.39c-.26.36-.51.73-.77,1.1-.08.11-.14.21-.21.32a26.29,26.29,0,0,1,4.53,1.06h0a.58.58,0,0,0,.4-1.09Zm-1.83,4.29h0a37.09,37.09,0,0,1-5.88-.1l-1,1.63c.23.05.45.07.66.1a26.92,26.92,0,0,0,6.42-.34.63.63,0,0,0,.54-.67A.65.65,0,0,0,420.41,303.86Zm1.83-4.29a20.74,20.74,0,0,0-4-1.39c-.26.36-.51.73-.77,1.1-.08.11-.14.21-.21.32a26.29,26.29,0,0,1,4.53,1.06h0a.58.58,0,0,0,.4-1.09Zm-1.83,4.29h0a37.09,37.09,0,0,1-5.88-.1l-1,1.63c.23.05.45.07.66.1a26.92,26.92,0,0,0,6.42-.34.63.63,0,0,0,.54-.67A.65.65,0,0,0,420.41,303.86Zm1.83-4.29a20.74,20.74,0,0,0-4-1.39c-.26.36-.51.73-.77,1.1-.08.11-.14.21-.21.32a26.29,26.29,0,0,1,4.53,1.06h0a.58.58,0,0,0,.4-1.09Zm-1.83,4.29h0a37.09,37.09,0,0,1-5.88-.1l-1,1.63c.23.05.45.07.66.1a26.92,26.92,0,0,0,6.42-.34.63.63,0,0,0,.54-.67A.65.65,0,0,0,420.41,303.86Zm1.83-4.29a20.74,20.74,0,0,0-4-1.39c-.26.36-.51.73-.77,1.1-.08.11-.14.21-.21.32a26.29,26.29,0,0,1,4.53,1.06h0a.58.58,0,0,0,.4-1.09Zm-1.83,4.29h0a37.09,37.09,0,0,1-5.88-.1l-1,1.63c.23.05.45.07.66.1a26.92,26.92,0,0,0,6.42-.34.63.63,0,0,0,.54-.67A.65.65,0,0,0,420.41,303.86Zm1.83-4.29a20.74,20.74,0,0,0-4-1.39c-.26.36-.51.73-.77,1.1-.08.11-.14.21-.21.32a26.29,26.29,0,0,1,4.53,1.06h0a.58.58,0,0,0,.4-1.09Zm-1.83,4.29h0a37.09,37.09,0,0,1-5.88-.1l-1,1.63c.23.05.45.07.66.1a26.92,26.92,0,0,0,6.42-.34.63.63,0,0,0,.54-.67A.65.65,0,0,0,420.41,303.86Zm1.83-4.29a20.74,20.74,0,0,0-4-1.39c-.26.36-.51.73-.77,1.1-.08.11-.14.21-.21.32a26.29,26.29,0,0,1,4.53,1.06h0a.58.58,0,0,0,.4-1.09Zm-1.83,4.29h0a37.09,37.09,0,0,1-5.88-.1l-1,1.63c.23.05.45.07.66.1a26.92,26.92,0,0,0,6.42-.34.63.63,0,0,0,.54-.67A.65.65,0,0,0,420.41,303.86Zm1.83-4.29a20.74,20.74,0,0,0-4-1.39c-.26.36-.51.73-.77,1.1-.08.11-.14.21-.21.32a26.29,26.29,0,0,1,4.53,1.06h0a.58.58,0,0,0,.4-1.09Zm-1.83,4.29h0a37.09,37.09,0,0,1-5.88-.1l-1,1.63c.23.05.45.07.66.1a26.92,26.92,0,0,0,6.42-.34.63.63,0,0,0,.54-.67A.65.65,0,0,0,420.41,303.86Zm1.83-4.29a20.74,20.74,0,0,0-4-1.39c-.26.36-.51.73-.77,1.1-.08.11-.14.21-.21.32a26.29,26.29,0,0,1,4.53,1.06h0a.58.58,0,0,0,.4-1.09Zm-1.83,4.29h0a37.09,37.09,0,0,1-5.88-.1l-1,1.63c.23.05.45.07.66.1a26.92,26.92,0,0,0,6.42-.34.63.63,0,0,0,.54-.67A.65.65,0,0,0,420.41,303.86Zm1.83-4.29a20.74,20.74,0,0,0-4-1.39c-.26.36-.51.73-.77,1.1-.08.11-.14.21-.21.32a26.29,26.29,0,0,1,4.53,1.06h0a.58.58,0,0,0,.4-1.09Zm-1.83,4.29h0a37.09,37.09,0,0,1-5.88-.1l-1,1.63c.23.05.45.07.66.1a26.92,26.92,0,0,0,6.42-.34.63.63,0,0,0,.54-.67A.65.65,0,0,0,420.41,303.86Zm1.83-4.29a20.74,20.74,0,0,0-4-1.39c-.26.36-.51.73-.77,1.1-.08.11-.14.21-.21.32a26.29,26.29,0,0,1,4.53,1.06h0a.58.58,0,0,0,.4-1.09Zm-1.83,4.29h0a37.09,37.09,0,0,1-5.88-.1l-1,1.63c.23.05.45.07.66.1a26.92,26.92,0,0,0,6.42-.34.63.63,0,0,0,.54-.67A.65.65,0,0,0,420.41,303.86Zm1.83-4.29a20.74,20.74,0,0,0-4-1.39c-.26.36-.51.73-.77,1.1-.08.11-.14.21-.21.32a26.29,26.29,0,0,1,4.53,1.06h0a.58.58,0,0,0,.4-1.09Zm-1.83,4.29h0a37.09,37.09,0,0,1-5.88-.1l-1,1.63c.23.05.45.07.66.1a26.92,26.92,0,0,0,6.42-.34.63.63,0,0,0,.54-.67A.65.65,0,0,0,420.41,303.86Zm1.83-4.29a20.74,20.74,0,0,0-4-1.39c-.26.36-.51.73-.77,1.1-.08.11-.14.21-.21.32a26.29,26.29,0,0,1,4.53,1.06h0a.58.58,0,0,0,.4-1.09Zm-1.83,4.29h0a37.09,37.09,0,0,1-5.88-.1l-1,1.63c.23.05.45.07.66.1a26.92,26.92,0,0,0,6.42-.34.63.63,0,0,0,.54-.67A.65.65,0,0,0,420.41,303.86Zm1.83-4.29a20.74,20.74,0,0,0-4-1.39c-.26.36-.51.73-.77,1.1-.08.11-.14.21-.21.32a26.29,26.29,0,0,1,4.53,1.06h0a.58.58,0,0,0,.4-1.09Zm-1.83,4.29h0a37.09,37.09,0,0,1-5.88-.1l-1,1.63c.23.05.45.07.66.1a26.92,26.92,0,0,0,6.42-.34.63.63,0,0,0,.54-.67A.65.65,0,0,0,420.41,303.86Zm1.83-4.29a20.74,20.74,0,0,0-4-1.39c-.26.36-.51.73-.77,1.1-.08.11-.14.21-.21.32a26.29,26.29,0,0,1,4.53,1.06h0a.58.58,0,0,0,.4-1.09Zm-1.83,4.29h0a37.09,37.09,0,0,1-5.88-.1l-1,1.63c.23.05.45.07.66.1a26.92,26.92,0,0,0,6.42-.34.63.63,0,0,0,.54-.67A.65.65,0,0,0,420.41,303.86Zm1.83-4.29a20.74,20.74,0,0,0-4-1.39c-.26.36-.51.73-.77,1.1-.08.11-.14.21-.21.32a26.29,26.29,0,0,1,4.53,1.06h0a.58.58,0,0,0,.4-1.09Zm-1.83,4.29h0a37.09,37.09,0,0,1-5.88-.1l-1,1.63c.23.05.45.07.66.1a26.92,26.92,0,0,0,6.42-.34.63.63,0,0,0,.54-.67A.65.65,0,0,0,420.41,303.86Zm1.83-4.29a20.74,20.74,0,0,0-4-1.39c-.26.36-.51.73-.77,1.1-.08.11-.14.21-.21.32a26.29,26.29,0,0,1,4.53,1.06h0a.58.58,0,0,0,.4-1.09Zm-1.83,4.29h0a37.09,37.09,0,0,1-5.88-.1l-1,1.63c.23.05.45.07.66.1a26.92,26.92,0,0,0,6.42-.34.63.63,0,0,0,.54-.67A.65.65,0,0,0,420.41,303.86Zm1.83-4.29a20.74,20.74,0,0,0-4-1.39c-.26.36-.51.73-.77,1.1-.08.11-.14.21-.21.32a26.29,26.29,0,0,1,4.53,1.06h0a.58.58,0,0,0,.4-1.09Zm-1.83,4.29h0a37.09,37.09,0,0,1-5.88-.1l-1,1.63c.23.05.45.07.66.1a26.92,26.92,0,0,0,6.42-.34.63.63,0,0,0,.54-.67A.65.65,0,0,0,420.41,303.86Zm1.83-4.29a20.74,20.74,0,0,0-4-1.39c-.26.36-.51.73-.77,1.1-.08.11-.14.21-.21.32a26.29,26.29,0,0,1,4.53,1.06h0a.58.58,0,0,0,.4-1.09Zm-1.83,4.29h0a37.09,37.09,0,0,1-5.88-.1l-1,1.63c.23.05.45.07.66.1a26.92,26.92,0,0,0,6.42-.34.63.63,0,0,0,.54-.67A.65.65,0,0,0,420.41,303.86Zm1.83-4.29a20.74,20.74,0,0,0-4-1.39c-.26.36-.51.73-.77,1.1-.08.11-.14.21-.21.32a26.29,26.29,0,0,1,4.53,1.06h0a.58.58,0,0,0,.4-1.09Zm-1.83,4.29h0a37.09,37.09,0,0,1-5.88-.1l-1,1.63c.23.05.45.07.66.1a26.92,26.92,0,0,0,6.42-.34.63.63,0,0,0,.54-.67A.65.65,0,0,0,420.41,303.86Zm1.83-4.29a20.74,20.74,0,0,0-4-1.39c-.26.36-.51.73-.77,1.1-.08.11-.14.21-.21.32a26.29,26.29,0,0,1,4.53,1.06h0a.58.58,0,0,0,.4-1.09Zm0,0a20.74,20.74,0,0,0-4-1.39c-.26.36-.51.73-.77,1.1-.08.11-.14.21-.21.32a26.29,26.29,0,0,1,4.53,1.06h0a.58.58,0,0,0,.4-1.09Zm145.13,27c-1-7.29-4.62-13.69-8.81-19.26-.32-.42-.68-.8-1-1.2-1.13-4.26-3.5-8-6-11.54a91.6,91.6,0,0,0-8.94-10.33A180.05,180.05,0,0,0,522,266.45,201.9,201.9,0,0,0,499,251.81c-6.9-3.78-13.87-7.38-21.1-10.5l-1.56-1a15.88,15.88,0,0,0-2.48-1.33,19.72,19.72,0,0,0-5.32-1.35,38.13,38.13,0,0,0-10.64.47A95.38,95.38,0,0,0,438,244.27c-1.6.67-3.18,1.38-4.77,2.12l-2.33,1.12c-.79.4-1.56.75-2.39,1.26a10.21,10.21,0,0,0-3.73,4.17,13.94,13.94,0,0,0-1.28,5.33,24.66,24.66,0,0,0,2.07,10.42,27.66,27.66,0,0,0,2.48,4.69,52.05,52.05,0,0,0,3,4.3,35.82,35.82,0,0,0,7.7,7.39,26.11,26.11,0,0,0,10.11,4.19,28.84,28.84,0,0,0,8.55.25l-.8,1.47-1.11,2.48A33.21,33.21,0,0,0,453.18,304a42.65,42.65,0,0,0,.16,5.31c.11,1.16.29,2.28.48,3.4l-.35-.16a27.51,27.51,0,0,1-3-1.94l-3-2.24-6.05-4.54c-.63-.47-1.25-.93-1.87-1.36-1.09-.8-2.2-1.59-3.33-2.32-.35-.26-.69-.48-1-.71a43.21,43.21,0,0,0-6.79-3.77,14.44,14.44,0,0,0-1.95-.68,7.26,7.26,0,0,0-1.05-.23l-1-.15c-1.06-.14-2.13-.24-3.24-.29-.22,0-.44,0-.67,0a18.61,18.61,0,0,0-2.09.13,9.78,9.78,0,0,0-2,.43,4.53,4.53,0,0,0-2,1.28,2.65,2.65,0,0,0-.63,1.81,7.76,7.76,0,0,0-1.21.27,5.42,5.42,0,0,0-2.95,2.21,2.63,2.63,0,0,0-.11,2.34,4.13,4.13,0,0,0,1.2,1.58,3.56,3.56,0,0,0,.91.59l0,0-.16.15A3.79,3.79,0,0,0,410.4,307a3.07,3.07,0,0,0-.1,1.25,4.08,4.08,0,0,0,.45,1.5,5.36,5.36,0,0,0,1.93,2.1,8.2,8.2,0,0,0,3.48,1.13l.36,0a12.74,12.74,0,0,0,3.73-.27c.61-.13,1.19-.27,1.76-.43l1.6-.5a15.18,15.18,0,0,1,2.9-.57,15.53,15.53,0,0,1,3.54,0,16.24,16.24,0,0,1,3.11,2.43,52.67,52.67,0,0,1,4,4.47c2.49,3.13,4.8,6.44,7.1,9.76s4.58,6.68,7,10a58.87,58.87,0,0,0,3.93,4.83,18.53,18.53,0,0,0,2.4,2.26,6.41,6.41,0,0,0,3.51,1.57,30.1,30.1,0,0,1,.13,4c-.1,5.47-1.89,10.58-4.23,15.61a76.56,76.56,0,0,0-3.09,8,20.51,20.51,0,0,0-.76,9.05,29.82,29.82,0,0,0,2.86,8.52,35.82,35.82,0,0,0,2.21,3.85,31.53,31.53,0,0,0,2.72,3.67l.06.06.13.11a23.13,23.13,0,0,0,4.86,7.46c.42.45,1,.94,1.33,1.29a7,7,0,0,1,.92,1.06,6.7,6.7,0,0,1,1.13,2.46,1.22,1.22,0,0,1,0,.45c0,.08,0,.21-.06.24s-.08.1-.13.18-.27.11-.4.19a7.81,7.81,0,0,1-2.91,0,60.37,60.37,0,0,0-14.48-.8,21.75,21.75,0,0,0-7.28,1.64,6.24,6.24,0,0,0-3.19,2.79,3.64,3.64,0,0,0-.2,2.43,3.76,3.76,0,0,0,.43,1.09l-.14.14a5.05,5.05,0,0,0-1.3,3,7.56,7.56,0,0,0,2.29,5.64,6.55,6.55,0,0,0,2.75,1.64,10,10,0,0,0,2.91.45,25.4,25.4,0,0,0,5.38-.62c3.44-.67,6.73-1.6,10.09-2.07a43,43,0,0,1,5-.49c1.69,0,3.4,0,5.12.09,3.44.15,6.88.4,10.37.47s7,.14,10.71-.84a7.78,7.78,0,0,0,3-1.45,5,5,0,0,0,.74-.83,3.25,3.25,0,0,0,.28-.52l.16-.36a7.37,7.37,0,0,0,.47-1.55,5.39,5.39,0,0,0-.51-3.52,9.48,9.48,0,0,0-1.86-2.34,10,10,0,0,1-2.77-3.79,5.47,5.47,0,0,1-.37-2.1l.17,0,.63.12a65.44,65.44,0,0,0,10.58.81,48.48,48.48,0,0,0,10.72-1.21,33.79,33.79,0,0,0,10.23-4.29,27.46,27.46,0,0,0,4-3.12,11.6,11.6,0,0,0,10.1,3.28,14.43,14.43,0,0,0,11-8.27,15.2,15.2,0,0,0,1.05-3.4,14.68,14.68,0,0,0,.16-3.5,13.35,13.35,0,0,0-2.22-6.53,13.06,13.06,0,0,0-8.4-5.69,65.49,65.49,0,0,0,.71-11.83,90,90,0,0,0-3.36-20.94,134.55,134.55,0,0,0-7.09-19.75,176.53,176.53,0,0,0-9.57-18.54,144.71,144.71,0,0,0-12.14-16.93c-4.37-5.38-9.13-10.4-13.64-15.58l-1.66-2-.83-1-.42-.5s.06,0,.08.05l1,.83,1.95,1.7q3.9,3.38,7.6,7A177.59,177.59,0,0,1,530.46,313a102.27,102.27,0,0,1,9.39,17.86l.87,2.35.22.59.29.75A14.21,14.21,0,0,0,542,336a16,16,0,0,0,3.93,4.51,19.4,19.4,0,0,0,5.08,2.94,15.66,15.66,0,0,0,5.9,1.15,10.15,10.15,0,0,0,6-1.93,10.9,10.9,0,0,0,3.6-5,20.82,20.82,0,0,0,1.07-5.57A28.15,28.15,0,0,0,567.37,326.54Zm-69.66-72.41a256,256,0,0,1,22.65,14.51,213.7,213.7,0,0,1,20.72,17.12,103.37,103.37,0,0,1,9.13,9.83,42.11,42.11,0,0,1,5.15,7.82c-8.05-9.3-17.75-16.85-27.48-24.11-5.61-4-11.13-8.1-16.59-12.31l-8.11-6.37-8.1-6.4c-2.46-2-5-3.91-7.47-5.82C491,250.26,494.36,252.18,497.71,254.13Zm-37.26,88.73a3.31,3.31,0,0,1-.89-.52,16.49,16.49,0,0,1-2.09-1.81c-1.38-1.36-2.67-2.87-3.94-4.4-2.52-3.11-4.94-6.35-7.41-9.57s-4.94-6.45-7.63-9.54a54.4,54.4,0,0,0-4.32-4.41c-.19-.18-.4-.34-.59-.5a22.54,22.54,0,0,1,9.17,6.26c1.39,1.52,2.66,3.41,4.06,5.15s2.74,3.54,4.2,5.25a70.31,70.31,0,0,0,8,8.37c.12.45.25.91.4,1.34.38,1.33.72,2.67,1,4,0,.11,0,.22.06.33a.22.22,0,0,1,0,.08A.1.1,0,0,1,460.45,342.86Zm78.6,45.88a48.37,48.37,0,0,0,2.18-7.91,11.23,11.23,0,0,1,2.53,1.43,11.73,11.73,0,0,1,3.53,4.16,11.15,11.15,0,0,1,0,10.14,10.66,10.66,0,0,1-8,5.73,14.86,14.86,0,0,1-7.61-.88c.81-.9,1.6-1.84,2.32-2.82A46.81,46.81,0,0,0,539.05,388.74Zm25-57a16.66,16.66,0,0,1-1.06,4.5,5.91,5.91,0,0,1-6.08,4.11,13,13,0,0,1-7.76-3.68,15.32,15.32,0,0,1-2.74-3.29,7.62,7.62,0,0,1-.46-.9l-.47-1-1-2.46a101.62,101.62,0,0,0-10.67-18.21c-8.29-11.31-18.19-21.14-28.67-30.13-2-1.66-3.92-3.3-5.92-4.88l-.07-.05-2.05-1.63-1.18-.89,0,0-.86-.66-1-.78c-.21-.11-.24-.26-.68-.43a.84.84,0,0,0-1,.59.81.81,0,0,0,.13.7l.21.27.38.53.8,1,1.63,2c4.47,5.28,8.88,10.55,13,16a139.68,139.68,0,0,1,11.2,17.14,167.6,167.6,0,0,1,8.5,18.59c4.85,12.67,8.48,26,8.54,39.28a53.41,53.41,0,0,1-3.15,19.21,40.82,40.82,0,0,1-4.43,8.47,29.27,29.27,0,0,1-6.53,6.52,40.46,40.46,0,0,1-18,6.87,49.78,49.78,0,0,1-10.07.4l-.62,0-.32,0h-.16l-.36,0a1.77,1.77,0,0,0-1.32.82,1.46,1.46,0,0,0-.24.77,1.94,1.94,0,0,0,0,.41,19.1,19.1,0,0,0,.41,2.8,14.18,14.18,0,0,0,2.6,4.95,9.25,9.25,0,0,1,1.09,1.9,2.47,2.47,0,0,1,0,1.52,7.63,7.63,0,0,1-.32.9l-.11.22s0,0,0,.05l-.12.13a4.79,4.79,0,0,1-1.65.78,28.32,28.32,0,0,1-4.74.85c-1.64.19-3.34.32-5,.4-3.4.16-6.85.24-10.3.27a72.09,72.09,0,0,0-10.46.58c-3.46.49-6.89,1.15-10.23,1.68a32.05,32.05,0,0,1-4.9.38,5.31,5.31,0,0,1-3.8-1.33,5.2,5.2,0,0,1-1.7-3.58,3.52,3.52,0,0,1,2.27-2.87,13.11,13.11,0,0,1,4.61-1.1,35,35,0,0,1,5,0h0a.65.65,0,0,0,.67-.54.64.64,0,0,0-.51-.76c-3.44-.62-7.07-1-10.75.34a6.13,6.13,0,0,0-.64.3,1.55,1.55,0,0,1,0-1.33A4.15,4.15,0,0,1,445,415.6a20.16,20.16,0,0,1,6.56-1.33,55.18,55.18,0,0,1,13.82,1.3,10.76,10.76,0,0,0,4.16.14,5.31,5.31,0,0,0,1.23-.48,3.48,3.48,0,0,0,1.14-1,3.44,3.44,0,0,0,.64-1.39,5.54,5.54,0,0,0,.1-1.33,11.19,11.19,0,0,0-2.53-5.92c-.45-.53-.75-.85-1.09-1.31a22.06,22.06,0,0,1-4.56-11.72,19.78,19.78,0,0,1,3-12.08,20,20,0,0,1,9.76-8,20.46,20.46,0,0,1,12.88-.56,21.26,21.26,0,0,1,11,7.46.66.66,0,0,0,1.09-.74A22.33,22.33,0,0,0,491,369.19a23.18,23.18,0,0,0-7.46-1.48,23.87,23.87,0,0,0-7.62,1.09,23.5,23.5,0,0,0-12.3,9.14,24.07,24.07,0,0,0-4,11.32,25.93,25.93,0,0,1-2.67-6.67c-1.12-4.85.83-10.08,2.74-15.28s3.71-10.94,3.45-16.7a37.46,37.46,0,0,0-.41-4.4c-.18-1-.37-2-.63-3v0c-.08-.34-.16-.67-.25-1-.32-1.22-.71-2.42-1.12-3.58.86.67,1.84,1.36,2.72,1.93a15.35,15.35,0,0,0,1.58,1,8.84,8.84,0,0,0,.93.44l.8.33a22.8,22.8,0,0,0,7.06,1.75,17.62,17.62,0,0,0,13.61-5.2,17.72,17.72,0,0,0,4-6.17,16.37,16.37,0,0,0,1-7.11,1.13,1.13,0,0,0-1-1,1.12,1.12,0,0,0-1.23,1A15.92,15.92,0,0,1,484.76,336a14.75,14.75,0,0,1-10.67,3.65,20.81,20.81,0,0,1-5.79-1.41l-.75-.29a2.73,2.73,0,0,1-.59-.26c-.4-.19-.82-.43-1.27-.7-1-.57-1.79-1.09-2.67-1.71a66.34,66.34,0,0,1-9.55-8.66c-1.49-1.6-2.88-3.29-4.27-5s-2.71-3.42-4.28-5.2a27.5,27.5,0,0,0-11.53-7.9,16.65,16.65,0,0,0-3-.69,17.17,17.17,0,0,0-4.24-.16,16.14,16.14,0,0,0-2.87.53c-.24.06-.49.13-.73.21l-1.57.52c-.5.15-1,.29-1.47.4a9.19,9.19,0,0,1-5.41,0,2.7,2.7,0,0,1-1.6-1.46,1.94,1.94,0,0,1-.16-.65,2.74,2.74,0,0,1,.46-1.71l0,0a1.21,1.21,0,0,0,.05-.14c.2,0,.4.08.6.09s.45.07.66.1a26.92,26.92,0,0,0,6.42-.34.63.63,0,0,0,.54-.67.65.65,0,0,0-.69-.62h0a37.09,37.09,0,0,1-5.88-.1l-.19,0a10.35,10.35,0,0,1-1.37-.28,1.37,1.37,0,0,1-.35-.15,2,2,0,0,1-.68-.4c-.62-.49-.88-1.37-.67-1.57a4.48,4.48,0,0,1,3.7-1.8,4.65,4.65,0,0,1,1,0c.45,0,.88,0,1.33.09h0a26.29,26.29,0,0,1,4.53,1.06h0a.58.58,0,0,0,.4-1.09,20.74,20.74,0,0,0-4-1.39,13.6,13.6,0,0,0-2.21-.37h0c-.24,0-.47,0-.71,0a1.8,1.8,0,0,1,1.36-.92,2.84,2.84,0,0,1,.31-.06,10.12,10.12,0,0,1,2.37-.14l1.05,0c1.2.08,2.4.22,3.62.42l.91.14a5.89,5.89,0,0,1,.78.19,11,11,0,0,1,1.6.59,48.34,48.34,0,0,1,6.33,3.6c1.11.72,2.23,1.49,3.36,2.28l2.84,2,6.13,4.4,3.09,2.21c.51.35,1.1.72,1.65,1.07s1.16.64,1.76.94a17.66,17.66,0,0,0,3.84,1.27,11.89,11.89,0,0,0,4.08,0,12.78,12.78,0,0,0,7-3.64.55.55,0,0,0-.7-.84,13,13,0,0,1-6.51,2.68,11.16,11.16,0,0,1-4.84-.72,37.23,37.23,0,0,1,.05-9.14,29.64,29.64,0,0,1,3.09-9.36l1.22-2.13,1.37-2.05,1.52-1.93.1-.13a1.88,1.88,0,0,0,.25-.37,2.72,2.72,0,0,0,.28-1.93,2.56,2.56,0,0,0-1.22-1.62,2.47,2.47,0,0,0-1.06-.32,2.94,2.94,0,0,0-.84.08l-1.17.32a28,28,0,0,1-9.54.85c-6.27-.48-12.19-3.95-16.56-8.9a6.26,6.26,0,0,0,1.55-.61,7.9,7.9,0,0,0,1.91-1.52,15,15,0,0,0,2.45-3.69.66.66,0,0,0-.18-.8.67.67,0,0,0-.93.09v0a13.36,13.36,0,0,1-2.83,2.66,3.87,3.87,0,0,1-2.9.77,1.7,1.7,0,0,0-.51-.07,1.45,1.45,0,0,0-.89.34,26.78,26.78,0,0,1-3.54-5.78,22,22,0,0,1-1.81-7.5,5.74,5.74,0,0,0,2-.82,6.25,6.25,0,0,0,1.95-1.92.54.54,0,0,1,.05-.11.71.71,0,0,0-.4-.91.69.69,0,0,0-.91.4,5.13,5.13,0,0,1-1.32,1.68,5,5,0,0,1-1.36.84,12.09,12.09,0,0,1,0-1.35,11.82,11.82,0,0,1,1.23-4.63,8.59,8.59,0,0,1,3.12-3.37c.66-.39,1.46-.76,2.22-1.13l2.33-1.07c1.56-.68,3.13-1.36,4.71-2a93.18,93.18,0,0,1,19.54-5.74c6.64-1,13.62-1.07,18.74,3.42,5.6,3.94,10.91,8.29,16.4,12.47,10.8,8.54,22.19,16.45,33.42,24.37q4.18,3,8.21,6.22c2.67,2.14,5.28,4.38,7.81,6.69a92.82,92.82,0,0,1,13.68,15.12c3.9,5.48,6.92,11.71,7.52,18.19A24.16,24.16,0,0,1,564.05,331.74ZM493.29,272s0,.05,0,.06-.1-.06-.08-.09S493.25,272,493.29,272Zm-71.05,27.57a20.74,20.74,0,0,0-4-1.39c-.26.36-.51.73-.77,1.1-.08.11-.14.21-.21.32a26.29,26.29,0,0,1,4.53,1.06h0a.58.58,0,0,0,.4-1.09Zm0,0a20.74,20.74,0,0,0-4-1.39c-.26.36-.51.73-.77,1.1-.08.11-.14.21-.21.32a26.29,26.29,0,0,1,4.53,1.06h0a.58.58,0,0,0,.4-1.09Zm-1.83,4.29h0a37.09,37.09,0,0,1-5.88-.1l-1,1.63c.23.05.45.07.66.1a26.92,26.92,0,0,0,6.42-.34.63.63,0,0,0,.54-.67A.65.65,0,0,0,420.41,303.86Zm1.83-4.29a20.74,20.74,0,0,0-4-1.39c-.26.36-.51.73-.77,1.1-.08.11-.14.21-.21.32a26.29,26.29,0,0,1,4.53,1.06h0a.58.58,0,0,0,.4-1.09Zm-1.83,4.29h0a37.09,37.09,0,0,1-5.88-.1l-1,1.63c.23.05.45.07.66.1a26.92,26.92,0,0,0,6.42-.34.63.63,0,0,0,.54-.67A.65.65,0,0,0,420.41,303.86Zm1.83-4.29a20.74,20.74,0,0,0-4-1.39c-.26.36-.51.73-.77,1.1-.08.11-.14.21-.21.32a26.29,26.29,0,0,1,4.53,1.06h0a.58.58,0,0,0,.4-1.09Zm-1.83,4.29h0a37.09,37.09,0,0,1-5.88-.1l-1,1.63c.23.05.45.07.66.1a26.92,26.92,0,0,0,6.42-.34.63.63,0,0,0,.54-.67A.65.65,0,0,0,420.41,303.86Zm1.83-4.29a20.74,20.74,0,0,0-4-1.39c-.26.36-.51.73-.77,1.1-.08.11-.14.21-.21.32a26.29,26.29,0,0,1,4.53,1.06h0a.58.58,0,0,0,.4-1.09Zm-1.83,4.29h0a37.09,37.09,0,0,1-5.88-.1l-1,1.63c.23.05.45.07.66.1a26.92,26.92,0,0,0,6.42-.34.63.63,0,0,0,.54-.67A.65.65,0,0,0,420.41,303.86Zm1.83-4.29a20.74,20.74,0,0,0-4-1.39c-.26.36-.51.73-.77,1.1-.08.11-.14.21-.21.32a26.29,26.29,0,0,1,4.53,1.06h0a.58.58,0,0,0,.4-1.09Zm-1.83,4.29h0a37.09,37.09,0,0,1-5.88-.1l-1,1.63c.23.05.45.07.66.1a26.92,26.92,0,0,0,6.42-.34.63.63,0,0,0,.54-.67A.65.65,0,0,0,420.41,303.86Zm1.83-4.29a20.74,20.74,0,0,0-4-1.39c-.26.36-.51.73-.77,1.1-.08.11-.14.21-.21.32a26.29,26.29,0,0,1,4.53,1.06h0a.58.58,0,0,0,.4-1.09Zm-1.83,4.29h0a37.09,37.09,0,0,1-5.88-.1l-1,1.63c.23.05.45.07.66.1a26.92,26.92,0,0,0,6.42-.34.63.63,0,0,0,.54-.67A.65.65,0,0,0,420.41,303.86Zm1.83-4.29a20.74,20.74,0,0,0-4-1.39c-.26.36-.51.73-.77,1.1-.08.11-.14.21-.21.32a26.29,26.29,0,0,1,4.53,1.06h0a.58.58,0,0,0,.4-1.09Zm-1.83,4.29h0a37.09,37.09,0,0,1-5.88-.1l-1,1.63c.23.05.45.07.66.1a26.92,26.92,0,0,0,6.42-.34.63.63,0,0,0,.54-.67A.65.65,0,0,0,420.41,303.86Zm1.83-4.29a20.74,20.74,0,0,0-4-1.39c-.26.36-.51.73-.77,1.1-.08.11-.14.21-.21.32a26.29,26.29,0,0,1,4.53,1.06h0a.58.58,0,0,0,.4-1.09Zm-1.83,4.29h0a37.09,37.09,0,0,1-5.88-.1l-1,1.63c.23.05.45.07.66.1a26.92,26.92,0,0,0,6.42-.34.63.63,0,0,0,.54-.67A.65.65,0,0,0,420.41,303.86Zm1.83-4.29a20.74,20.74,0,0,0-4-1.39c-.26.36-.51.73-.77,1.1-.08.11-.14.21-.21.32a26.29,26.29,0,0,1,4.53,1.06h0a.58.58,0,0,0,.4-1.09Zm-1.83,4.29h0a37.09,37.09,0,0,1-5.88-.1l-1,1.63c.23.05.45.07.66.1a26.92,26.92,0,0,0,6.42-.34.63.63,0,0,0,.54-.67A.65.65,0,0,0,420.41,303.86Zm1.83-4.29a20.74,20.74,0,0,0-4-1.39c-.26.36-.51.73-.77,1.1-.08.11-.14.21-.21.32a26.29,26.29,0,0,1,4.53,1.06h0a.58.58,0,0,0,.4-1.09Zm-1.83,4.29h0a37.09,37.09,0,0,1-5.88-.1l-1,1.63c.23.05.45.07.66.1a26.92,26.92,0,0,0,6.42-.34.63.63,0,0,0,.54-.67A.65.65,0,0,0,420.41,303.86Zm1.83-4.29a20.74,20.74,0,0,0-4-1.39c-.26.36-.51.73-.77,1.1-.08.11-.14.21-.21.32a26.29,26.29,0,0,1,4.53,1.06h0a.58.58,0,0,0,.4-1.09Zm-1.83,4.29h0a37.09,37.09,0,0,1-5.88-.1l-1,1.63c.23.05.45.07.66.1a26.92,26.92,0,0,0,6.42-.34.63.63,0,0,0,.54-.67A.65.65,0,0,0,420.41,303.86Zm1.83-4.29a20.74,20.74,0,0,0-4-1.39c-.26.36-.51.73-.77,1.1-.08.11-.14.21-.21.32a26.29,26.29,0,0,1,4.53,1.06h0a.58.58,0,0,0,.4-1.09Zm-1.83,4.29h0a37.09,37.09,0,0,1-5.88-.1l-1,1.63c.23.05.45.07.66.1a26.92,26.92,0,0,0,6.42-.34.63.63,0,0,0,.54-.67A.65.65,0,0,0,420.41,303.86Zm1.83-4.29a20.74,20.74,0,0,0-4-1.39c-.26.36-.51.73-.77,1.1-.08.11-.14.21-.21.32a26.29,26.29,0,0,1,4.53,1.06h0a.58.58,0,0,0,.4-1.09Zm-1.83,4.29h0a37.09,37.09,0,0,1-5.88-.1l-1,1.63c.23.05.45.07.66.1a26.92,26.92,0,0,0,6.42-.34.63.63,0,0,0,.54-.67A.65.65,0,0,0,420.41,303.86Zm1.83-4.29a20.74,20.74,0,0,0-4-1.39c-.26.36-.51.73-.77,1.1-.08.11-.14.21-.21.32a26.29,26.29,0,0,1,4.53,1.06h0a.58.58,0,0,0,.4-1.09Zm-1.83,4.29h0a37.09,37.09,0,0,1-5.88-.1l-1,1.63c.23.05.45.07.66.1a26.92,26.92,0,0,0,6.42-.34.63.63,0,0,0,.54-.67A.65.65,0,0,0,420.41,303.86Zm1.83-4.29a20.74,20.74,0,0,0-4-1.39c-.26.36-.51.73-.77,1.1-.08.11-.14.21-.21.32a26.29,26.29,0,0,1,4.53,1.06h0a.58.58,0,0,0,.4-1.09Zm-1.83,4.29h0a37.09,37.09,0,0,1-5.88-.1l-1,1.63c.23.05.45.07.66.1a26.92,26.92,0,0,0,6.42-.34.63.63,0,0,0,.54-.67A.65.65,0,0,0,420.41,303.86Zm1.83-4.29a20.74,20.74,0,0,0-4-1.39c-.26.36-.51.73-.77,1.1-.08.11-.14.21-.21.32a26.29,26.29,0,0,1,4.53,1.06h0a.58.58,0,0,0,.4-1.09Zm-1.83,4.29h0a37.09,37.09,0,0,1-5.88-.1l-1,1.63c.23.05.45.07.66.1a26.92,26.92,0,0,0,6.42-.34.63.63,0,0,0,.54-.67A.65.65,0,0,0,420.41,303.86Zm1.83-4.29a20.74,20.74,0,0,0-4-1.39c-.26.36-.51.73-.77,1.1-.08.11-.14.21-.21.32a26.29,26.29,0,0,1,4.53,1.06h0a.58.58,0,0,0,.4-1.09Zm-1.83,4.29h0a37.09,37.09,0,0,1-5.88-.1l-1,1.63c.23.05.45.07.66.1a26.92,26.92,0,0,0,6.42-.34.63.63,0,0,0,.54-.67A.65.65,0,0,0,420.41,303.86Zm1.83-4.29a20.74,20.74,0,0,0-4-1.39c-.26.36-.51.73-.77,1.1-.08.11-.14.21-.21.32a26.29,26.29,0,0,1,4.53,1.06h0a.58.58,0,0,0,.4-1.09Zm-1.83,4.29h0a37.09,37.09,0,0,1-5.88-.1l-1,1.63c.23.05.45.07.66.1a26.92,26.92,0,0,0,6.42-.34.63.63,0,0,0,.54-.67A.65.65,0,0,0,420.41,303.86Zm1.83-4.29a20.74,20.74,0,0,0-4-1.39c-.26.36-.51.73-.77,1.1-.08.11-.14.21-.21.32a26.29,26.29,0,0,1,4.53,1.06h0a.58.58,0,0,0,.4-1.09Zm-1.83,4.29h0a37.09,37.09,0,0,1-5.88-.1l-1,1.63c.23.05.45.07.66.1a26.92,26.92,0,0,0,6.42-.34.63.63,0,0,0,.54-.67A.65.65,0,0,0,420.41,303.86Zm1.83-4.29a20.74,20.74,0,0,0-4-1.39c-.26.36-.51.73-.77,1.1-.08.11-.14.21-.21.32a26.29,26.29,0,0,1,4.53,1.06h0a.58.58,0,0,0,.4-1.09Zm-1.83,4.29h0a37.09,37.09,0,0,1-5.88-.1l-1,1.63c.23.05.45.07.66.1a26.92,26.92,0,0,0,6.42-.34.63.63,0,0,0,.54-.67A.65.65,0,0,0,420.41,303.86Zm1.83-4.29a20.74,20.74,0,0,0-4-1.39c-.26.36-.51.73-.77,1.1-.08.11-.14.21-.21.32a26.29,26.29,0,0,1,4.53,1.06h0a.58.58,0,0,0,.4-1.09Zm-1.83,4.29h0a37.09,37.09,0,0,1-5.88-.1l-1,1.63c.23.05.45.07.66.1a26.92,26.92,0,0,0,6.42-.34.63.63,0,0,0,.54-.67A.65.65,0,0,0,420.41,303.86Zm1.83-4.29a20.74,20.74,0,0,0-4-1.39c-.26.36-.51.73-.77,1.1-.08.11-.14.21-.21.32a26.29,26.29,0,0,1,4.53,1.06h0a.58.58,0,0,0,.4-1.09Zm0,0a20.74,20.74,0,0,0-4-1.39c-.26.36-.51.73-.77,1.1-.08.11-.14.21-.21.32a26.29,26.29,0,0,1,4.53,1.06h0a.58.58,0,0,0,.4-1.09Zm-1.83,4.29h0a37.09,37.09,0,0,1-5.88-.1l-1,1.63c.23.05.45.07.66.1a26.92,26.92,0,0,0,6.42-.34.63.63,0,0,0,.54-.67A.65.65,0,0,0,420.41,303.86Zm1.83-4.29a20.74,20.74,0,0,0-4-1.39c-.26.36-.51.73-.77,1.1l-.22.32h0a26.29,26.29,0,0,1,4.53,1.06h0a.58.58,0,0,0,.4-1.09Z"/><path class="cls-1" d="M353,254.77a7.37,7.37,0,0,1-1.45,3.21,10.79,10.79,0,0,1-2.6,2.44,11.29,11.29,0,0,1-3.42,1.52,8.34,8.34,0,0,1-4.29-.05l-.56-.17a2.7,2.7,0,1,1,1.52-5.18,2.66,2.66,0,0,1,1,.57,3.28,3.28,0,0,0,1.81.65,7.15,7.15,0,0,0,2.48-.25,6.79,6.79,0,0,0,4.23-3.13l0,0a.66.66,0,0,1,.89-.27A.68.68,0,0,1,353,254.77Z"/><path class="cls-1" d="M315,336.6a.59.59,0,0,1-.42-.18l-.07-.06a.66.66,0,0,1,.93-.93.7.7,0,0,1,0,1A.66.66,0,0,1,315,336.6Z"/><path class="cls-1" d="M385,299.25c-.25-.35-.49-.72-.75-1.07a19.78,19.78,0,0,0-4,1.39.58.58,0,0,0,.42,1.09h0a26.23,26.23,0,0,1,4.59-1.06C385.13,299.47,385.05,299.36,385,299.25Zm0,0c-.25-.35-.49-.72-.75-1.07a19.78,19.78,0,0,0-4,1.39.58.58,0,0,0,.42,1.09h0a26.23,26.23,0,0,1,4.59-1.06C385.13,299.47,385.05,299.36,385,299.25Zm0,0c-.25-.35-.49-.72-.75-1.07a19.78,19.78,0,0,0-4,1.39.58.58,0,0,0,.42,1.09h0a26.23,26.23,0,0,1,4.59-1.06C385.13,299.47,385.05,299.36,385,299.25Zm0,0c-.25-.35-.49-.72-.75-1.07a19.78,19.78,0,0,0-4,1.39.58.58,0,0,0,.42,1.09h0a26.23,26.23,0,0,1,4.59-1.06C385.13,299.47,385.05,299.36,385,299.25Zm0,0c-.25-.35-.49-.72-.75-1.07a19.78,19.78,0,0,0-4,1.39.58.58,0,0,0,.42,1.09h0a26.23,26.23,0,0,1,4.59-1.06C385.13,299.47,385.05,299.36,385,299.25Zm0,0c-.25-.35-.49-.72-.75-1.07a19.78,19.78,0,0,0-4,1.39.58.58,0,0,0,.42,1.09h0a26.23,26.23,0,0,1,4.59-1.06C385.13,299.47,385.05,299.36,385,299.25Zm0,0c-.25-.35-.49-.72-.75-1.07a19.78,19.78,0,0,0-4,1.39.58.58,0,0,0,.42,1.09h0a26.23,26.23,0,0,1,4.59-1.06C385.13,299.47,385.05,299.36,385,299.25Zm0,0c-.25-.35-.49-.72-.75-1.07a19.78,19.78,0,0,0-4,1.39.58.58,0,0,0,.42,1.09h0a26.23,26.23,0,0,1,4.59-1.06C385.13,299.47,385.05,299.36,385,299.25Zm0,0c-.25-.35-.49-.72-.75-1.07a19.78,19.78,0,0,0-4,1.39.58.58,0,0,0,.42,1.09h0a26.23,26.23,0,0,1,4.59-1.06C385.13,299.47,385.05,299.36,385,299.25Zm0,0c-.25-.35-.49-.72-.75-1.07a19.78,19.78,0,0,0-4,1.39.58.58,0,0,0,.42,1.09h0a26.23,26.23,0,0,1,4.59-1.06C385.13,299.47,385.05,299.36,385,299.25Zm0,0c-.25-.35-.49-.72-.75-1.07a19.78,19.78,0,0,0-4,1.39.58.58,0,0,0,.42,1.09h0a26.23,26.23,0,0,1,4.59-1.06C385.13,299.47,385.05,299.36,385,299.25Zm0,0c-.25-.35-.49-.72-.75-1.07a19.78,19.78,0,0,0-4,1.39.58.58,0,0,0,.42,1.09h0a26.23,26.23,0,0,1,4.59-1.06C385.13,299.47,385.05,299.36,385,299.25Zm0,0c-.25-.35-.49-.72-.75-1.07a19.78,19.78,0,0,0-4,1.39.58.58,0,0,0,.42,1.09h0a26.23,26.23,0,0,1,4.59-1.06C385.13,299.47,385.05,299.36,385,299.25Zm0,0c-.25-.35-.49-.72-.75-1.07a19.78,19.78,0,0,0-4,1.39.58.58,0,0,0,.42,1.09h0a26.23,26.23,0,0,1,4.59-1.06C385.13,299.47,385.05,299.36,385,299.25Zm0,0c-.25-.35-.49-.72-.75-1.07a19.78,19.78,0,0,0-4,1.39.58.58,0,0,0,.42,1.09h0a26.23,26.23,0,0,1,4.59-1.06C385.13,299.47,385.05,299.36,385,299.25Zm0,0c-.25-.35-.49-.72-.75-1.07a19.78,19.78,0,0,0-4,1.39.58.58,0,0,0,.42,1.09h0a26.23,26.23,0,0,1,4.59-1.06C385.13,299.47,385.05,299.36,385,299.25Zm0,0c-.25-.35-.49-.72-.75-1.07a19.78,19.78,0,0,0-4,1.39.58.58,0,0,0,.42,1.09h0a26.23,26.23,0,0,1,4.59-1.06C385.13,299.47,385.05,299.36,385,299.25Zm0,0c-.25-.35-.49-.72-.75-1.07a19.78,19.78,0,0,0-4,1.39.58.58,0,0,0,.42,1.09h0a26.23,26.23,0,0,1,4.59-1.06C385.13,299.47,385.05,299.36,385,299.25Zm0,0c-.25-.35-.49-.72-.75-1.07a19.78,19.78,0,0,0-4,1.39.58.58,0,0,0,.42,1.09h0a26.23,26.23,0,0,1,4.59-1.06C385.13,299.47,385.05,299.36,385,299.25Zm0,0c-.25-.35-.49-.72-.75-1.07a19.78,19.78,0,0,0-4,1.39.58.58,0,0,0,.42,1.09h0a26.23,26.23,0,0,1,4.59-1.06C385.13,299.47,385.05,299.36,385,299.25Zm6.72,5a4.11,4.11,0,0,0,1.19-1.58,2.62,2.62,0,0,0-.1-2.34,5.41,5.41,0,0,0-3-2.21,7.28,7.28,0,0,0-1.21-.27,2.64,2.64,0,0,0-.61-1.81,4.61,4.61,0,0,0-2-1.28,10.93,10.93,0,0,0-2.05-.45h0a17,17,0,0,0-2-.11c-.21,0-.41,0-.61,0-1.11,0-2.2.15-3.29.29l-1,.15a7.7,7.7,0,0,0-1.06.23,15.18,15.18,0,0,0-1.93.68,25.58,25.58,0,0,0-2.63,1.28c-1.45.75-2.81,1.61-4.17,2.49s-2.52,1.68-3.75,2.56v0c-.83.57-1.66,1.18-2.48,1.81l-6,4.54-3,2.24a28.61,28.61,0,0,1-3,1.94l-.35.16c.18-1.12.37-2.24.46-3.4a39.11,39.11,0,0,0,.18-5.31,33,33,0,0,0-2.34-10.49l-1.1-2.48-.78-1.47a28.8,28.8,0,0,0,8.54-.25,26,26,0,0,0,10.1-4.19,35.87,35.87,0,0,0,7.71-7.39,52.05,52.05,0,0,0,3-4.3,28.39,28.39,0,0,0,2.48-4.69A24.51,24.51,0,0,0,379,258.27a14,14,0,0,0-1.3-5.33,10,10,0,0,0-3.73-4.17c-.81-.51-1.58-.86-2.37-1.26l-2.35-1.12c-1.56-.74-3.15-1.45-4.75-2.12a95.75,95.75,0,0,0-19.94-6.21,38.19,38.19,0,0,0-10.64-.47,19.86,19.86,0,0,0-5.34,1.35,18.5,18.5,0,0,0-2.48,1.33l-1.54,1c-7.23,3.12-14.2,6.72-21.1,10.5a201,201,0,0,0-22.94,14.64,180.15,180.15,0,0,0-20.66,17.76,93.68,93.68,0,0,0-8.94,10.33c-2.5,3.51-4.87,7.28-6,11.54-.32.4-.67.78-1,1.2-4.19,5.57-7.82,12-8.83,19.26a28.15,28.15,0,0,0-.19,5.51,20.82,20.82,0,0,0,1.07,5.57,10.76,10.76,0,0,0,3.6,5,10.15,10.15,0,0,0,6.05,1.93,15.61,15.61,0,0,0,5.89-1.15,18.87,18.87,0,0,0,5.07-2.94,15.79,15.79,0,0,0,3.95-4.51,14.13,14.13,0,0,0,.71-1.4l.3-.75.22-.59.87-2.35A104.24,104.24,0,0,1,272,313a179.32,179.32,0,0,1,26.34-31.31q3.72-3.59,7.62-7l1.95-1.7,1-.83a.58.58,0,0,0,.12-.1l0,.05-.42.5-.83,1-1.66,2c-4.53,5.18-9.28,10.2-13.65,15.58a145.81,145.81,0,0,0-12.13,16.93,178.54,178.54,0,0,0-9.58,18.54,139.34,139.34,0,0,0-7.09,19.75,91.09,91.09,0,0,0-3.36,20.94,64.61,64.61,0,0,0,.72,11.83,13,13,0,0,0-8.4,5.69,13.45,13.45,0,0,0-2.22,6.53,14.17,14.17,0,0,0,.14,3.5,16.37,16.37,0,0,0,1.07,3.4,14.41,14.41,0,0,0,11,8.27,11.6,11.6,0,0,0,10.11-3.28,28.49,28.49,0,0,0,4,3.12,33.74,33.74,0,0,0,10.24,4.29,48.35,48.35,0,0,0,10.72,1.21,65,65,0,0,0,10.56-.81l.66-.12.16,0a6.1,6.1,0,0,1-.37,2.1,10,10,0,0,1-2.77,3.79,9.48,9.48,0,0,0-1.86,2.34,5.45,5.45,0,0,0-.51,3.52,7.37,7.37,0,0,0,.47,1.55l.16.36a3.25,3.25,0,0,0,.28.52,5.52,5.52,0,0,0,.74.83,7.78,7.78,0,0,0,3,1.45c3.75,1,7.23.87,10.72.84s6.94-.32,10.38-.47c1.72-.08,3.43-.11,5.11-.09a43,43,0,0,1,5,.49c3.36.47,6.65,1.4,10.1,2.07a25.08,25.08,0,0,0,5.37.62,10.05,10.05,0,0,0,2.91-.45,6.64,6.64,0,0,0,2.76-1.64,7.63,7.63,0,0,0,2.28-5.64,5.12,5.12,0,0,0-1.31-3,.83.83,0,0,0-.13-.14,4.07,4.07,0,0,0,.43-1.09,3.64,3.64,0,0,0-.2-2.43,6.32,6.32,0,0,0-3.19-2.79,21.75,21.75,0,0,0-7.28-1.64,60.45,60.45,0,0,0-14.49.8,7.82,7.82,0,0,1-2.91,0c-.13-.08-.31-.11-.39-.19s-.16-.11-.14-.18,0-.16-.07-.24,0-.24,0-.45a6.49,6.49,0,0,1,1.16-2.46,7,7,0,0,1,.91-1.06c.35-.35.91-.84,1.33-1.29a23.12,23.12,0,0,0,4.86-7.47,0,0,0,0,1,0,0,.55.55,0,0,0,.17-.14,31.53,31.53,0,0,0,2.72-3.67,39.46,39.46,0,0,0,2.2-3.85,29.53,29.53,0,0,0,2.87-8.52,20.51,20.51,0,0,0-.76-9.05,72.41,72.41,0,0,0-3.11-8c-2.32-5-4.13-10.14-4.22-15.61a36.1,36.1,0,0,1,.14-4,6.34,6.34,0,0,0,3.51-1.57,19.93,19.93,0,0,0,2.4-2.26c1.42-1.56,2.68-3.18,3.92-4.83,2.45-3.3,4.72-6.66,7-10s4.61-6.63,7.09-9.76a52.79,52.79,0,0,1,4-4.47,16.37,16.37,0,0,1,3.08-2.43,15.24,15.24,0,0,1,3.57,0,11.53,11.53,0,0,1,1.95.34,9.41,9.41,0,0,1,.95.23l1.6.5c.58.16,1.15.3,1.74.43a12.85,12.85,0,0,0,3.73.27c.13,0,.27,0,.4,0a8.49,8.49,0,0,0,3.46-1.13,5.37,5.37,0,0,0,1.93-2.15,3.69,3.69,0,0,0,.43-1.45,3.23,3.23,0,0,0,0-1.12v0a3.79,3.79,0,0,0-1.27-2.13h0a.27.27,0,0,1-.08-.07h0A4.6,4.6,0,0,0,391.69,304.29Zm-139.45-8.7a100.73,100.73,0,0,1,9.12-9.83,210.15,210.15,0,0,1,20.72-17.12,253.14,253.14,0,0,1,22.65-14.51c3.35-1.95,6.71-3.87,10.1-5.73-2.51,1.92-5,3.86-7.47,5.82l-8.11,6.4L291.13,267c-5.44,4.21-11,8.27-16.59,12.31-9.71,7.26-19.41,14.81-27.47,24.11A42.71,42.71,0,0,1,252.24,295.59Zm10.91,106.7a10.66,10.66,0,0,1-8-5.73,11.09,11.09,0,0,1,0-10.14,11.81,11.81,0,0,1,3.52-4.16,11.52,11.52,0,0,1,2.54-1.43,48.37,48.37,0,0,0,2.18,7.91,45.93,45.93,0,0,0,5.06,9.85,30.78,30.78,0,0,0,2.3,2.82A14.8,14.8,0,0,1,263.15,402.29Zm105.1-89.68A51,51,0,0,0,364,317c-2.69,3.09-5.19,6.32-7.63,9.54s-4.88,6.46-7.41,9.57c-1.26,1.53-2.58,3-3.94,4.4a18.88,18.88,0,0,1-2.09,1.81,3,3,0,0,1-.88.52.15.15,0,0,1-.08.05.22.22,0,0,1,0-.08,1.94,1.94,0,0,1,.07-.33c.27-1.35.61-2.69,1-4,.13-.42.27-.85.38-1.28,0,0,0,0,0-.05a73.07,73.07,0,0,0,8.05-8.38c1.45-1.71,2.83-3.47,4.19-5.25s2.67-3.63,4.05-5.15a23,23,0,0,1,9.17-6.26C368.64,312.27,368.45,312.45,368.25,312.61Zm22.26-9.7a2.83,2.83,0,0,1-.7.42,1.62,1.62,0,0,1-.33.13,11.05,11.05,0,0,1-1.37.28l-.16,0a37.38,37.38,0,0,1-5.9.1h0a.65.65,0,0,0-.67.54.67.67,0,0,0,.54.75,26.9,26.9,0,0,0,6.42.34l.69-.11.56-.08a.53.53,0,0,0,.06.14l0,0a2.68,2.68,0,0,1,.46,1.66,1.57,1.57,0,0,1-.16.7,2.72,2.72,0,0,1-1.6,1.46,9.21,9.21,0,0,1-5.42,0c-.48-.11-1-.25-1.46-.4l-1.57-.52a9.1,9.1,0,0,0-1-.29,18.82,18.82,0,0,0-2.58-.45,17.8,17.8,0,0,0-4.78.24,17.2,17.2,0,0,0-2.45.61,27.5,27.5,0,0,0-11.53,7.9c-1.57,1.78-2.85,3.54-4.27,5.2s-2.8,3.39-4.29,5a65.81,65.81,0,0,1-9.55,8.66c-.87.62-1.7,1.14-2.66,1.71-.47.27-.88.51-1.28.7a2.47,2.47,0,0,1-.58.26l-.75.29a20.81,20.81,0,0,1-5.79,1.41A14.73,14.73,0,0,1,317.68,336a15.83,15.83,0,0,1-5.32-10.46,1.15,1.15,0,0,0-2.28,0,12.21,12.21,0,0,0-.07,1.35,17.63,17.63,0,0,0,1,5.76,17.44,17.44,0,0,0,4,6.17,17.61,17.61,0,0,0,6.21,4.06,18,18,0,0,0,7.39,1.14,22.79,22.79,0,0,0,7.07-1.75l.8-.33a9.72,9.72,0,0,0,.92-.44,16.91,16.91,0,0,0,1.6-1c.87-.57,1.85-1.26,2.71-1.95v0c-.41,1.16-.8,2.38-1.11,3.58-.1.34-.18.67-.26,1v0q-.39,1.5-.63,3a37.7,37.7,0,0,0-.41,4.39c-.26,5.76,1.41,11.53,3.44,16.7s3.86,10.43,2.73,15.28a27.23,27.23,0,0,1-2.65,6.66,24.25,24.25,0,0,0-4-11.31,23.53,23.53,0,0,0-19.92-10.23,23,23,0,0,0-7.45,1.48,22.31,22.31,0,0,0-11.22,9.45.67.67,0,0,0,.16.85.68.68,0,0,0,.93-.11,21.22,21.22,0,0,1,11-7.46,20.47,20.47,0,0,1,12.88.56,20,20,0,0,1,9.76,8,19.77,19.77,0,0,1,3,12.08,21.88,21.88,0,0,1-4.54,11.72c-.35.46-.66.78-1.09,1.31a12.58,12.58,0,0,0-1.23,1.77,10.23,10.23,0,0,0-1.29,4.15,6.71,6.71,0,0,0,.07,1.33,4.27,4.27,0,0,0,.64,1.39,3.81,3.81,0,0,0,1.14,1,5.84,5.84,0,0,0,1.25.48,10.77,10.77,0,0,0,4.16-.14,55.1,55.1,0,0,1,13.81-1.3,20.11,20.11,0,0,1,6.56,1.33,4.09,4.09,0,0,1,2.12,1.74,1.55,1.55,0,0,1,0,1.33,5.44,5.44,0,0,0-.65-.3c-3.67-1.38-7.32-1-10.74-.34a.65.65,0,0,0-.53.68.66.66,0,0,0,.67.62h0a35.27,35.27,0,0,1,5,0,13.16,13.16,0,0,1,4.61,1.1c1.33.68,2.26,1.67,2.27,2.87a5.17,5.17,0,0,1-1.71,3.58,5.3,5.3,0,0,1-3.81,1.33,31.89,31.89,0,0,1-4.88-.38c-3.34-.53-6.77-1.19-10.22-1.68a72.52,72.52,0,0,0-10.48-.58c-3.44,0-6.88-.11-10.29-.27-1.7-.08-3.39-.21-5-.4a27.77,27.77,0,0,1-4.74-.85,4.63,4.63,0,0,1-1.64-.78l-.15-.13s0,0,0-.05l-.12-.22a7.82,7.82,0,0,1-.33-.9,2.47,2.47,0,0,1,0-1.52,8,8,0,0,1,1.08-1.9,13.82,13.82,0,0,0,2.58-4.95,16.78,16.78,0,0,0,.43-2.8,1.53,1.53,0,0,0,0-.41,1.37,1.37,0,0,0-.23-.77,1.75,1.75,0,0,0-1.32-.82l-.37,0h-.14l-.33,0-.62,0a49.85,49.85,0,0,1-10.08-.4,40.55,40.55,0,0,1-18-6.87,29,29,0,0,1-6.52-6.52,40.82,40.82,0,0,1-4.43-8.47,53.19,53.19,0,0,1-3.15-19.21c.05-13.3,3.68-26.61,8.54-39.28a167.6,167.6,0,0,1,8.5-18.59A138.52,138.52,0,0,1,294,292.45c4.13-5.47,8.54-10.74,13-16l1.65-2,.79-1,.4-.53.2-.27a.83.83,0,0,0-.89-1.29c-.44.17-.47.32-.67.43l-1,.78-.84.64v0l-1.2.91c-.69.53-1.38,1.07-2.05,1.63l0,0-.07.05c-2,1.57-3.95,3.19-5.89,4.85-10.47,9-20.4,18.82-28.67,30.13A100.45,100.45,0,0,0,258,329l-1,2.46-.45,1a5.57,5.57,0,0,1-.48.9,14.93,14.93,0,0,1-2.72,3.29,13,13,0,0,1-7.76,3.68,5.93,5.93,0,0,1-6.09-4.11,17,17,0,0,1-1.06-4.5,24.16,24.16,0,0,1,0-4.81c.61-6.48,3.63-12.71,7.52-18.19a93.34,93.34,0,0,1,13.69-15.12c2.53-2.31,5.14-4.55,7.81-6.69s5.43-4.21,8.19-6.22c11.25-7.92,22.63-15.83,33.45-24.37,5.47-4.18,10.8-8.53,16.38-12.47,5.13-4.49,12.11-4.43,18.73-3.42a92.66,92.66,0,0,1,19.54,5.74c1.6.64,3.17,1.32,4.72,2l2.34,1.07c.76.37,1.56.74,2.2,1.13a8.64,8.64,0,0,1,3.14,3.37,11.82,11.82,0,0,1,1.23,4.63c0,.44,0,.89,0,1.35a4.72,4.72,0,0,1-1.34-.84,5,5,0,0,1-1.31-1.68s0-.08-.07-.11a.69.69,0,0,0-1-.25.72.72,0,0,0-.24,1,6,6,0,0,0,1.95,1.92,5.72,5.72,0,0,0,2,.82,21.53,21.53,0,0,1-1.81,7.5,25.72,25.72,0,0,1-3.52,5.76,1.64,1.64,0,0,0-1.4-.25,3.89,3.89,0,0,1-2.91-.77,13.31,13.31,0,0,1-2.82-2.66v0a.69.69,0,0,0-.8-.17.65.65,0,0,0-.31.88,14.68,14.68,0,0,0,2.44,3.69,8,8,0,0,0,1.92,1.52,5.7,5.7,0,0,0,1.55.61c-4.38,4.95-10.29,8.42-16.58,8.9a27.89,27.89,0,0,1-9.52-.85l-1.17-.32a3,3,0,0,0-.86-.08,2.47,2.47,0,0,0-1,.32,2.55,2.55,0,0,0-1.21,1.62,2.62,2.62,0,0,0,.27,1.93,1.88,1.88,0,0,0,.25.37l.1.13,1.52,1.93,1.36,2.05L344,294.8a30.15,30.15,0,0,1,3.09,9.36,36.29,36.29,0,0,1,0,9.14,12.4,12.4,0,0,1-1.39.44,12.1,12.1,0,0,1-3.44.28,12.9,12.9,0,0,1-6.5-2.68.55.55,0,0,0-.7.84,12.74,12.74,0,0,0,7,3.64,11.84,11.84,0,0,0,4.07,0,18,18,0,0,0,3.84-1.27c.6-.3,1.19-.6,1.76-.94s1.14-.72,1.65-1.07l3.09-2.21,6.11-4.4c.82-.58,1.65-1.15,2.47-1.71,1.15-.82,2.3-1.62,3.47-2.37A51.45,51.45,0,0,1,375.1,298a12.76,12.76,0,0,1,1.62-.59,5.53,5.53,0,0,1,.78-.19l.91-.14c1.2-.2,2.42-.34,3.6-.42.39,0,.75,0,1.12,0a9.61,9.61,0,0,1,2.31.14l.25.05a1.85,1.85,0,0,1,1.43.93c-.24,0-.48,0-.71,0h-.08a13.48,13.48,0,0,0-2.11.36,19.78,19.78,0,0,0-4,1.39.58.58,0,0,0,.42,1.09h0a26.23,26.23,0,0,1,4.59-1.06c.44-.05.85-.08,1.28-.09a4.3,4.3,0,0,1,.95,0,4.53,4.53,0,0,1,3.74,1.8C391.39,301.54,391.13,302.42,390.51,302.91Zm-81.36-30.85s0,0,0-.06.1-.06.08,0S309.23,272.11,309.15,272.06ZM385,299.25c-.25-.35-.49-.72-.75-1.07a19.78,19.78,0,0,0-4,1.39.58.58,0,0,0,.42,1.09h0a26.23,26.23,0,0,1,4.59-1.06C385.13,299.47,385.05,299.36,385,299.25Zm0,0c-.25-.35-.49-.72-.75-1.07a19.78,19.78,0,0,0-4,1.39.58.58,0,0,0,.42,1.09h0a26.23,26.23,0,0,1,4.59-1.06C385.13,299.47,385.05,299.36,385,299.25Zm0,0c-.25-.35-.49-.72-.75-1.07a19.78,19.78,0,0,0-4,1.39.58.58,0,0,0,.42,1.09h0a26.23,26.23,0,0,1,4.59-1.06C385.13,299.47,385.05,299.36,385,299.25Zm0,0c-.25-.35-.49-.72-.75-1.07a19.78,19.78,0,0,0-4,1.39.58.58,0,0,0,.42,1.09h0a26.23,26.23,0,0,1,4.59-1.06C385.13,299.47,385.05,299.36,385,299.25Zm0,0c-.25-.35-.49-.72-.75-1.07a19.78,19.78,0,0,0-4,1.39.58.58,0,0,0,.42,1.09h0a26.23,26.23,0,0,1,4.59-1.06C385.13,299.47,385.05,299.36,385,299.25Zm0,0c-.25-.35-.49-.72-.75-1.07a19.78,19.78,0,0,0-4,1.39.58.58,0,0,0,.42,1.09h0a26.23,26.23,0,0,1,4.59-1.06C385.13,299.47,385.05,299.36,385,299.25Zm0,0c-.25-.35-.49-.72-.75-1.07a19.78,19.78,0,0,0-4,1.39.58.58,0,0,0,.42,1.09h0a26.23,26.23,0,0,1,4.59-1.06C385.13,299.47,385.05,299.36,385,299.25Zm0,0c-.25-.35-.49-.72-.75-1.07a19.78,19.78,0,0,0-4,1.39.58.58,0,0,0,.42,1.09h0a26.23,26.23,0,0,1,4.59-1.06C385.13,299.47,385.05,299.36,385,299.25Zm0,0c-.25-.35-.49-.72-.75-1.07a19.78,19.78,0,0,0-4,1.39.58.58,0,0,0,.42,1.09h0a26.23,26.23,0,0,1,4.59-1.06C385.13,299.47,385.05,299.36,385,299.25Zm0,0c-.25-.35-.49-.72-.75-1.07a19.78,19.78,0,0,0-4,1.39.58.58,0,0,0,.42,1.09h0a26.23,26.23,0,0,1,4.59-1.06C385.13,299.47,385.05,299.36,385,299.25Zm0,0c-.25-.35-.49-.72-.75-1.07a19.78,19.78,0,0,0-4,1.39.58.58,0,0,0,.42,1.09h0a26.23,26.23,0,0,1,4.59-1.06C385.13,299.47,385.05,299.36,385,299.25Zm0,0c-.25-.35-.49-.72-.75-1.07a19.78,19.78,0,0,0-4,1.39.58.58,0,0,0,.42,1.09h0a26.23,26.23,0,0,1,4.59-1.06C385.13,299.47,385.05,299.36,385,299.25Zm0,0c-.25-.35-.49-.72-.75-1.07a19.78,19.78,0,0,0-4,1.39.58.58,0,0,0,.42,1.09h0a26.23,26.23,0,0,1,4.59-1.06C385.13,299.47,385.05,299.36,385,299.25Zm0,0c-.25-.35-.49-.72-.75-1.07a19.78,19.78,0,0,0-4,1.39.58.58,0,0,0,.42,1.09h0a26.23,26.23,0,0,1,4.59-1.06C385.13,299.47,385.05,299.36,385,299.25Zm0,0c-.25-.35-.49-.72-.75-1.07a19.78,19.78,0,0,0-4,1.39.58.58,0,0,0,.42,1.09h0a26.23,26.23,0,0,1,4.59-1.06C385.13,299.47,385.05,299.36,385,299.25Zm0,0c-.25-.35-.49-.72-.75-1.07a19.78,19.78,0,0,0-4,1.39.58.58,0,0,0,.42,1.09h0a26.23,26.23,0,0,1,4.59-1.06C385.13,299.47,385.05,299.36,385,299.25Zm0,0c-.25-.35-.49-.72-.75-1.07a19.78,19.78,0,0,0-4,1.39.58.58,0,0,0,.42,1.09h0a26.23,26.23,0,0,1,4.59-1.06C385.13,299.47,385.05,299.36,385,299.25Zm0,0c-.25-.35-.49-.72-.75-1.07a19.78,19.78,0,0,0-4,1.39.58.58,0,0,0,.42,1.09h0a26.23,26.23,0,0,1,4.59-1.06C385.13,299.47,385.05,299.36,385,299.25Zm0,0c-.25-.35-.49-.72-.75-1.07a19.78,19.78,0,0,0-4,1.39.58.58,0,0,0,.42,1.09h0a26.23,26.23,0,0,1,4.59-1.06C385.13,299.47,385.05,299.36,385,299.25Z"/><path class="cls-1" d="M292.66,562.15a2.68,2.68,0,0,1-2.62-2.94V530.92h1.24a2.65,2.65,0,0,1,2.94,2.9v11.84a148.63,148.63,0,0,1,10.28-13.08c1-1.06,2.11-1.66,4.73-1.66h2.07v.23c-3.17,2.76-8.59,9.55-12.45,14.51,1.75,2.39,6.89,8.77,9,11.16a11.72,11.72,0,0,0,4.77,3.53c-.64,1.2-1.14,2-2.7,2a5.54,5.54,0,0,1-4-1.69c-3.53-3.91-9.41-11.21-11.75-14.51v16Z"/><path class="cls-1" d="M328.51,562.15c-1.61,0-2.75-.92-2.75-3.08V530.92h2A2.23,2.23,0,0,1,330,533v29.11Z"/><path class="cls-1" d="M364.46,534.73h-7.35v27.42h-1.56c-1.79,0-2.71-.6-2.71-2.67V534.73h-9.5v-1.56c0-1.19.73-2.29,2.66-2.29h20.89v1.6A2.55,2.55,0,0,1,364.46,534.73Z"/><path class="cls-1" d="M400.13,537.86c-1.74-2.62-4.86-3.49-7.66-3.49-6.75,0-11.25,4.73-11.25,11.38,0,8.59,5,13,11.43,13a9.55,9.55,0,0,0,7.48-3.07h.23v1.28c0,3-3.07,5.69-8.54,5.69-8.17,0-14.83-6.56-14.83-16.16,0-8.22,5.6-16,15.43-16,5.14,0,8,3.17,8,5.79v1.61Z"/><path class="cls-1" d="M437.18,562.15a2.82,2.82,0,0,1-2.75-3.08v-11.3H418.68v14.38h-1.56a2.76,2.76,0,0,1-2.67-3.08V530.92h2.25a2,2,0,0,1,2,2.12v10.88h15.75v-13h2A2.15,2.15,0,0,1,438.6,533v29.11Z"/><path class="cls-1" d="M469.64,562.37h-3.86c-7.8,0-11.34-4.49-11.34-13v-5.65a40.67,40.67,0,0,1,1.06-8.45c.73-3,1.88-4.36,3.95-4.36h16.29v1.7c0,1.1-.68,2.16-3,2.16H459.77a41.78,41.78,0,0,0-1.11,9.5h13.55v1.34c0,1.24-.83,2.25-2.71,2.25H458.66v2.29c0,6.29,2.35,8.4,8.54,8.4h2.39a21.58,21.58,0,0,0,5.88-.87v1.2C475.47,561,474.73,562.37,469.64,562.37Z"/><path class="cls-1" d="M512.84,562.15c-2.85,0-5.37-1.57-8.68-8.22l-6.61-13.37a17.41,17.41,0,0,0-3.44-5.18v26.77h-1.75c-1.33,0-2.34-1-2.34-2.85V530.88h2c3.67,0,6.15,2.52,8,6.24l6.61,13.41c1.2,2.39,2.16,4.77,3.54,6.47V530.92h1.74a2.18,2.18,0,0,1,2.21,2.21v29Z"/><path class="cls-1" d="M209.6,471.13h-7.95v43h-6.72c-4.62,0-8.67-2.1-8.67-8v-35h-16v-5.35c0-3.4,3-7.45,8.67-7.45h39.21v5.35C218.18,467.16,214.29,471.13,209.6,471.13Z"/><path class="cls-1" d="M286.65,485.31C284,494,278.3,508.08,273.28,514.8H269c-3.81,0-5.76-1.3-6.89-3.08-2.76-4.21-6.08-12.56-7.94-18.31-1.78,6.56-6.16,16.61-10,21.39h-3.8c-3.57,0-5.51-.57-7.13-3.08-6.16-9.48-12.56-26.82-14.67-42.13h8.18c5.11,0,7.86,3.49,8.35,6.32a95.65,95.65,0,0,0,5.59,19,133.13,133.13,0,0,0,7.45-23.42h6a9.25,9.25,0,0,1,8.51,6.65,101.71,101.71,0,0,0,5.83,16.77c2.43-5.59,5.18-15.39,6.64-25.28h7.21c4.78,0,6.73,3,6.73,5.59C289.08,477.13,287.62,482.23,286.65,485.31Z"/><path class="cls-1" d="M317.36,468.38c12.15,0,23.09,9.23,23.09,23,0,14.58-8.83,24-24.23,24-12.72,0-23.09-9.4-23.09-22.53C293.13,478.1,303.34,468.38,317.36,468.38Zm-1,12.15c-4.21,0-8,4.45-8,10.53,0,8.59,3.41,12.32,8.83,12.32,4.87,0,8-4.46,8-10.62C325.21,484.74,321.73,480.53,316.38,480.53Z"/><path class="cls-1" d="M394.73,514.8h-6.48c-14.18,0-20.25-7.13-20.25-21.23V458.25h6.48c6.07,0,8.91,3.16,8.91,9.48v24.79c0,7.29,1.94,9.48,8.91,9.48h2.43c4.46,0,9.56-.73,11.83-1.7H407v5.26C407,511.24,403.56,514.8,394.73,514.8Z"/><path class="cls-1" d="M429.66,515.37c-8.59,0-19-4.05-19-14.18,0-9.89,7.13-14.91,23.33-14.91h2.19v-1.86c0-3.65-2.84-4.54-8.92-4.54-8.34,0-11.42,1.95-14.58,4.86h-.4v-5.43c0-5.51,5.75-11,18.47-11,12.31,0,20.33,6.23,20.33,19.36v6.89C451,510.75,445.86,515.37,429.66,515.37Zm6.8-19.53h-3.08c-5.83,0-8.18,1.46-8.18,4.46,0,2.83,1.78,4.29,6.08,4.29,2.75,0,5.18-1.38,5.18-5.43Z"/><path class="cls-1" d="M481.19,515.45a23.23,23.23,0,0,1-23.26-22.85c0-15,9.24-24.3,21.07-24.3,5.67,0,9.88,2.51,11.5,6V454.2H496c6.16,0,9.48,3.24,9.48,10.77v25.85C505.49,506.94,498.93,515.45,481.19,515.45Zm-.33-35.24c-4.13,0-7.61,4.29-7.61,11.09,0,8.75,4.05,12.32,9.64,12.32,4.78,0,7.29-3.73,7.29-10.69C490.18,483,486.37,480.21,480.86,480.21Z"/><path class="cls-1" d="M522.43,467.08a7.63,7.63,0,1,1,8-7.62A7.87,7.87,0,0,1,522.43,467.08Zm7.29,47.72c-8.18,0-14.58-4-14.58-14.58V471h3.8c8.75,0,11.59,2.51,11.59,10.61V498c0,4,1.86,5.18,6.16,5.18h1.86v4.54C538.55,513,534.5,514.8,529.72,514.8Z"/><path class="cls-1" d="M564.48,497.38h-6.65c.89,4.46,4.54,6.56,10.94,6.56,7.13,0,11.59-1.13,14.1-2.83h.57v3.56c0,5.67-4.62,10.78-17.34,10.78-15.4,0-23.5-10.37-23.5-22.69,0-13.53,9.16-24.55,22.93-24.55,11.67,0,20.74,6.57,20.74,17.91C586.27,495,579.55,497.38,564.48,497.38Zm1-17.66c-5.43,0-7.7,3.48-8.1,7.78h6c7.3,0,8.59-1.14,8.59-3.08C572,482.15,570,479.72,565.53,479.72Z"/><path class="cls-1" d="M610,515.45c-12.15,0-16.53-4.46-16.53-10.94v-4.46h.41c2.92,2.19,7.37,3.89,13.69,3.89,5.59,0,7.37-1.29,7.37-3.48,0-2-1.05-2.84-10.29-4.13-8-1.14-12.23-4.78-12.23-11.91,0-10.7,10.13-16.12,20.34-16.12,9.88,0,15.88,4,15.88,10.61v4.62h-.41c-3-2.19-7.7-3.73-13.69-3.73-5.75,0-7.62,1.54-7.62,3.4,0,1.7,1,2.27,10.29,3.81,7.46,1.22,12.48,5.27,12.48,12.8C629.7,509.37,622.25,515.45,610,515.45Z"/></svg>