<svg id="Layer_2" data-name="Layer 2" xmlns="http://www.w3.org/2000/svg" viewBox="0 0 800 800"><defs><style>.cls-1{fill:#231f20;}</style></defs><path class="cls-1" d="M381.19,228.44c.91-.14-.42-.8.61-.3C381.65,228.48,381.46,228.74,381.19,228.44Z"/><path class="cls-1" d="M377.74,408.87a6,6,0,0,1-4.08-2.75c-.55-.66-1.05-1.38-1.61-2a7.21,7.21,0,0,0-2-1.62c-.3-.24,1.05-.69.31-1.17-3.32-1.37-5.21-6.16-5.85-10.06H365c-.13-.74-1.59-.91-1.81-1.65.2-.12.41.05.6-.26-.71.18-.93-1-1.55-1.07.1-.4.61-.63.7-1.12H362c-2.25-.18-1.24-2.65-2.84-3.68.2,0,.4.06.51-.13-2.24-1.85-3.46-5-5.08-7.48a1.5,1.5,0,0,0,1-.42c-.83.22-1.41-.53-1.89-1.18.65-.69-1.29-.91-1.24-2h.21c-1.11-.25.06-1.15-1.17-1.21l.45-.68c-1.25.23.17-1.17-.63-1.43l-.23.12c-.49-.37,0-.88-.43-1.25l.11-.1c-.78-.93-.43-1.83-1.3-1.41.54-.69.79.89,1.54-.16-2.47-3.09-3.91-6.79-5.48-10.32.18-.56.17-.86.47-1.1-.34-.27-.75-1.26-1.34-1.38.07.11.35-.43.32-.63.05-.79-1.28-.29-1.2-1.16a.82.82,0,0,0,1-.09c-.95-.3-1.19-1.16-1.71-1.78.19,0,.35.18.62,0-1.12-.45-.44-1.5-1.23-2l.62,0c.15-1.37-1.21.13-1.25-1,.26.16.43,0,.65,0-1.3-.5-1.62-2.07-2.3-2.83a.41.41,0,0,0,.22,0c-.51-.93-.64-2.07-1.49-3,.07-.49,1.31-.39.69-1.34-1,.46-1.14-1.58-2.06-.5-.2-1-.37-2.5-.95-3,.55.24,1.1-.93,1.48-.23l.4-.81c.46-.08.08.63.55.24-.19-.35-1-1.26-1-1.66-.9-.43-2.33-.59-2.9-1.65.61.36,1-.74,1.34-.46l-2.59-.78c-.2-.35.79-.39.31-.83-.26.14-.52,0-.8-.11.06-.19-.84-1.46.13-2,.34-.32.44.52.65,0-.26-.68-.62-.58-.89-1.26l.13-.06c0-.51-.93-1.18-1.32-.48.08.33.57-.35.45.23-.72-.1-1.18-.84-1.45-1.53.26.18.52,0,.85,0a7.51,7.51,0,0,1-2.46-2.46c-.5.16,1,.08.82.32.22-1.57-1.92-2.43-1.31-3.89.15.16-.66.34-.53.28-.16-.67.56-.88.15-1.21.41-.18-.31-.48-.59-.87-.38-.13.17-.18.34.18a6.81,6.81,0,0,1-1.81-4.33c-.27.12-1.3-.54-1.37-.88l.7-.08c.29-.41-.4-1.06.14-1.29-1-.45,1.52,2.45.61,1.71.47-.41-1.46-1-.5-1.06-.23-.64-1.18-1-.74-1.86-.05.22,1.06.26.87-.26-.38-.89-.39-.17-.83-.86l-.4-.39c-.65.15-.15-.86-.77-.31.5-.27-.71-1.27.38-1.47l.87-.11c-.17-.39-1.07-.41-1.53-.63a.68.68,0,0,1,.34-.24c-1.3.29-.17-1-1.3-1.2.19-1-.53-2.19.17-2.8-.56-.55-1.17-1-1.08-1.86.15.12.24.31.53.29.27-.57-.1-.6-.42-1,.22.05.52-1.13.85-1.76-.55-.56-1.19-.17-1.64-.13,1.12-.9-1.27-1.67-.26-2.69.23.19.83.82,1,.2,1.16-.89-1.21-1-.79-2.11l-1,.47c.57-.58-.93-1.31.18-1.44-.45-.25.11-1.22-.91-.9.51-1.77-1.28-3.83.42-5.15-.21-.2-.13-.81-.65-.6-.52.49.51.47.13.68-.06-.2-.36-.2-.51-.2.16-.54.17-.95,1.12-.62.46-1.22-2-.85-1.82-2.35.45,0,.59-.13.45-.54-.29-.22-.59-.45-.87-.68.05-.95.92-.67,1.66-.8-.19-.47-.23-1.08-.81-1.23l.85-.72c-.62.52-.5-.35-.71-.55l.21.2c.3-.13,0-.67-.1-.95-.45.13-.56.73-.65,1.07-.36-.21-.33-.61-.76-.9.74,0,.41-.87.44-1.27s-.72-.44-.71-.57c.38-.06,0-.75.54-.45.14.14-.32.39,0,.61.25-.33.91-.37.35-.93s-1.42.27-1.08-.66c.22.21.51.22.8.37.09-.28.17-.57.28-.86l-.66,0c.16-.13.22-.06.3-.12-.72-.17-.32-1.24-1.12-1.36-.1-.41.39-.92.43-1.33l.06.07a1.17,1.17,0,0,0-.44-1.53H317a1.53,1.53,0,0,0-.55-1.2c.45-.71,2.5-.4,1.6-1.08-.09-.68-1.29-1-1.71-.7.41-1.26-.73-2.63.26-3.82-.27-.17-.44-.05-.61-.41.2-1.82-.94-3.85.42-5.35.28.55.67.05,1.05,0-.6-.45.63-.51-.39-.7-.61,0-.9,0-1.16.51-.3-1.13-.22-2.89.4-3.49-.3.3-.47,0-.63-.23.95.16,1.18-.66.9-1.34l-.57-.16.65-.35c-.15-.27-1.19-.44-.53-1a1.53,1.53,0,0,0,.65-.1c-.38-.74-1-1.89-.32-2.55l1-.41c0-.33-.36-1-.75-.51.84-1.16,1.21-1.94,2-2.08a6.44,6.44,0,0,1,.35-4.42,12.19,12.19,0,0,1,2.72-3.82l.26.36c.82-.25-.28-.82.32-1,.13.47,1,.25,1,1,1.05-.39.46-1.47.87-2.09-.3-.51-.19.65-.56,0-.05-.26,1.43-.57,1-1.37.42.11.64.75.74,1.11.08-.24.17-.47.26-.71.61.19.51.82.47,1.45s0,1.29.65,1.56c.11-.15.22-.3.33-.43.92.44-.43,1.64.75,1.11.17-.64-.14-2-.79-2,.86-.9-.7-2,.51-2.75.59.24-.87.71-.26,1.17.91.24.88-1,1.5-1.09-.7,0-.69-1-.39-1.35.81,0,0,.93.91.55-.1-.52.54-1.28-.33-1.22-.19-1.19,1.08-.2,1.18-1.22.62.59-.1,2.11,1,2-.49-.63.75-1.49-.23-2.31.48,0,.76.57.67,1.13.72.19.78-1.87,1.54-.52l-.11-.81c.27.17.59.26,1,.55.48-.17,1.18-1.57,1.53-.42.11-.18,1.21-.48.53-1.13-.84-.25-.58.84-1.33-.08.78.69.94-.46,1.25-.88l.21.42c.18-.25.75-.33.74-.85a.48.48,0,0,0,.31.63l0-.75c.85-.63.59,1.1,1.43.64l-.53.73c.12-.16.62.38,1,0,0-.67.09-1.5.1-2,.44-.42.43.63.75-.15l-.45.93c0,.23.74.89,1.41.68.37-.33.82-1.4,0-1.56.35-.1.93.15.78.67.72-.42-.28-.64.29-1.2.39.34,1.4.69,2.06,1.18l-.43,1.22.46-.11c-.39,1,.46.56.35,1.52.34.07.65-.32.89-.63-1.26-1.19.57-2.17,0-3.4,1.22-.66,1.51,3,2.4.64-.29-.29.13-1.41-.6-.86.83,0,.27-1.42,1.34-1.09-.6.69,1,1.16.16,2.15,0-.45-.63-.21-.75,0,.43.42.21,1.31,1,1.14.47-.24,1.14-.38.91-1s-.74.22-.57-.59c1-.45,1.33.65,1.49-.75-.61.23-.92-.51-1-1l.68-.46-.05.53c1.26.13.18-1,1.37-1l.72.89c-.13.88-1.75-.08-1.3,1.26.75-.09.88-.82,1.65-.58-.14.14-.35.21-.48.36.28,0,.84,1.78,1.72.54.48-.51.07-.52,0-1,1.18-.35,1.47-.91,2.23-1.11,0,1,1.39-.09.67,1.06a1.76,1.76,0,0,0-2.49.79c.62,1.13-1,0-1,1.24.95-.13,1.09,1.05,1.36,1.8.26,0,.46-.35.6-.49,0-.74-.34-.68-.47-1.43a2.85,2.85,0,0,0,2.54-1.29c.41.32.38,1.06,0,1.18a10.36,10.36,0,0,1,3.82-.32c-.89-1.12,1.32-.4.7-1.35-.67-.2-1.32-1-1-1.57.42,0,0,.53.23.76.46-.7.9,1,1.32-.1-1.14.49-.1,1.47-.23,2.43.78-.6,0,.66.84.59a8.93,8.93,0,0,1,2.68-1.32c1.21.83,2.94-.12,4-.17.55.46.21,1.53.79,1.7.69,0-.52-1.13.5-.67l-.1.22c.31-.25,1.86.72,2.17-.81l-.32,1.15c.19.11.36-.16.52-.28,0,.38.22.72-.09,1,.62.79,1.31-.1,2-.12l-.42-.69c1.18-.51,1.93.19,3.07,0l-.07.67.69-.37c-.2.64.38,1.07.77.56l-1.81,1.54c-.45-.41.56-.78.29-1.44s-1.27-.46-1.46.18c.39.08.42-.06.73-.28.09.93-.5.86-.82,1.47.21,0,.49.27.54,0a1.77,1.77,0,0,1-1.49.5c.47-.35-.23-.58-.05-.84-.08.82-.71,1.05-1.53.8-.59-.94-1.56.61-2.5.35a3.81,3.81,0,0,1,1.46-1.82c-.61-.42-.67,0-1.29-.4-.29.62-.49,1.57-1.26,2l-.05-.61c-.71.33-.68,1.23-1.59,1.08a25.87,25.87,0,0,0-4.31-.13l-.09-.61c-.56,1.33-2.14.67-3,1.32-1.56-.42-3.16.94-4.05,0a39,39,0,0,1-7.45,2l.27-1c-.35.74-.42-.43-.87-.2.69.58-.46,1-.67,1.64-1.34-.4-2.7.68-3.57,1.56l-.19-.58c-.76,1.37-2.25.75-3.61,1-.22-.2-.62-.69-1-.5-.41,1.15-.79,1.2-1.59,2.12a8.68,8.68,0,0,1-2.79.37,14.26,14.26,0,0,1-3.36,2.57,8.07,8.07,0,0,0-2.9,2.59l-.61-.41a11.54,11.54,0,0,1-1.9,3.35,5.54,5.54,0,0,0-1.31,3.23l-1.09-.59a1,1,0,0,0,.72,1.67c-.53.58.2,1.76-.85,2-.35.69.42,1,.5,1.59a5.35,5.35,0,0,0-.38,3.47l.09-.36c-.26-.17-.78-.21-.87.15.32.56-.37,2,1.1,1.51-.89,1.57.76,3.75-.33,5.36.39-.15.48.25.76.41.08,1.42-.74,3,.07,4.07-.18.24-.71-.32-.7.27.18.33.52,0,.78.38a6.53,6.53,0,0,1,.2,3.48,9.23,9.23,0,0,0-.15,3.37,29.16,29.16,0,0,1,1.22,5.6c.34,1.87.6,3.74,1,5.51h-.3c1.28,1-.6,3,1.26,3.64-.21.33.1,1.09-.5,1,1,.78-.16,2.81,1.11,4,0-.13-.07-.19-.23-.31-.31,1.53.88,2.53.67,4.12-.16-.12-.32-.36-.61-.33-.41.7,1.53,1,.24,1.68.09.32.74.05.65-.13a15.38,15.38,0,0,0,1.33,4.87l2.07,4.75c-.07,2.58-2.23.84-.64,2.38-.21.23.55-.05.28.06.6.6-1.15,1.59-.29,1.87.76-.47.57.18,1.07,0-.07,1.6-.75,2.15.27,3.06l-.46.06c1.68.91,1.55,2.66,3.34,3.28,2.8,7.14,6.2,13.69,9.25,20.54,2.58,7,6.09,13.36,8.48,20.6-.37,2.12-.29,2.23,1,3.81-.21,0-.3-.09-.41.11.93-.32.65,1.22,1.58,1,1,2.64,2.29,4.89,3.49,7.49-.28-.37-1.11-.24-.83.22l.81.26-.21.19c.28.28.89.44,1,0a58.3,58.3,0,0,1,4.39,9.61,45.58,45.58,0,0,0,4.43,9.25c.49,1.58,2.07,3.27,3.23,4.54a31.43,31.43,0,0,0,3.39,6.73,17,17,0,0,0,5.36,5.13A4.41,4.41,0,0,1,377.74,408.87Z"/><path class="cls-1" d="M380.11,228.46c-.15-.5-.76-.82-.22-1.44C379.92,227.49,380.21,228,380.11,228.46Z"/><path class="cls-1" d="M363.06,223.52c0,.15-.27-.18-.33-.25.21-.06.38-.49.57-.24C363.09,223.08,363.14,223.31,363.06,223.52Z"/><path class="cls-1" d="M358.59,223.68c0-.44.93-.9,1.49-1Z"/><path class="cls-1" d="M354.19,222.46c-.41-.3-.35-.52.14-.59C354.4,222.1,354.26,222.24,354.19,222.46Z"/><path class="cls-1" d="M354.06,223.5c-.35.06-.56-.16-.77-.38C353.37,223.49,354.05,222.75,354.06,223.5Z"/><path class="cls-1" d="M344.84,224c-.21.09-.58.55-.9.13C344.25,224.43,344.86,223.37,344.84,224Z"/><path class="cls-1" d="M340.88,225.73c-.14,0-.21,0-.33.11-.3-.12-.13-.5.06-.6Z"/><polygon class="cls-1" points="320.86 293.13 320.55 292.73 320.99 292.71 320.86 293.13"/><path class="cls-1" d="M330.13,324.63c.41.32-.28.42-.31.52C329.63,324.79,330.37,325.1,330.13,324.63Z"/><polygon class="cls-1" points="338.51 340.24 338.45 340.12 339.29 339.83 338.51 340.24"/><path class="cls-1" d="M379.47,227.83c-.9.07.34.83-.63.25C379,227.75,379.24,227.51,379.47,227.83Z"/><path class="cls-1" d="M422.38,392.74c-1.15-3.58,2.37-6.47,2.05-10,0-.39,1.15.51,1.15-.41-.62-3.56,2-7.9,4.51-11.11l.26.33c.48-.61-.34-1.83.06-2.52.23.07.24.35.6.28-.61-.41.14-1.44-.26-1.92.36-.2.88,0,1.3-.27l-.63-.68c-1.44-1.78,1.06-2.81.64-4.72.16.14.24.34.46.27-.25-2.93,1-6.09,1.47-9.09a1.5,1.5,0,0,0,1.06.39c-.77-.4-.69-1.36-.6-2.18.94-.08-.34-1.56.4-2.32l.16.13c-.67-.94.81-.83-.07-1.7l.79-.22c-1.09-.66.9-.79.48-1.53l-.25-.05c-.13-.61.54-.7.5-1.25h.15c0-1.23.89-1.69,0-1.95.85-.17,0,1.21,1.26.91.21-4,1.5-7.84,2.62-11.61.5-.32.69-.56,1.06-.56-.07-.43.24-1.47-.13-1.95,0,.13.54-.11.64-.29.55-.59-.8-1.05-.17-1.68a.82.82,0,0,0,.81.55c-.54-.85-.18-1.68-.19-2.51.12.17.16.38.45.43-.57-1.07.61-1.47.31-2.35l.45.43c1-1-1-.67-.34-1.57.1.29.33.26.54.37-.71-1.23,0-2.68,0-3.72a.41.41,0,0,0,.21.11c.16-1.07.76-2.07.65-3.32.35-.35,1.27.49,1.38-.65-1.09-.26.07-2-1.33-1.67.44-.88,1.23-2.26,1-3,.3.53,1.44-.1,1.32.7l.81-.41c.42.2-.31.57.29.53.07-.41-.06-1.66.21-2-.47-.9-1.52-1.89-1.35-3.1.28.67,1.27,0,1.36.43l-1.63-2.18c.05-.4.87.14.74-.5-.29,0-.4-.33-.59-.56.16-.12.15-1.69,1.25-1.59.46-.06.06.7.55.36.17-.72-.18-.85,0-1.57l.14,0c.28-.43-.09-1.52-.81-1.15-.12.32.67,0,.24.45a2.18,2.18,0,0,1-.32-2.1c.11.29.4.33.67.51a8.13,8.13,0,0,1-.66-3.44c-.5-.14.82.63.51.73,1.06-1.21-.27-3.11,1-4,.05.21-.74-.08-.59-.06.22-.65,1-.44.79-.94.44.06,0-.58,0-1.06-.25-.31.24-.07.19.34-.21-.72-.26-3.38.72-4.67-.29,0-.82-1.14-.72-1.46l.64.29c.47-.21.2-1.13.79-1.05-.64-.9,0,2.9-.36,1.79.62-.11-.74-1.59.12-1.16.13-.68-.47-1.5.31-2-.15.16.79.76.87.21.11-1-.25-.35-.29-1.17l-.16-.55c-.64-.18.28-.82-.53-.64.57,0,0-1.46,1.06-1.11l.81.33c0-.42-.73-.88-1-1.29a.64.64,0,0,1,.42,0c-1.29-.37.34-1-.55-1.68.65-.75.54-2.18,1.44-2.4-.24-.75-.58-1.46-.13-2.15.09.18.08.39.35.5.49-.39.18-.59.06-1.07.18.14,1-.77,1.56-1.2-.24-.75-1-.68-1.41-.84,1.42-.31-.41-2,.93-2.54.13.27.41,1.1.86.63,1.42-.32-.68-1.43.15-2.27H454.7c.75-.29-.31-1.57.76-1.23-.32-.41.6-1.07-.47-1.19,1.23-1.41.31-4,2.39-4.58-.13-.27.17-.8-.39-.8-.66.26.3.62-.13.68,0-.21-.26-.32-.4-.37.35-.45.51-.82,1.27-.17.88-1-1.53-1.51-.84-2.84.42.16.61.08.63-.34l-.58-.94c.35-.87,1.08-.31,1.82-.18,0-.52.14-1.11-.37-1.44l1.05-.4c-.76.29-.36-.49-.5-.76l.14.27c.32,0,.25-.63.22-.94-.47,0-.77.52-1,.8-.27-.31-.12-.68-.43-1.09.7.25.68-.69.83-1.06s-.54-.63-.49-.76c.38.06.2-.69.66-.25.09.16-.43.27-.15.58.33-.23,1-.08.62-.76-.27-.51-1.44-.16-.83-.89.14.24.42.33.64.55l.52-.71-.65-.14c.18-.08.23,0,.32,0-.65-.34,0-1.2-.79-1.47,0-.37.55-.71.66-1.06l.05.07c.44-.39.2-1-.24-1.34l.15,0a1,1,0,0,0-.46-1c.49-.55,2.52-.34,1.62-.9-.08-.6-1.33-.65-1.71-.39a1.33,1.33,0,0,0-.32-1.18.92.92,0,0,1-.07-1.12c-.28.06-.39.19-.62.15-.15-.45-.6-.61-1-.8a2,2,0,0,1-1.11-1.28c.47-.12.27-.62.39-1-.53.44-.21-.73-.66.19-.15.59-.27.86,0,1.21a3.51,3.51,0,0,1-2.63-1c.21.33,0,.46-.29.59.28-.92-.45-1.23-1.11-1l-.21.56-.25-.67c-.27.13-.51,1.14-1,.47a1.4,1.4,0,0,0,0-.65c-.71.33-1.73,1-2.28.32l-.36-1c-.3,0-.88.44-.44.78-1-.74-1.72-.95-1.92-1.75-2.3,1.37-5.08.89-7.27.38l.14-.42c-.53-.51-.44.7-.81.33.27-.38-.3-1,.26-1.4-.78-.61-1.23.57-1.82.67-.17.56.51-.29.28.42-.12.18-1.11-.64-1.37.2a1.86,1.86,0,0,1,.27-1.31l-.58.34c-.5-1.11,1.74-1.57,1.26-2.92l-.52.06c-.33-1,1.46-.81.27-1.32-.6.34-1.24,1.53-.82,2-1.14.08-.82,2-2,1.75-.25-.56,1,0,.83-.74-.46-.77-1.16.23-1.62-.08.5.41-.08,1.21-.45,1.33-.54-.48.49-.77-.34-1-.2.48-1,.77-.39,1.19-.44,1.1-.83-.42-1.39.41-.18-.83,1.08-1.74.19-2.25.06.78-1.25.93-.88,2.12a1,1,0,0,1,0-1.31c-.48-.53-1.38,1.28-1.41-.26l-.25.77c-.14-.28-.35-.49-.58-.93-.46,0-1.53,1-1.42-.22-.15.11-1.18,0-.83.84.61.54.78-.55,1.06.59-.39-.94-.93,0-1.31.34l0-.46c-.23.17-.73,0-.88.54a.53.53,0,0,0-.07-.7l-.25.7c-.9.31-.17-1.25-1-1.07l.67-.53c-.14.12-.42-.56-.85-.34-.18.64-.49,1.41-.63,1.9-.48.28-.21-.72-.69-.07l.63-.76c.1-.21-.41-1.07-1.07-1.06-.43.21-1.05,1.16-.4,1.5a.58.58,0,0,1-.53-.84c-.73.24.11.69-.51,1.1-.27-.42-1.09-1-1.61-1.61l.63-1.09h-.45c.55-.88-.33-.65,0-1.57-.32-.13-.69.21-1,.46,1,1.4-.89,2-.53,3.35-1.15.43-1-3.17-2.09-1,.24.32-.25,1.38.46.93-.75-.08-.36,1.37-1.28.91.58-.61-.85-1.27,0-2.14,0,.44.56.27.7.13-.37-.47-.07-1.33-.86-1.25-.46.17-1.11.29-.93,1s.71-.18.5.62c-.89.39-1.21-.73-1.4.65.57-.18.82.57.88,1.09l-.63.41.06-.52c-1.13-.21-.18.95-1.25,1l-.65-.9c.12-.89,1.6.12,1.2-1.23-.71.06-.82.8-1.54.55.13-.14.32-.21.45-.36-.26,0-.81-1.8-1.64-.54-.45.51-.05.51,0,1-1.1.36-1.34.95-2.06,1.17,0-1-1.32.16-.71-1a1.66,1.66,0,0,0,2.35-.89c-.63-1.11.92,0,1-1.25-.93.14-1.09-1-1.38-1.78-.27,0-.46.37-.59.52,0,.74.36.66.51,1.4a2.72,2.72,0,0,0-2.41,1.41c-.42-.29-.45-1-.05-1.18a11.16,11.16,0,0,1-3.77.65c1,1-1.27.54-.55,1.41.69.14,1.4.87,1.16,1.47-.41,0-.09-.52-.31-.74-.37.75-1-.87-1.3.24,1.08-.6-.06-1.48,0-2.44-.73.68-.1-.66-.91-.5a8.77,8.77,0,0,1-2.56,1.63,2.73,2.73,0,0,0-2.12,0c-.71.21-1.41.54-1.94.63-.61-.41-.36-1.51-1-1.63-.69.1.65,1.09-.44.71l.07-.22c-.29.3-2-.54-2.17,1l.25-1.17c-.2-.09-.36.18-.52.31,0-.37-.27-.69,0-1-.67-.73-1.32.18-2,.23l.46.67c-1.2.58-2-.16-3.19.05l.08-.67-.72.34c.22-.63-.36-1.1-.77-.59.65-.5,1.26-1,1.85-1.49.46.41-.56.79-.3,1.46s1.32.43,1.49-.21c-.4-.08-.42.06-.74.29-.1-.93.51-.87.81-1.48-.21,0-.49-.26-.54,0a1.86,1.86,0,0,1,1.47-.52c-.45.37.25.57.08.83.05-.82.67-1.07,1.49-.87.65.89,1.5-.68,2.46-.54a3.61,3.61,0,0,1-1.32,1.94c.65.38.68-.06,1.34.29.24-.64.36-1.61,1.09-2.06l.11.6c.68-.4.56-1.3,1.48-1.25a24.48,24.48,0,0,0,4.37-.36l.16.59c.42-1.41,2.11-.9,2.9-1.65,1.63.27,3.2-1.24,4.19-.36a23.68,23.68,0,0,1,8-2l-.39.93c.45-.7.39.47.88.29-.65-.65.62-1,.94-1.56,1.36.59,3-.28,4.14-.91l.06.61c1.16-1.19,2.6-.18,4,0,.17.25.41.83.85.78.82-1,1.23-.87,2.43-1.42a8.32,8.32,0,0,1,3,.85c3.31-1.1,6.44.22,9.8-.07l.12.74c3.4-1,7,1.13,9.75.92l-.5,1.14a1.19,1.19,0,0,0,1.91-.81c.75.54,2.18-.14,2.49.95.79.4,1.14-.33,1.87-.34a10.71,10.71,0,0,0,4.16,1.14l-.44-.21a.51.51,0,0,0,0,.9c.77-.17,2.47,1.21,2.29-.41a38.1,38.1,0,0,0,3.65,2.19,5.55,5.55,0,0,1,2.71,3.62c.23-.41.64.14,1,.27a10,10,0,0,1,.91,3.38,8.49,8.49,0,0,0,.63,2.77c-.17.33-.72-.45-.69.35.17.45.52,0,.76.55a7.81,7.81,0,0,1-.31,4.47,21.71,21.71,0,0,0-1.12,3.73c-.06,4-1.24,8-1.93,11.77l-.27-.1c.82,1.48-1.75,2.68-.32,4-.34.23-.37,1.09-.88.75.56,1.17-1.32,2.62-.67,4.27.06-.13,0-.22-.07-.4-1,1.31-.38,2.77-1.3,4.17-.09-.18-.11-.48-.39-.59-.68.46.89,1.67-.56,1.68-.06.34.64.39.65.18-1.28,3.21-1.27,7-1.76,10.51-1.41,2.29-2.34-.4-1.79,1.8-.31.1.49.24.2.2.2.85-1.82.81-1.23,1.51.9,0,.39.46.89.6-.91,1.38-1.75,1.5-1.4,2.85l-.42-.2c.9,1.71-.16,3.17,1,4.71-1.7,7.78-2.82,15.39-4.74,22.93-2.3,7.33-3.77,14.75-6.76,22-1.66,1.41-1.68,1.54-1.8,3.6-.16-.13-.17-.26-.38-.19.91.38-.33,1.38.51,1.84-1,2.7-1.53,5.32-2.43,8.15,0-.48-.66-.94-.76-.39l.42.74h-.29c0,.41.36.95.78.67a49.39,49.39,0,0,1-3.62,10.5A96.83,96.83,0,0,0,432.92,376c-.93,1.51-1.38,4-1.82,5.81-3.06,4.85-5.76,9.21-6.82,14.85A4.84,4.84,0,0,1,422.38,392.74Z"/><path class="cls-1" d="M380.52,227.9c.12.53.72.84.14,1.45C380.65,228.89,380.4,228.32,380.52,227.9Z"/><path class="cls-1" d="M398.05,231.66c0-.15.28.15.35.22-.2.07-.32.52-.54.3C398.07,232.1,398,231.88,398.05,231.66Z"/><path class="cls-1" d="M402.45,231.08c0,.44-.82,1-1.36,1.13Z"/><path class="cls-1" d="M406.74,232.09c.4.3.34.52-.11.59C406.56,232.46,406.68,232.32,406.74,232.09Z"/><path class="cls-1" d="M406.84,231.06c.32-.07.53.15.72.37C407.49,231.06,406.86,231.8,406.84,231.06Z"/><path class="cls-1" d="M415.23,231.31c.2,0,.61-.43.81,0C415.82,231,415.12,232,415.23,231.31Z"/><path class="cls-1" d="M419.05,230.53c.13,0,.18.12.32,0,.23.21,0,.52-.2.56Z"/><polygon class="cls-1" points="454.85 264.81 454.74 264.33 455.14 264.49 454.85 264.81"/><path class="cls-1" d="M447.26,296.87c.16.5-.47.2-.55.25C446.76,296.72,447.19,297.4,447.26,296.87Z"/><polygon class="cls-1" points="444.84 314.62 444.87 314.49 445.72 314.77 444.84 314.62"/><path class="cls-1" d="M455.89,276.36c-1,.6.85.5-.56.59C455.34,276.57,455.45,276.24,455.89,276.36Z"/><path class="cls-1" d="M427.48,421.74c1.1-4.13,6.2-5.63,8-9.45.27-.39.78,1,1.33,0a14.13,14.13,0,0,1,4.44-5.42,39.22,39.22,0,0,1,6.46-4.27l0,.45c.82-.44.77-2,1.55-2.59.17.16,0,.45.41.53-.34-.67,1-1.43.88-2.1.46-.07.83.35,1.39.23l-.2-1c-.32-2.42,2.65-2.52,3.36-4.68.07.2,0,.45.28.46,1.48-3.15,4.45-6,6.64-9,.11.3.4.76.78.82-.5-.72.12-1.69.67-2.52.95.27.57-1.77,1.72-2.28l.07.2c-.09-1.24,1.24-.58.9-1.83l.87.06c-.66-1.1,1.3-.48,1.31-1.42l-.2-.16c.22-.69.91-.53,1.17-1.13l.15.06c.72-1.29,1.79-1.45,1.06-2.07.91.14-.68,1.27.68,1.43,2.49-4.15,5.8-7.75,9-11.35.65-.16,1-.34,1.32-.2.17-.48,1-1.47.94-2.13-.09.14.58.09.78-.08.83-.43-.2-1.41.75-1.86a.75.75,0,0,0,.45.89c0-1.11.75-1.86,1.19-2.76,0,.22-.05.46.2.63,0-1.35,1.38-1.36,1.56-2.41l.2.62c1.48-.7-.61-1.08.53-1.8-.07.34.17.4.31.59,0-1.56,1.49-2.84,2-4,0,.1.15.18.15.18.72-1.09,1.82-1.95,2.38-3.34.52-.24,1,1,1.66-.21-.9-.66,1.12-2.11-.38-2.26.88-.8,2.39-2,2.57-2.84,0,.68,1.42.39.89,1.22l1-.16c.29.37-.59.5,0,.67.27-.41.81-1.81,1.22-2.05,0-1.14-.46-2.58.33-3.83-.08.82,1.21.45,1.07.94l-.42-2.93c.26-.42.77.46,1-.28-.26-.15-.21-.5-.26-.82.21-.07,1-1.77,2-1.27.48.09-.3.77.34.58.54-.73.26-1,.79-1.72l.13.08c.49-.38.69-1.69-.19-1.54-.27.31.62.27,0,.57a3,3,0,0,1,.77-2.39c0,.35.21.5.38.78a11,11,0,0,1,1.13-4c-.41-.33.45,1,.11,1,1.62-1,1.34-3.47,3-4-.06.25-.67-.33-.54-.26.54-.63,1.13-.16,1.22-.76.39.22.29-.64.51-1.17-.09-.43.26,0,0,.43.15-.86,1.43-3.78,3-4.86-.26-.14-.23-1.53,0-1.84l.46.53c.56-.07.77-1.16,1.29-.87-.16-1.2-1.42,3.17-1.25,1.83.65.08.09-2,.7-1.24.48-.68.31-1.79,1.29-2.07-.22.13.39,1.1.73.53.58-1-.07-.47.29-1.39l.12-.66c-.53-.41.68-.81-.19-.88.54.2.71-1.6,1.55-.87l.62.64c.24-.46-.28-1.22-.36-1.77a.58.58,0,0,1,.42.08c-1-.82.79-.93.29-2,1-.62,1.6-2.21,2.57-2.15.14-.91.15-1.81.92-2.43,0,.23-.12.46.09.67.66-.27.45-.59.57-1.16.1.21,1.3-.54,2.06-.82.13-.91-.63-1.07-.95-1.39,1.52.11.59-2.39,2.1-2.5,0,.33-.13,1.35.53,1,1.51.11,0-1.79,1.23-2.44l-1.07-.36c.86-.07.45-1.83,1.31-1.11-.11-.56,1.08-1,.11-1.47,1.83-1.18,2.16-4.34,4.42-4.34,0-.33.55-.83,0-1-.76.07,0,.78-.44.71.11-.23-.11-.44-.22-.54.55-.39.87-.75,1.3.21,1.3-.8-.76-2.16.54-3.4.33.3.54.28.75-.19l-.13-1.23c.74-.86,1.19,0,1.84.36.21-.58.63-1.19.3-1.72l1.18-.12c-.86.09-.12-.66-.13-1V282c.33.07.53-.63.64-1-.44-.17-1,.34-1.29.6-.12-.44.2-.81.08-1.36.56.5,1-.56,1.28-.93s-.23-.87-.13-1c.34.19.53-.73.76-.09,0,.23-.54.17-.42.61.43-.16,1,.22,1-.67,0-.67-1.31-.63-.35-1.3,0,.33.23.53.34.85l.85-.66-.54-.38c.21,0,.21.08.32.08-.43-.63.62-1.42,0-2,.19-.45.9-.64,1.2-1v.11a1.38,1.38,0,0,0,.53-1.69l.12.09a1.65,1.65,0,0,0,.17-1.4c.75-.45,2.41.78,2-.32.27-.73-.75-1.5-1.24-1.37a3.07,3.07,0,0,0,.5-1.8,2,2,0,0,1,.67-1.6c-.27-.17-.42-.09-.58-.39a3,3,0,0,0-.39-1.92,2.38,2.38,0,0,1-.22-1.83c.44.17.56-.36.85-.61-.68.07.17-.75-.68-.18-.43.43-.67.61-.62,1a1.94,1.94,0,0,1-.52-.31,2.92,2.92,0,0,1-.48-.37,3.45,3.45,0,0,1-.42-.44,2.35,2.35,0,0,1-.24-.51c.08.35-.18.43-.41.52.51-.82-.05-1.27-.68-1.11l-.25.54a3.93,3.93,0,0,0-.15-.68c-.26.13-.53,1.14-.89.46a1.5,1.5,0,0,0,0-.64c-.69.35-1.56,1.06-2.17.52l-.52-.87c-.31.08-.8.58-.29.84-1.16-.53-2-.54-2.43-1.25a9.61,9.61,0,0,1-3.58,2.07,25.14,25.14,0,0,1-4.21,1v-.45c-.82-.24-.22.83-.79.65.15-.46-.75-.77-.29-1.4-1.15-.23-1.18,1-1.82,1.39,0,.58.47-.49.5.26-.08.22-1.54-.11-1.51.77-.34-.27-.28-.94-.22-1.32l-.54.56c-1-.82,1.38-2.18.28-3.22l-.56.27c-.77-.77,1.34-1.37-.22-1.33-.55.56-.82,1.92-.16,2.17-1.28.54-.15,2.16-1.6,2.42-.51-.41,1.12-.38.68-1-.84-.53-1.26.7-1.92.6.74.17.38,1.16,0,1.42-.82-.23.28-.92-.77-.76-.05.53-.91,1.12,0,1.27-.11,1.19-1.15-.06-1.5.94-.52-.7.63-2.06-.6-2.18.36.71-1.14,1.37-.27,2.33a.85.85,0,0,1-.48-1.22c-.75-.31-1.19,1.75-1.77.31l0,.82c-.26-.2-.59-.32-1-.65-.57.12-1.53,1.49-1.78.32-.14.17-1.42.45-.73,1.12.92.28.76-.82,1.47.15-.78-.74-1.1.41-1.48.82l-.19-.43c-.22.25-.87.31-.91.84a.45.45,0,0,0-.29-.64l-.11.76c-1,.62-.57-1.13-1.59-.65l.67-.74c-.15.16-.68-.39-1.14,0,0,.67-.2,1.52-.24,2-.53.44-.46-.62-.88.18l.58-1c.06-.24-.8-.88-1.61-.65-.45.36-1,1.47-.1,1.59-.4.12-1.07-.11-.87-.65-.86.47.3.64-.38,1.24-.43-.33-1.6-.63-2.37-1.06l.53-1.26-.55.14c.48-1-.54-.53-.39-1.51-.41,0-.78.39-1.08.72,1.49,1.09-.68,2.26,0,3.44-1.39.77-1.83-2.82-2.81-.37.35.25-.09,1.44.74.79-1,.13-.26,1.46-1.5,1.26.65-.76-1.25-1-.31-2.14.05.45.75.13.89,0-.52-.38-.29-1.3-1.24-1-.55.29-1.34.55-1,1.18s.86-.34.71.5c-1.08.6-1.61-.45-1.69,1,.69-.32,1.1.38,1.24.88l-.75.56v-.54c-1.45.07-.13,1-1.47,1.27l-.91-.76c.06-.91,2-.22,1.37-1.48-.86.2-.94,1-1.85.87.15-.17.38-.28.52-.45-.32.05-1.17-1.63-2.07-.22-.5.6,0,.53.13,1-1.32.59-1.57,1.23-2.42,1.58-.13-1-1.58.4-.93-.9a2.34,2.34,0,0,0,2.78-1.34c-.87-1,1.12-.17,1.05-1.43-1.11.31-1.41-.84-1.82-1.53-.32.05-.52.46-.67.63.1.74.49.6.74,1.32a3.84,3.84,0,0,0-2.8,1.86.66.66,0,0,1-.15-1.17,17,17,0,0,1-4.42,1.34c1.27.84-1.45.77-.53,1.52.83,0,1.73.61,1.49,1.25-.48.08-.15-.5-.42-.68-.38.81-1.25-.7-1.49.48,1.19-.81-.21-1.47-.27-2.44-.78.82-.17-.65-1.11-.33a12.87,12.87,0,0,1-2.81,2.17c-1.62-.38-3.36,1.17-4.53,1.62-.78-.23-.72-1.38-1.45-1.3-.78.31,1,.86-.36.83l0-.24c-.26.36-2.38.11-2.2,1.66l0-1.21c-.25,0-.36.31-.5.49-.13-.35-.51-.58-.24-.94-1-.48-1.46.68-2.23,1l.74.44c-1.14,1-2.27.72-3.47,1.43l-.21-.64-.62.67a.56.56,0,0,0-1.1-.12l1.4-2.3c.7.16-.32,1,.27,1.46s1.63-.2,1.59-.87c-.48.11-.45.25-.72.61-.48-.81.22-1,.35-1.75-.23.13-.67,0-.62.29a2.54,2.54,0,0,1,1.54-1.17c-.4.54.5.43.39.75-.23-.78.43-1.31,1.49-1.46,1,.63,1.62-1.24,2.85-1.41a4.49,4.49,0,0,1-1.11,2.35c.85.13.78-.32,1.64-.18a3.45,3.45,0,0,1,.85-2.38l.26.56c.73-.59.43-1.44,1.56-1.66,1.94-.38,3.84-1,5.27-1.44l.25.55c.36-1.5,2.46-1.34,3.34-2.24,2-.05,3.74-1.84,5-1.13a40.9,40.9,0,0,1,9.12-3.54l-.31,1c.41-.8.53.37,1.08.07-.88-.48.55-1.12.81-1.76,1.68.23,3.38-1,4.53-2l.22.57c1-1.48,2.9-.94,4.61-1.22.26.19.71.67,1.19.47.65-1.19,1.15-1.24,2.32-2.19a11.94,11.94,0,0,1,3.7-.29c3.34-2.27,7.32-2.28,11-4l.43.64a10.5,10.5,0,0,1,2.78-1.29,21.48,21.48,0,0,1,3.11-.72c2.19-.35,4.34-.46,6.17-.92l-.29,1.24c1.11.31,2.56-.37,2.29-1.23,1.15.39,3.1-.43,3.75.74,1.2.42,1.67-.22,2.83-.08.64.35,1.16.6,1.65.88s.91.51,1.34.74.86.52,1.34.8,1,.67,1.57,1.11l-.5-.53c-.42,0-.76.38-.29.89.53.18,1.09,1,1.61,1.49s.86.81,1.16-.06c.6,1.52,1.51,3.1,2.09,4.87a6.47,6.47,0,0,1,0,4.92c.42-.21.44.5.67.84-.33,2.55-1.88,4.49-1.91,6.32-.31.24-.42-.76-.79,0-.06.53.48.22.42.89a10.39,10.39,0,0,1-2.39,4.38l-1.5,1.73a10.74,10.74,0,0,0-1.2,1.73c-1.89,4.52-4.87,8.61-7.31,12.56l-.21-.2c.09,1.91-2.94,2.43-2.2,4.39-.43.16-.87,1.11-1.19.57,0,1.47-2.55,2.46-2.71,4.5.11-.12.12-.23.12-.46-1.54,1.14-1.7,3-3.24,4.21,0-.23.12-.57-.09-.78-.87.29,0,2.14-1.34,1.68-.23.35.42.65.53.41-2.83,3.11-4.63,7.27-6.87,11-2.51,2-2-1.23-2.63,1.37-.34,0,.36.43.1.29-.24,1-2.15.27-1.93,1.24.86.29.13.64.55,1-1.57,1.21-2.43,1-2.78,2.66l-.3-.37c0,2.2-1.76,3.41-1.46,5.48-2.81,4-5.44,7.94-8.17,11.8-1.36,1.94-2.7,3.89-4.08,5.8s-2.83,3.78-4.29,5.65c-6.12,7.1-11.6,14.49-18.48,21.12-2.38.86-2.47,1-3.75,3.14-.08-.21,0-.35-.25-.35.64.75-1.09,1.34-.55,2.14-2.49,2.49-4.47,5.07-7,7.7.31-.49-.08-1.25-.5-.71l0,.94-.28-.1c-.22.44-.21,1.14.35,1a53.36,53.36,0,0,1-4.53,5.07c-1.62,1.58-3.3,3.08-5,4.56-3.36,3-6.86,5.79-9.93,9-1.78,1.2-3.68,3.56-5.21,5.28-2.93,1.87-5.64,3.7-8.25,5.66a43.24,43.24,0,0,0-7.24,6.81A5.3,5.3,0,0,1,427.48,421.74Z"/><path class="cls-1" d="M457.12,275.78c.4.37,1.23.33.89,1.17C457.77,276.55,457.2,276.22,457.12,275.78Z"/><path class="cls-1" d="M478.49,273.34c0-.14.35.1.44.15-.24.12-.33.59-.6.41C478.56,273.78,478.45,273.58,478.49,273.34Z"/><path class="cls-1" d="M483.63,271.94c.06.45-.91,1.13-1.53,1.39Z"/><path class="cls-1" d="M488.88,272.16c.52.23.47.45-.08.62C488.69,272.57,488.83,272.4,488.88,272.16Z"/><path class="cls-1" d="M488.92,271.11a1,1,0,0,1,.93.23C489.72,271,489,271.85,488.92,271.11Z"/><path class="cls-1" d="M499.55,269.26c.24-.1.67-.61,1-.2C500.23,268.8,499.54,269.93,499.55,269.26Z"/><path class="cls-1" d="M504.16,267.28c.17,0,.25.05.4-.12.33.12.12.51-.11.62Z"/><polygon class="cls-1" points="528.14 297.38 528.27 296.81 528.58 297.12 528.14 297.38"/><path class="cls-1" d="M505.07,330c-.11.59-.56.05-.66.08C504.66,329.68,504.73,330.56,505.07,330Z"/><polygon class="cls-1" points="493.5 348.37 493.6 348.23 494.26 348.83 493.5 348.37"/><path class="cls-1" d="M315,261.1c1.09.23-.24-.93.8,0C315.52,261.32,315.22,261.49,315,261.1Z"/><path class="cls-1" d="M333.78,410.31a3.94,3.94,0,0,1-1.18.79,4.33,4.33,0,0,1-1.43.28,5.52,5.52,0,0,1-1.51-.13,10.25,10.25,0,0,1-1.5-.44c-2-.73-3.73-1.89-5.78-2.27-.44-.16.75-1-.27-1.29-2.06-.24-4.14-1.62-6-3.32a37.89,37.89,0,0,1-5-5.74l.43-.11c-.54-.73-2.1-.45-2.74-1.15.14-.19.44-.08.47-.47-.62.42-1.53-.76-2.17-.58-.12-.44.25-.86.06-1.4l-.91.32c-2.34.63-2.77-2.29-5-2.72.19-.09.44-.09.42-.33-3.28-1-6.36-3.67-9.49-5.53.28-.13.71-.47.73-.85-.65.57-1.67.06-2.54-.4.18-1-1.81-.37-2.42-1.45l.2-.09c-1.23.21-.67-1.18-1.88-.72v-.87c-1,.75-.58-1.25-1.51-1.17l-.13.21c-.71-.16-.6-.85-1.21-1.06l0-.15c-1.32-.6-1.57-1.65-2.12-.87.07-.91,1.31.56,1.36-.8-4.31-2.07-8-5.11-11.77-8-.18-.63-.37-.94-.24-1.3-.49-.14-1.48-1-2.12-.88.13.08.08-.57-.07-.77-.42-.83-1.41.18-1.84-.77a.75.75,0,0,0,.9-.44c-1.1,0-1.81-.8-2.67-1.28.22,0,.45.07.64-.17-1.35-.11-1.23-1.45-2.23-1.75l.63-.13c-.49-1.53-1.15.48-1.71-.74.34.11.43-.11.63-.22-1.56-.21-2.52-2-3.5-2.72a.3.3,0,0,0,.22-.09c-.87-1-1.39-2.27-2.51-3.25-.06-.58,1.23-.57.36-1.63-.94.63-1.57-1.77-2.25-.44-.44-1.13-.94-3-1.62-3.49.62.28,1-1.12,1.48-.3l.27-1c.46-.11.2.74.61.27-.26-.4-1.27-1.46-1.29-1.92-1-.51-2.51-.72-3.24-2,.68.44,1-.86,1.32-.52l-2.77-1c-.24-.43.76-.45.21-1-.25.15-.54-.06-.84-.16,0-.22-1.05-1.74-.13-2.37.31-.36.52.64.67,0-.36-.81-.72-.7-1.08-1.52l.13-.07c-.08-.6-1.11-1.41-1.42-.59.13.39.55-.4.49.28-.75-.13-1.32-1-1.68-1.83.29.21.54.06.87.06a10.58,10.58,0,0,1-2.85-2.93c-.49.18,1.06.09.89.38,0-1.86-2.32-2.87-1.9-4.6.18.18-.63.4-.51.33-.25-.79.46-1.05,0-1.44.4-.22-.38-.57-.72-1-.41-.15.14-.22.38.21-.65-.57-2.47-3.18-2.53-5.09-.26.14-1.41-.62-1.53-1l.7-.1c.24-.51-.57-1.27,0-1.54-1.1-.51,1.92,2.88.88,2,.42-.5-1.63-1.13-.67-1.24-.33-.76-1.35-1.22-1-2.2,0,.26,1.12.28.84-.32-.54-1.06-.43-.2-1-1l-.48-.46c-.64.2-.3-1-.84-.34.46-.33-.93-1.48.15-1.76l.87-.16c-.25-.45-1.16-.45-1.66-.69.06-.09.17-.28.32-.31-1.28.39-.32-1.18-1.5-1.39.07-1.17-.91-2.57-.29-3.33-.65-.64-1.35-1.2-1.39-2.18.18.14.3.37.59.32.17-.69-.21-.71-.59-1.15.23.05.35-1.36.59-2.13-.63-.65-1.23-.16-1.67-.1,1-1.12-1.53-1.94-.68-3.21.26.22,1,.94,1.09.19,1-1.11-1.41-1.13-1.15-2.48l-1,.61c.49-.72-1.12-1.53,0-1.74-.5-.27-.07-1.47-1-1,.27-2.15-1.84-4.54-.32-6.22-.24-.23-.25-1-.74-.68-.46.61.58.53.23.8-.1-.24-.39-.22-.54-.21.07-.66,0-1.15,1-.8.28-1.48-2.1-.94-2.11-2.76.45,0,.58-.19.4-.67l-1-.79c-.09-1.15.83-.85,1.55-1-.27-.56-.39-1.29-1-1.44l.77-.92c-.56.67-.54-.4-.77-.64l.23.24c.29-.17,0-.81-.2-1.14-.44.17-.48.91-.53,1.32-.39-.24-.41-.73-.87-1.06.75,0,.32-1.08.3-1.57s-.77-.49-.77-.66c.36-.08-.09-.9.5-.57.15.17-.29.49.1.74.21-.41.86-.48.27-1.15-.45-.5-1.41.4-1.12-.76.22.26.52.26.81.43l.22-1.07-.67.07c.15-.16.22-.08.3-.16-.74-.18-.46-1.5-1.28-1.6-.15-.51.29-1.15.28-1.64l.08.08a1.65,1.65,0,0,0-.55-1.85h.15a2.16,2.16,0,0,0-.62-1.46c.4-.88,2.47-.56,1.53-1.37a1.25,1.25,0,0,0-1.76-.8c.33-1.56-.89-3.2,0-4.68-.28-.2-.44-.05-.63-.5a24.87,24.87,0,0,0-.26-3.43,6.2,6.2,0,0,1,.59-3.52c.26,1,.66.12,1,.16-.57-.83.66-.73-.33-1.21-.6-.06-.9-.23-1.2.71a7.69,7.69,0,0,1,.43-3.52,3.81,3.81,0,0,1,1.71-2.15c-.55.26-.46-.21-.28-.66.63.71,1.65-.21,2.42-1l-.21-.57c.34.06.66.11,1,.19.28-.31-.16-1.31,1.21-1.13a1.34,1.34,0,0,0,.55.5,7.17,7.17,0,0,1,1.83-1.06,4.49,4.49,0,0,1,1.14-.26,2.72,2.72,0,0,1,.57,0,1,1,0,0,1,.39.12l.67.85c.34-.09.93-.61.32-.85,1.38.51,2.27.57,2.71,1.31,2.38-1.81,5.86-1.88,8.65-1.73l-.09.44c.75.42.4-.77.92-.46-.25.42.56.92,0,1.43,1.06.47,1.38-.75,2.08-.95.11-.57-.56.37-.42-.36.12-.21,1.48.46,1.66-.41.26.35,0,1-.11,1.34l.66-.41c.79,1-1.84,1.79-1,3.06l.6-.13c.56.92-1.6,1-.1,1.34.66-.42,1.24-1.67.66-2.07,1.37-.21.67-2.07,2.14-2,.39.52-1.18.1-.91.83.68.71,1.4-.37,2-.11-.68-.34-.08-1.21.37-1.37.74.43-.51.82.55.93.19-.5,1.18-.85.34-1.22.41-1.13,1.1.35,1.71-.52.32.81-1.15,1.82,0,2.26-.16-.78,1.48-1,.89-2.17a.85.85,0,0,1,.14,1.31c.63.5,1.63-1.36,1.79.18l.26-.79c.19.27.48.47.8.92.58,0,1.91-1,1.8.21.19-.12,1.51,0,1-.85-.8-.54-1,.56-1.38-.58.54.94,1.19-.06,1.69-.35l.05.47c.29-.17.94,0,1.14-.53a.44.44,0,0,0,.09.7l.33-.69c1.18-.28.2,1.25,1.34,1.12l-.89.49c.2-.1.54.58,1.09.39.24-.63.68-1.37.9-1.85.65-.24.23.74.9.12l-.87.72c-.13.2.48,1.09,1.32,1.13.55-.18,1.46-1.05.63-1.46.43,0,1,.45.62.89,1-.15-.07-.7.79-1,.31.46,1.31,1.16,1.89,1.83l-.95,1,.57.06c-.81.79.32.69-.17,1.55.37.18.86-.09,1.26-.29-1-1.55,1.46-1.86,1.26-3.21,1.61-.22.65,3.29,2.5,1.41-.23-.37.65-1.29-.38-1,1,.26.81-1.25,1.91-.57-.92.45.76,1.44-.56,2.09.13-.43-.65-.42-.85-.31.34.55-.23,1.31.76,1.43.62-.06,1.45,0,1.41-.69s-.93,0-.45-.74c1.24-.12,1.3,1,2-.23-.78,0-.87-.78-.8-1.3l.94-.21-.24.48c1.4.54.55-.85,1.93-.52l.52,1.08c-.45.8-2-.67-1.91.75.89.19,1.28-.47,2.09,0-.21.09-.47.08-.68.18.32.09.38,2,1.81,1.08.72-.32.25-.46.34-1,1.47.05,2-.4,2.94-.31-.36,1,1.63.39.42,1.24-.37-.68-2.47-1-3.13-.08.34,1.27-1.11-.33-1.59.83,1.14.2.91,1.37,1,2.16.31.1.67-.18.87-.27.25-.71-.16-.76-.07-1.51a4,4,0,0,0,3.37-.36.66.66,0,0,1-.42,1.11,14.06,14.06,0,0,1,4.55,1c-.69-1.38,1.66.06,1.23-1-.71-.43-1.21-1.41-.68-1.85.48.18-.12.51,0,.81.76-.51.75,1.23,1.57.35-1.48.08-.58,1.37-1,2.23,1.1-.3-.19.65.79.86a12,12,0,0,1,1.75-.33,11.88,11.88,0,0,1,1.79,0c1.15,1.22,3.47.87,4.69,1.23.5.65-.23,1.54.4,1.92.81.22-.26-1.27.78-.45l-.17.17c.43-.13,1.94,1.34,2.77,0l-.72,1c.18.16.47,0,.69-.07-.11.36,0,.77-.4.88.47,1,1.54.4,2.33.65l-.28-.82c1.52,0,2.2.9,3.56,1.18l-.28.61.9-.07a.56.56,0,0,0,.71.86l-2.54.72c-.39-.58.88-.51.78-1.26s-1.35-.91-1.76-.38c.43.23.51.1.94,0-.17.92-.85.65-1.4,1.11.25,0,.49.43.64.17a2.43,2.43,0,0,1-1.88-.09c.64-.15-.09-.64.19-.82-.33.75-1.14.73-2,.18-.37-1.16-2,0-3-.58a4.23,4.23,0,0,1,2.26-1.22c-.58-.61-.79-.22-1.38-.83-.52.48-1,1.31-2.06,1.39l.12-.6c-.92.06-1.16.9-2.17.46a42.06,42.06,0,0,0-5-1.65l.08-.6c-1.07,1.1-2.71-.09-3.89.25-1.68-.95-4-.14-4.76-1.35a57.76,57.76,0,0,1-9.44-.59l.66-.82c-.67.58-.33-.55-.94-.49.6.78-.91.82-1.38,1.31-1.42-.83-3.42-.24-4.78.26v-.62c-1.42,1-2.94-.06-4.6-.36-.18-.27-.45-.86-1-.82-1,.92-1.43.84-2.79,1.39a12.4,12.4,0,0,1-3.51-.78c-3.7,1.25-7.42.28-11.24,1.08l-.27-.72c-3.71,1.49-8.26.1-11.44.89l.3-1.22c-1-.37-2.26.33-2,1.19a2,2,0,0,0-.82-.08l-.41.06a.8.8,0,0,0-.17.06c-.18.08-.31.08-.58-.41-.49-.16-.25.63-.34.86-.83-.17-1,.35-.82,1l.09-.1c-.25-.17-.75-.43-.86-.26.28.38-.37,1,1.09.89-.11,0-.17.12-.21.35a5.57,5.57,0,0,0,0,.82c0,.55.12,1.12.2,1.69a5.61,5.61,0,0,1-.18,3.26c.38-.19.5.29.78.47.15,1.72-.56,3.62.31,4.92-.16.3-.72-.36-.68.35.2.4.52-.05.8.43,1,2.69,0,5.75.63,8.27,1.63,4.36,2.24,9.09,3.57,13.32l-.29,0c1.44,1.13-.17,3.67,1.79,4.33-.17.41.25,1.32-.36,1.23,1.07.9.28,3.39,1.76,4.71,0-.16-.11-.22-.28-.36-.09,1.85,1.24,3,1.3,4.93-.18-.13-.38-.42-.68-.37-.29.85,1.72,1.17.52,2,.14.38.76,0,.64-.19.82,4,3.2,7.69,5,11.47.34,3.1-2.14,1.05-.27,2.86-.18.29.55-.07.29.07.71.71-.93,1.93,0,2.24.7-.57.61.21,1.1,0,.18,1.92-.4,2.57.77,3.67l-.47.07c1.84,1.09,2,3.18,3.91,3.94,2,4.28,4,8.53,6.07,12.48a97.53,97.53,0,0,0,6.55,11,31.74,31.74,0,0,0,3.57,4.7,50.27,50.27,0,0,0,4.41,4.16c3.15,2.69,6.79,5.41,10.25,8.57,1,2.28,1.14,2.35,3.34,3.41-.2.1-.35,0-.33.28.69-.7,1.39.95,2.15.34,2.61,2.24,5.28,3.94,8.09,6.08-.51-.25-1.22.22-.65.57L296,381l-.08.29c.45.16,1.14.07,1-.46,7.56,4.71,13.29,11.58,20.34,16.66a14.84,14.84,0,0,0,2.73,2.28c.53.36,1.07.71,1.6,1s1,.58,1.41.85a21.38,21.38,0,0,0,6.37,5.25,6.69,6.69,0,0,0,3.23.74,3.24,3.24,0,0,0,2.36-1.15,3.55,3.55,0,0,1,.33,1.36,2.48,2.48,0,0,1-.26,1.3A2.56,2.56,0,0,1,333.78,410.31Z"/><path class="cls-1" d="M313.75,260.7c0-.55-.63-1.08.19-1.46C313.83,259.69,314,260.32,313.75,260.7Z"/><path class="cls-1" d="M295.47,249.72c-.05.13-.25-.26-.29-.36.26,0,.59-.33.73,0C295.65,249.31,295.64,249.54,295.47,249.72Z"/><path class="cls-1" d="M290.24,248.36c.16-.42,1.36-.56,2.05-.49Z"/><path class="cls-1" d="M285.55,245.74c-.38-.43-.23-.61.36-.52C285.92,245.46,285.7,245.55,285.55,245.74Z"/><path class="cls-1" d="M285.05,246.67c-.42,0-.58-.33-.75-.61C284.26,246.44,285.3,246,285.05,246.67Z"/><path class="cls-1" d="M274.33,244.11c-.27,0-.87.32-1.07-.19C273.5,244.29,274.59,243.48,274.33,244.11Z"/><path class="cls-1" d="M269.22,244.35c-.16,0-.23-.12-.42,0-.29-.22.05-.52.31-.54Z"/><polygon class="cls-1" points="231.03 298.91 230.66 298.46 231.09 298.41 231.03 298.91"/><path class="cls-1" d="M245.29,336.12c.46.39-.23.51-.26.61C244.8,336.3,245.6,336.69,245.29,336.12Z"/><polygon class="cls-1" points="256.46 354.68 256.37 354.54 257.17 354.13 256.46 354.68"/><path class="cls-1" d="M369.36,432.52c-.26-.78-.74.48-.38-.49C369.34,432.11,369.62,432.24,369.36,432.52Z"/><path class="cls-1" d="M364.09,436.5c.64-3.4,4.76-3.56,6.25-6.33.22-.27.63,1.08,1.08.41,1.26-3,5.55-4.48,9.09-4.93v.41c.68-.09.76-1.5,1.42-1.68.12.2,0,.39.27.6-.2-.7.9-.87.89-1.47.37.11.61.62,1.06.72l0-.89c0-2.19,2.35-1.1,3.19-2.63,0,.2,0,.39.15.51,1.56-2.11,4.32-3.18,6.56-4.63a1.67,1.67,0,0,0,.41,1.05c-.22-.82.43-1.36,1-1.78.63.68.81-1.21,1.76-1.08v.2c.22-1.08,1,.15,1.1-1.06l.62.5c-.18-1.25,1.06.28,1.32-.48l-.1-.23c.36-.45.81.06,1.16-.28l.09.12c.91-.63,1.7-.12,1.42-1,.56.64-.9.61,0,1.53a12,12,0,0,1,10.36-1c.26.49.43.72.37,1.08a3.38,3.38,0,0,1,.83.13,1.32,1.32,0,0,0,.92,0c-.12,0-.05.53.07.67.29.65,1.18-.49,1.49.3a.87.87,0,0,0-.78.56c.9-.23,1.46.38,2.12.72-.2,0-.39,0-.58.22,1.17-.06.81,1.13,1.64,1.29l-.59.15c.11,1.25,1.11-.46,1.36.53-.28-.08-.41.12-.61.22a2.23,2.23,0,0,1,1.51.87,10.1,10.1,0,0,0,1,1.26.41.41,0,0,0-.22.07c.57.79.73,1.81,1.54,2.59-.07.44-1.28.43-.71,1.25,1-.47,1.06,1.39,2,.38.15.87.22,2.28.77,2.69-.53-.22-1.15.84-1.47.21l-.46.72c-.46.08,0-.56-.52-.21.15.31.91,1.12.84,1.48.85.39,2.25.54,2.73,1.49-.57-.32-1.07.67-1.36.41l2.49.7c.17.31-.8.35-.36.74.27-.12.51,0,.79.09-.08.17.73,1.29-.25,1.79-.36.29-.41-.46-.65,0,.22.61.58.51.81,1.12l-.14.06c0,.45.86,1,1.28.4-.06-.29-.59.32-.43-.2a1.8,1.8,0,0,1,1.33,1.34c-.24-.15-.5,0-.83,0a6.72,6.72,0,0,1,2.31,2.13c.5-.16-1,0-.79-.26-.28,1.41,1.8,2.09,1.14,3.42-.15-.13.67-.33.53-.27.14.59-.59.81-.2,1.08-.4.18.3.42.56.76.37.09-.17.17-.34-.15a5.34,5.34,0,0,1,1.73,3.79c.27-.12,1.29.47,1.35.81l-.69.07c-.31.4.36,1-.2,1.25.49.23.15-.39-.22-.93s-.77-1-.32-.69c-.48.37,1.42.92.46,1,.2.61,1.12,1.06.63,1.85.07-.22-1-.33-.88.18.31.9.37.2.74.93.12.14.23.3.35.46.67-.06,0,.92.72.45-.27.09-.15.47-.11.82s0,.7-.57.65l-.88-.12c.09.42.92.71,1.3,1.12-.09.05-.27.17-.41.13.66.08.61.38.51.73s-.29.75.16,1.15a13.65,13.65,0,0,0-.81,1.72c-.28.55-.61,1-1.1,1a2.56,2.56,0,0,1-.86,2.36c0-.22.15-.44,0-.65-.66.18-.45.52-.64,1,0-.11-.37,0-.77.06a7.56,7.56,0,0,1-1.26.17c-.26.73.36,1.15.59,1.54-.68-.3-.93.15-1.23.64s-.62,1-1.26.66c.11-.28.48-1-.16-1-1.17-.82-.53,1.47-1.69,1.36l.72.86c-.7-.4-1,1.2-1.39.16-.11.49-1.14.14-.6,1.06-1.77-.18-3,1.92-4.58.53-.12.24-.66.28-.34.74.55.41.26-.58.54-.26-.16.1-.08.39,0,.53-.51,0-.86,0-.83-1-1.17-.21-.21,2.07-1.52,2.19-.12-.43-.28-.54-.59-.33l-.33,1c-.82.16-.83-.74-1.14-1.41-.35.29-.85.47-.81,1.06l-.85-.65c.62.47-.15.55-.26.8l.11-.25c-.2-.26-.58.12-.78.31.24.4.79.37,1.1.38-.07.39-.42.46-.53.93-.21-.71-.86-.2-1.21-.13s-.14.78-.26.8c-.16-.34-.61.2-.54-.41.07-.16.43.22.5-.18-.35-.15-.59-.77-.89-.11-.23.49.67,1.28-.22,1.17a3.21,3.21,0,0,0,.07-.84l-.82-.06.24.62c-.16-.11-.12-.19-.19-.26.08.74-.93.64-.76,1.43-.31.21-.89-.11-1.24,0l0-.08c-.55-.19-1,.27-1.11.83l0-.14a1.19,1.19,0,0,0-.81.83c-.74-.22-1.19-2.23-1.45-1.2-.54.26-.37,1.5,0,1.79-1.17,0-1.85,1.5-3.17.95,0,.31.12.42-.1.7-1.55.38-2.73,2-4.4,1.35.3-.44-.24-.62-.4-1-.11.7-.67-.39-.38.61.28.53.36.82.86.86-.73.68-2,1.25-2.74.94.35.15.24.4.13.65-.33-.91-1-.77-1.36-.25l.16.57-.55-.42c-.12.26.29,1.22-.44.92a1.76,1.76,0,0,0-.39-.51c-.33.66-.82,1.74-1.64,1.52l-.81-.62c-.23.19-.57.83,0,.9-1.3-.11-2.11,0-2.66-.62a5.32,5.32,0,0,1-4,1.95,9.71,9.71,0,0,1-4.88-1l.26-.36c-.54-.73-.71.5-1.09,0,.41-.25-.11-1.08.68-1.25a1.1,1.1,0,0,0-1.14-.39,2.52,2.52,0,0,1-1.18.07c-.44.4.7,0,.16.55-.11.05-.39-.27-.68-.54s-.61-.49-1-.23c0-.44.61-.77.95-.94l-.78-.12c.07-.64.71-.65,1.35-.74s1.24-.25,1.38-1l-.46-.22c.3-.95,1.59,0,.95-.95-.65,0-1.86.54-1.8,1.17-.95-.68-1.92,1.06-2.74-.05.15-.61.78.76,1.17.08.11-.91-1.08-.71-1.24-1.31.12.69-.94.8-1.29.54,0-.8.92-.11.47-.95-.5.16-1.33-.4-1.19.44-1.19.3-.26-1-1.29-1.05.56-.64,2.09-.08,1.95-1.15-.62.53-1.51-.6-2.29.4,0-.47.55-.77,1.1-.73.18-.69-1.88-.63-.54-1.43l-.8.14c.17-.26.25-.57.53-1-.16-.44-1.54-1.06-.41-1.42-.17-.1-.45-1.12-1.11-.47-.26.8.82.52-.1,1.26.68-.76-.43-.88-.85-1.17l.42-.2c-.25-.17-.32-.71-.83-.7a.5.5,0,0,0,.63-.3l-.74,0c-.6-.81,1.11-.56.68-1.36l.71.5c-.16-.11.39-.57.08-.92-.66,0-1.49-.1-2-.12-.4-.43.65-.39-.11-.72l.91.44a1.23,1.23,0,0,0,.76-1.3c-.31-.36-1.35-.77-1.56-.07a.59.59,0,0,1,.73-.67c-.36-.64-.66.23-1.17-.27.36-.33.8-1.21,1.31-1.79l1.18.39-.08-.41c1,.35.59-.4,1.54-.29.08-.3-.29-.57-.57-.79-1.26,1.1-2.14-.51-3.39,0-.58-1.06,3-1.33.76-2.1-.3.26-1.4-.1-.89.54,0-.73-1.4-.22-1-1.16.66.51,1.19-.9,2.14-.17-.44,0-.23.55-.08.66.44-.38,1.32-.19,1.18-.9-.21-.41-.34-1-1-.78s.21.64-.6.51c-.42-.82.69-1.17-.7-1.29.2.53-.54.81-1.05.9l-.43-.59.52,0c.16-1.09-1-.13-1-1.16l.9-.64c.88.09-.12,1.52,1.23,1.09-.07-.65-.8-.74-.55-1.42.14.12.21.3.35.41,0-.24,1.79-.79.56-1.52-.5-.4-.51,0-1,0-.33-1-.91-1.24-1.1-1.9,1,0-.09-1.2,1.06-.62-.54.43-.23,1.93.79,2.13,1.13-.58,0,.84,1.22.85-.12-.83,1.06-1,1.81-1.25,0-.24-.35-.41-.49-.52-.74,0-.68.32-1.42.46a2.33,2.33,0,0,0-1.3-2.17c.31-.36,1-.38,1.18,0a8.44,8.44,0,0,1-.41-3.33c-1.08.85-.45-1.12-1.36-.52-.19.6-1,1.21-1.54,1,0-.37.52-.07.75-.25-.71-.36.94-.85-.14-1.14.52,1,1.47,0,2.43,0-.63-.65.66-.06.56-.77a7.14,7.14,0,0,1-1.45-2.26c.75-1.12-.3-2.56-.45-3.46.42-.53,1.51-.33,1.64-.86-.09-.6-1.09.57-.71-.37l.22.06c-.28-.24.54-1.7-1-1.8l1.17.15c.09-.17-.19-.3-.33-.43.38,0,.69-.27,1,0,.73-.63-.25-1.14-.34-1.73l-.63.45c-.63-1,0-1.72-.35-2.68l.67,0-.45-.55c.65.09,1-.48.46-.75l1.75,1.38c-.35.46-.84-.39-1.47-.07s-.29,1.18.36,1.26c0-.35-.1-.36-.37-.6.92-.2.93.33,1.57.53-.06-.18.2-.46-.1-.47a1.47,1.47,0,0,1,.67,1.26c-.4-.37-.55.27-.83.14.82,0,1.12.51,1,1.27-.88.62.74,1.31.58,2.18a3.81,3.81,0,0,1-1.95-1.11c-.36.58.08.6-.27,1.18.64.19,1.6.27,2.05.92l-.6.11c.37.59,1.27.48,1.2,1.3a24.69,24.69,0,0,0,.12,3.86l-.6.12c1.37.4.75,1.87,1.44,2.56-.38,1.42,1,2.78.1,3.63a25.5,25.5,0,0,1,1.9,6.64l-.95-.24c.72.31-.45.38-.24.78.6-.62,1,.41,1.61.6-.46,1.2.55,2.42,1.36,3.23l-.59.16c1.33.74.57,2,.7,3.18-.21.19-.72.55-.55.86,1.12.33,1.14.66,2,1.3a6.5,6.5,0,0,1,.26,2.37,11.39,11.39,0,0,1,2.4,2.51,3.67,3.67,0,0,0,2.24,1.61l-.29.66a5.42,5.42,0,0,1,2.5.13,3,3,0,0,0,2.43-.47l.15,1.23c.66.22,1.21-.71.78-1.47.68.16,1.2-1.09,2-.33.73-.06.57-.85,1.06-1.24a5.84,5.84,0,0,0,3.19-1.26l-.34.07c0,.31.16.79.51.72.34-.52,1.89-.46.83-1.59,1.71.17,2.92-2,4.7-1.56-.27-.32,0-.54.07-.85,1.19-.54,2.78-.34,3.47-1.38.27.1,0,.75.47.58.23-.27-.2-.48.07-.84,1.64-1.53,4.24-1,5.93-2,2.84-2.08,6.28-3.15,9.24-4.59l.08.29c.57-1.47,2.83,0,2.82-1.84.34.15.84-.26.94.32.17-.53.72-.59,1.26-.72s1.09-.31,1.18-1c-.08,0-.09.1-.1.26a1.36,1.36,0,0,0,1.12-.62,1.51,1.51,0,0,1,.88-.7,1.07,1.07,0,0,0,.25.51c.3.06.2-.29.12-.53s-.09-.39.55-.09c.07-.15-.56-.45-.56-.36a2.11,2.11,0,0,0,.58-2.19,17.16,17.16,0,0,0-1.13-3.15c.17-1,.7-1.23,1.06-1.3s.49-.05-.26-.66c.22-.21-.54.08-.27,0-.57-.47,1.18-1.45.33-1.65-.76.46-.56-.14-1.07,0,.1-1.46.75-2-.22-2.76l.46-.07c-1.63-.76-1.44-2.35-3.19-2.87-1.25-3.21-2.61-6.3-3.94-9.38s-2.57-6-3.86-8.46a11.37,11.37,0,0,0-3.92-5.23,7.13,7.13,0,0,0-2.13-.95,13.88,13.88,0,0,0-3-.36c-1.31-1-1.5-.94-2.73-.1,0-.2.08-.27-.07-.42.21.95-1,.39-.82,1.33a15.9,15.9,0,0,0-3,1.1l-3.22,1.48c.31-.25.17-1.07-.23-.82l-.19.77-.18-.22c-.23.26-.35.84.07,1a48.28,48.28,0,0,1-8.35,3.79,40.7,40.7,0,0,0-8.25,3.89c-1.45.4-3,1.82-4.18,2.85-4.59,1.44-8.68,3.14-11.82,6.83C364,440.57,362.87,438.21,364.09,436.5Z"/><path class="cls-1" d="M369.53,433.47c-.48.2-.7.78-1.39.39C368.59,433.77,369.09,433.44,369.53,433.47Z"/><path class="cls-1" d="M366.14,448.94c.14,0-.17.25-.25.3-.06-.18-.49-.29-.26-.47C365.69,449,365.92,448.89,366.14,448.94Z"/><path class="cls-1" d="M366.41,452.83c-.44,0-.91-.76-1-1.24Z"/><path class="cls-1" d="M365.22,456.7c-.31.38-.53.33-.58-.1C364.86,456.53,365,456.65,365.22,456.7Z"/><path class="cls-1" d="M366.25,456.79c.06.29-.17.49-.39.67C366.23,457.39,365.51,456.81,366.25,456.79Z"/><path class="cls-1" d="M366.47,464.79c.07.18.51.51.07.78C366.83,465.31,365.81,464.78,366.47,464.79Z"/><path class="cls-1" d="M367.89,468.28c0,.13-.06.2.09.32-.14.28-.51.11-.6-.08Z"/><polygon class="cls-1" points="427.94 467.64 427.65 468.04 427.51 467.63 427.94 467.64"/><path class="cls-1" d="M430.87,438.26c-.38-.27.3-.39.34-.47C431.37,438.11,430.66,437.85,430.87,438.26Z"/><polygon class="cls-1" points="423.61 424.32 423.67 424.43 422.83 424.74 423.61 424.32"/><path class="cls-1" d="M466.93,376.14c-.9.72.92.37-.48.65C466.41,376.41,466.47,376.07,466.93,376.14Z"/><path class="cls-1" d="M469.56,477.32c2.92-3.15,8.17-2.3,11.55-4.92.41-.24.26,1.23,1.18.61,3.13-2.87,9.21-3.85,14.12-4.18l-.15.43c.94-.06,1.57-1.54,2.52-1.71.09.22-.17.42.15.64,0-.74,1.51-.89,1.7-1.53.45.13.61.67,1.18.8l.23-.95c.76-2.32,3.5-1.14,5.09-2.79,0,.21-.16.41.05.53,2.71-2.24,6.68-3.48,10-5.17a1.21,1.21,0,0,0,.33,1.08c-.12-.86.88-1.46,1.75-2,.72.67,1.32-1.34,2.59-1.29l0,.22c.49-1.16,1.38.05,1.66-1.22l.75.45c-.07-1.28,1.39.17,1.84-.66l-.11-.23c.53-.52,1.07-.06,1.58-.47l.11.11c1.25-.81,2.29-.46,1.92-1.35.75.55-1.2.82-.06,1.59,4.16-2.59,8.86-4.12,13.39-5.81.65.17,1,.16,1.26.46.38-.35,1.64-.8,1.88-1.41-.14.07.47.35.72.31,1,0,.54-1.33,1.59-1.26a.75.75,0,0,0,0,1c.51-1,1.59-1.26,2.42-1.82-.09.2-.28.38-.14.65.71-1.17,1.88-.51,2.57-1.34l-.13.65c1.64.11,0-1.25,1.37-1.32-.23.27-.06.44,0,.67.79-1.37,2.74-1.74,3.76-2.47a.35.35,0,0,0,0,.23c1.2-.58,2.6-.76,3.79-1.68.58.05.32,1.34,1.55.65-.44-1,2-1.29.8-2.16,1.16-.26,3-.62,3.56-1.3-.3.61,1.1,1,.25,1.5l1,.28c.09.46-.77.2-.31.61.45-.25,1.57-1.3,2.05-1.36.51-1.05.6-2.55,1.71-3.44-.34.73,1,.8.72,1.22a27.19,27.19,0,0,0,.39-2.9c.34-.32.63.63,1,0-.22-.2-.11-.53-.11-.83.23,0,1.18-1.46,2.1-.87.46.15-.38.71.27.61.61-.66.36-.93.91-1.61l.13.08c.51-.35.69-1.63-.17-1.5-.27.29.61.29,0,.55a2.91,2.91,0,0,1,.65-2.29c0,.33.25.47.43.74a14.07,14.07,0,0,1,.63-3.89c-.45-.27.6.87.26.91,1.46-1.13.67-3.5,2.19-4.34,0,.25-.73-.19-.59-.14.39-.72,1.07-.39,1-1,.44.12.14-.68.22-1.24-.2-.39.25-.06.12.41a9.11,9.11,0,0,1,.35-2.47,7.87,7.87,0,0,1,1.22-2.92c-.29-.06-.69-1.36-.53-1.72l.6.35c.52-.23.35-1.3.92-1.2-.29-.54-.32.31-.38,1.13s-.08,1.61-.2.95c.64-.12-.54-1.88.28-1.36.2-.79-.33-1.75.5-2.32-.17.18.74.89.87.24.19-1.16-.23-.41-.22-1.37l-.14-.64c-.64-.19.33-1-.5-.73.6,0,0-1.68,1.08-1.35l.83.34c0-.51-.75-1-1.05-1.44a.6.6,0,0,1,.42-.09c-1.28-.31.32-1.15-.62-1.89.64-.94.37-2.55,1.25-2.95-.31-.83-.77-1.56-.44-2.43.12.18.15.43.43.49.42-.54.08-.7-.11-1.22.21.12.79-1.1,1.25-1.75-.4-.79-1.12-.49-1.56-.56.67-.37.42-.92.15-1.46s-.55-1.1,0-1.6c.2.24.72,1.07,1,.39,1.27-.87-1.15-1.33-.66-2.53l-1,.44c.63-.61-.92-1.48.2-1.58-.46-.29.09-1.38-.93-1a5.67,5.67,0,0,0-.53-3,2.67,2.67,0,0,1,.08-2.74c-.28-.16-.4-.84-.83-.48-.36.63.65.37.34.68-.13-.2-.42-.12-.56-.08,0-.61-.14-1.06.89-.94,0-.73-.53-.84-1.12-.95s-1.27-.19-1.5-1c.42-.17.5-.36.2-.72l-1.09-.35c-.38-1,.5-1.05,1.13-1.5-.46-.38-.86-1-1.46-.82l.32-1.13c-.22.82-.64-.09-.94-.19l.31.1c.18-.29-.37-.7-.69-.86a.73.73,0,0,0-.08.66c0,.25.14.51.19.7-.42,0-.62-.42-1.19-.42.64-.4-.24-1-.49-1.37s-.86.05-.94-.07c.26-.29-.52-.64.12-.74.21,0,0,.55.45.52,0-.44.45-.89-.37-1.06-.65-.08-.88,1.15-1.32.17.32,0,.56-.15.89-.22L577,372l-.47.48c0-.21.12-.2.13-.3-.66.35-1.22-.77-1.87-.28-.38-.26-.52-.94-.84-1.27h.11a1.39,1.39,0,0,0-1.61-.73l.1-.11a1.59,1.59,0,0,0-1.41-.35c-.4-.81,1.06-2.3-.12-2a1.21,1.21,0,0,0-1.59,1,4.06,4.06,0,0,0-1.94-.94,2.81,2.81,0,0,1-1.75-1.26c-.29.17-.24.37-.68.37a14.72,14.72,0,0,0-3-1,4,4,0,0,1-2.55-1.47c.66-.09.22-.63.31-1-.64.42-.43-.77-.87.18-.11.6-.23.85.27,1.25-1.29,0-3.11-.42-3.67-1.14.28.36,0,.46-.32.59.29-.92-.61-1.23-1.36-1l-.2.56-.34-.67c-.3.13-.51,1.15-1.09.47a1.39,1.39,0,0,0-.1-.65c-.8.35-1.92,1.05-2.63.45l-.53-.94c-.35.05-1,.49-.41.81-1.27-.67-2.15-.77-2.51-1.55-2.48,1.57-5.78,1.57-8.48,1.47l.07-.43c-.73-.41-.36.76-.87.47.23-.43-.58-.89,0-1.43-1.07-.41-1.33.82-2,1.05-.08.58.53-.39.43.35-.11.21-1.46-.39-1.57.49-.28-.33-.12-1,0-1.34l-.61.46c-.86-1,1.69-1.92.79-3.13l-.6.17c-.64-.89,1.55-1.1,0-1.35-.64.47-1.12,1.79-.51,2.12-1.35.35-.48,2.13-1.94,2.17-.44-.48,1.15-.21.82-.91-.74-.65-1.35.5-2,.3.71.28.21,1.2-.21,1.39-.77-.35.41-.86-.65-.86-.12.52-1,1-.18,1.26-.26,1.18-1.11-.2-1.58.74-.43-.76.87-2-.32-2.24.27.76-1.29,1.2-.56,2.28a.87.87,0,0,1-.32-1.28c-.7-.41-1.37,1.58-1.77.09l-.12.81c-.23-.22-.55-.38-.93-.76-.57.07-1.66,1.31-1.78.12-.17.14-1.46.29-.84,1,.87.37.83-.73,1.43.32-.69-.83-1.12.27-1.53.65l-.15-.44c-.24.22-.88.22-1,.75a.45.45,0,0,0-.23-.67l-.17.74c-1,.53-.46-1.17-1.51-.79l.73-.68c-.16.15-.64-.44-1.12-.14-.09.67-.33,1.49-.41,2-.55.39-.4-.66-.87.1l.63-.91c.08-.23-.71-.94-1.53-.76-.47.32-1.09,1.38-.21,1.57-.4.09-1.05-.19-.82-.71-.87.4.26.65-.45,1.2-.41-.37-1.53-.73-2.28-1.2l.6-1.24-.55.12c.53-1-.51-.56-.29-1.54-.42,0-.81.35-1.13.66,1.43,1.17-.8,2.22-.17,3.44-1.4.68-1.69-2.92-2.76-.51.34.27-.14,1.43.7.82-1,.1-.3,1.45-1.52,1.19.67-.73-1.21-1.08-.24-2.14,0,.45.74.16.89,0-.51-.39-.25-1.31-1.21-1.06-.55.27-1.35.5-1,1.13s.87-.3.69.53c-1.09.55-1.58-.48-1.7.94.7-.31,1.08.39,1.21.9l-.75.54,0-.53c-1.43,0-.14,1-1.47,1.23l-.89-.78c.08-.91,2-.17,1.39-1.45-.87.19-1,.95-1.85.83.14-.17.37-.27.52-.44-.31.05-1.16-1.66-2.05-.24-.5.6,0,.53.11,1-1.3.58-1.54,1.21-2.38,1.56-.14-1-1.56.41-.93-.9a2.29,2.29,0,0,0,2.75-1.32c-.85-1,1.11-.18,1.06-1.44-1.11.31-1.4-.84-1.81-1.53-.33,0-.53.46-.67.63.09.74.48.6.73,1.32a3.67,3.67,0,0,0-2.78,1.86.66.66,0,0,1-.17-1.17,17.75,17.75,0,0,1-4.39,1.43c1.29.79-1.41.84-.47,1.54.82,0,1.73.55,1.52,1.2-.47.1-.17-.5-.44-.67-.35.83-1.26-.64-1.46.54,1.15-.85-.26-1.46-.36-2.43-.75.85-.19-.64-1.13-.29a14.54,14.54,0,0,1-2.71,2.3,3.68,3.68,0,0,0-2.4.63c-.75.45-1.44,1-2,1.28-.8-.17-.83-1.32-1.56-1.19-.76.36,1,.79-.29.85l0-.24c-.24.36-2.37.33-2,1.86l-.15-1.21c-.25,0-.33.34-.45.53-.17-.33-.57-.52-.33-.9-1-.37-1.42.8-2.15,1.22l.79.36c-1,1.13-2.19,1-3.31,1.81l-.28-.6-.54.73a.56.56,0,0,0-1.12,0c.37-.82.74-1.65,1.14-2.46.72.08-.21,1,.43,1.42s1.61-.38,1.5-1.05c-.47.16-.42.3-.65.69-.58-.75.11-1.06.16-1.78-.22.15-.68.07-.59.36a2.61,2.61,0,0,1,1.43-1.35c-.35.59.54.37.46.71-.31-.77.31-1.36,1.37-1.61,1.09.53,1.53-1.41,2.76-1.7a4.65,4.65,0,0,1-.92,2.46c.86,0,.75-.39,1.62-.34a3.32,3.32,0,0,1,.69-2.43l.3.54c.7-.65.33-1.48,1.47-1.8,1.94-.51,3.83-1.28,5.27-1.77l.28.55c.31-1.51,2.45-1.45,3.31-2.39,2-.07,3.79-1.95,5.07-1.23a36.38,36.38,0,0,1,9.35-3.44l-.35,1c.45-.79.52.39,1.09.11-.86-.51.61-1.1.91-1.73,1.69.28,3.5-.86,4.75-1.79l.17.59c1.17-1.39,3-.75,4.8-.88.25.22.66.73,1.16.58.78-1.13,1.29-1.14,2.58-2a13.14,13.14,0,0,1,3.8.11,16.86,16.86,0,0,1,5.75-1.49,47.83,47.83,0,0,0,6-.85l.32.7a9.44,9.44,0,0,1,3.1-.74,19.6,19.6,0,0,1,3.25,0c1.07.07,2.13.16,3.13.2a13.29,13.29,0,0,0,2.83,0l-.44,1.19c1,.45,2.44-.1,2.27-1,1,.51,2.76-.24,3.3.85,1.05.39,1.42-.32,2.36-.33a16.53,16.53,0,0,0,5,1.23l-.49-.2a.5.5,0,0,0,.06.91c.85-.18,2.68,1.06,2.33-.56a9.28,9.28,0,0,0,3.59,1.25,6.69,6.69,0,0,1,3.4,1.66c0-.45.52-.28.85-.42a23.45,23.45,0,0,1,2.65,1.58,6.49,6.49,0,0,0,2.52,1.18c.18.33-.79.32-.09.77.51.12.28-.44.92-.33a6.81,6.81,0,0,1,2.24,1.23,18,18,0,0,1,1.92,1.68c.57.65,1.11,1.3,1.66,1.9s1.12,1.14,1.67,1.69,1.08.87,1.61,1.33a11.65,11.65,0,0,1,1.5,1.48c.46.54.91,1.09,1.36,1.64a12.84,12.84,0,0,1,1.23,1.72,39.62,39.62,0,0,1,3.75,7.4l-.29.05a2.31,2.31,0,0,1,.8,1.23,9.43,9.43,0,0,1,.18,1.52c.08,1,.18,1.94,1.13,2.46-.19.47.2,1.59-.42,1.39.55.61.48,1.62.47,2.68a6,6,0,0,0,.49,3.13c0-.19-.05-.29-.19-.49a5.86,5.86,0,0,0-.15,1.48,13.63,13.63,0,0,0,.07,1.42c0,.47.07,1,.07,1.44a5.82,5.82,0,0,1-.28,1.5c-.12-.22-.19-.6-.48-.67-.6.75,1.15,2-.3,2.3,0,.45.67.38.66.1-.91,4.44-1,9.24-2,13.82-1.78,2.92-2.32-.51-2.11,2.27-.32.12.47.32.18.26.07,1.09-2,.94-1.53,1.83.91,0,.29.6.78.8-1.22,1.68-2.12,1.73-2.09,3.43l-.37-.28c.48,2.19-1,3.86-.49,6a42.17,42.17,0,0,1-4.31,7.13,30.61,30.61,0,0,1-6.21,6.09,59,59,0,0,1-13.84,7.11c-8.9,3-17.27,6.79-26.48,9.35-2.51-.35-2.65-.26-4.78,1,0-.21.15-.31-.06-.42.22,1-1.59.68-1.49,1.64-3.36,1.05-6.31,2.43-9.7,3.69.5-.3.49-1.15-.13-.86l-.45.84-.2-.22c-.39.3-.7.93-.14,1.06-8.24,3.94-17.29,5.24-25.69,8.47-2.16.32-4.91,1.68-7.07,2.6-7,.94-13.21,1.74-19.83,4.35A5.4,5.4,0,0,1,469.56,477.32Z"/><path class="cls-1" d="M468.09,375.39c.45.31,1.28.16,1,1C468.84,376.06,468.23,375.81,468.09,375.39Z"/><path class="cls-1" d="M489.29,371.1c0-.14.35.08.44.14-.23.12-.3.59-.59.43C489.37,371.54,489.25,371.34,489.29,371.1Z"/><path class="cls-1" d="M494.36,369.58c.07.44-.88,1.13-1.49,1.4Z"/><path class="cls-1" d="M499.57,369.78c.51.23.45.46-.09.61C499.38,370.18,499.52,370,499.57,369.78Z"/><path class="cls-1" d="M499.61,368.72a.93.93,0,0,1,.91.24C500.4,368.6,499.69,369.46,499.61,368.72Z"/><path class="cls-1" d="M510.16,367.24c.24-.09.7-.56,1-.14C510.86,366.83,510.11,367.91,510.16,367.24Z"/><path class="cls-1" d="M514.83,365.58c.16,0,.24.07.39-.09.33.14.09.52-.15.6Z"/><polygon class="cls-1" points="586.81 391.98 586.53 391.52 586.97 391.53 586.81 391.98"/><path class="cls-1" d="M577.93,428.54c0,.57-.53.06-.63.09C577.5,428.24,577.66,429.07,577.93,428.54Z"/><polygon class="cls-1" points="562.84 441.77 562.99 441.7 563.26 442.56 562.84 441.77"/><path class="cls-1" d="M420.59,435.47c-.9.52.76.55-.53.54C420.09,435.63,420.19,435.31,420.59,435.47Z"/><path class="cls-1" d="M436.05,455.15c3.44-2.28,7.94.1,11.71-1.35.44-.1-.12,1.25.88.95,3.66-1.77,9.31-.76,13.92.17l-.24.38c.89.17,1.81-1.12,2.72-1.05,0,.23-.25.36,0,.65.14-.7,1.59-.54,1.89-1.13.4.22.45.78,1,1l.39-.88a2.36,2.36,0,0,1,2.34-1.25,4.11,4.11,0,0,0,2.8-.77c0,.2-.19.39,0,.53,2.72-1.93,6.42-3,9.35-5a1.3,1.3,0,0,0,.43,1c-.2-.82.65-1.51,1.38-2.09.79.56,1-1.43,2.2-1.55l0,.21c.27-1.19,1.31-.13,1.36-1.41l.78.36c-.28-1.26,1.34,0,1.63-.87l-.13-.21c.42-.57,1-.18,1.42-.64l.12.11c1.06-.94,2.09-.69,1.62-1.53.78.46-1,.92.16,1.57,3.56-3,7.85-4.84,11.93-6.83.63.12,1,.08,1.24.36.32-.37,1.46-.91,1.62-1.53-.13.09.48.32.71.26.9,0,.35-1.35,1.36-1.36a.76.76,0,0,0,.07,1c.37-1,1.35-1.36,2.07-2-.06.21-.21.39,0,.64.52-1.19,1.72-.64,2.26-1.51l0,.64c1.56,0-.15-1.22,1.12-1.41-.18.29,0,.43.06.66.57-1.4,2.35-1.95,3.21-2.77a.33.33,0,0,0,.06.23c1-.67,2.32-1,3.32-2,.55,0,.5,1.27,1.55.47-.57-1,1.73-1.48.44-2.21,1.07-.37,2.8-.88,3.25-1.58-.22.62,1.15.9.4,1.45l.95.23c.13.45-.71.23-.23.61.39-.27,1.35-1.34,1.8-1.39.39-1.05.4-2.55,1.5-3.39-.32.71,1,.84.69,1.24.19-.94.34-1.9.49-2.84.36-.3.56.68,1,.07-.19-.23,0-.54,0-.85.22,0,1.43-1.27,2.21-.5.41.24-.49.63.15.65.69-.5.51-.82,1.2-1.33l.1.11c.55-.19,1.08-1.33.22-1.47-.33.19.51.45-.15.52,0-.74.64-1.45,1.28-2-.11.32.09.53.18.84a12.63,12.63,0,0,1,1.74-3.35c-.33-.41.29,1,0,.91a3,3,0,0,0,1.63-1.65c.38-.69.72-1.31,1.52-1.44-.06.21-.63-.4-.51-.32.51-.48,1.06,0,1.14-.53.39.24.24-.56.39-1-.13-.37.25,0,0,.39a12.74,12.74,0,0,1,.57-2,6.84,6.84,0,0,1,1.11-2.21c-.25-.07-.86-1-.76-1.27l.65.23c.45-.2.07-1,.66-1-.39-.35-.26.26-.15.89s.16,1.27-.06.75c.31-.05.12-.43,0-.72s-.36-.5.09-.34a1.86,1.86,0,0,0-.25-.91.74.74,0,0,1,.17-.86c-.09.16,1,.47.9-.05-.21-.91-.31-.24-.66-.92l-.35-.38c-.64.11-.12-.75-.75-.27.25-.11.1-.38,0-.64s-.16-.52.37-.68l.86-.2c-.21-.38-1.11-.27-1.58-.35a.75.75,0,0,1,.29-.3c-1.18.56-.34-.88-1.47-.72,0-.93-1.22-1.63-.89-2.49-.76-.21-1.51-.26-1.9-1,.2,0,.38.11.6-.07-.11-.62-.43-.44-.92-.54.21-.1-.3-1.22-.52-1.94-.82-.07-1,.68-1.31,1,.1-.72-.44-.82-1-.86s-1.11-.06-1.2-.78c.29-.06,1.21-.11.84-.67,0-1.51-1.65.32-2.35-.68l-.19,1.11c-.17-.81-1.64,0-1.14-1-.46.25-1.06-.73-1.29.31a4.88,4.88,0,0,0-2.65-1.1,2.51,2.51,0,0,1-2.13-1.57c-.28.14-.88-.13-.84.43.31.65.65-.33.74.09-.23,0-.33.28-.38.42-.49-.32-.91-.46-.26-1.26-.56-.41-1,0-1.36.41s-.85.87-1.59.62c.11-.43,0-.61-.46-.57l-.9.69c-1-.25-.52-1-.5-1.79-.55.08-1.23.08-1.48.62l-.67-.94c.49.68-.45.45-.7.64l.25-.19c-.1-.31-.74-.13-1.06,0,.1.45.74.65,1.09.78-.27.33-.7.24-1,.64.1-.74-.9-.46-1.33-.51s-.51.69-.66.68c0-.38-.8,0-.46-.57.16-.13.41.34.66,0-.34-.26-.36-.92-1-.4-.48.4.26,1.41-.74,1.07.23-.22.25-.51.42-.8L516,386l0,.67c-.14-.15-.06-.22-.13-.3-.19.73-1.36.38-1.45,1.19-.44.11-1-.32-1.46-.31l.07-.07a1.32,1.32,0,0,0-1.62.61v-.15a1.61,1.61,0,0,0-1.24.7c-.83-.33-.78-2.41-1.41-1.4a1.23,1.23,0,0,0-.49,1.8c-1.43-.13-2.61,1.37-4.12.7-.1.32.06.45-.27.72a15,15,0,0,0-2.87,1.07,3.71,3.71,0,0,1-2.82.33c.45-.46-.2-.64-.35-1-.24.73-.77-.36-.56.66.26.54.32.83.94.85-1,.75-2.68,1.41-3.52,1.16.42.12.25.4.08.67-.29-.92-1.17-.7-1.66-.12l.15.58-.64-.38c-.16.28.24,1.23-.6,1a1.28,1.28,0,0,0-.44-.48c-.43.73-1,1.88-1.86,1.75l-.94-.5c-.25.23-.51.93.11.9-1.39.12-2.18.43-2.88,0-1.19,2.64-4,4.19-6.34,5.37l-.15-.42c-.81,0,.07.84-.51.82,0-.48-.91-.53-.69-1.25-1.1.1-.74,1.31-1.2,1.81.2.55.26-.58.52.11,0,.24-1.42.31-1.11,1.14-.39-.17-.55-.82-.62-1.19l-.31.67c-1.17-.49.55-2.44-.76-3.12l-.43.41c-.94-.51.79-1.66-.62-1.19-.32.69-.12,2.05.55,2.1-1,.87.56,2.09-.66,2.74-.59-.25.88-.68.28-1.16-.92-.26-.92,1-1.53,1.11.72-.06.72,1,.45,1.33-.81,0-.05-.94-.94-.49.13.52-.44,1.32.41,1.2.31,1.15-1,.27-1,1.31-.71-.5-.14-2.12-1.28-1.86.57.56-.56,1.61.55,2.26-.48,0-.85-.44-.84-1-.78-.06-.47,2-1.48.82l.26.77c-.3-.11-.63-.12-1.13-.3-.46.29-.84,1.85-1.47.84-.07.2-1.11.85-.25,1.26.91,0,.38-1,1.36-.31-1-.45-.84.72-1,1.22l-.33-.34c-.11.3-.66.56-.51,1.06a.45.45,0,0,0-.48-.5l.18.73c-.67.89-.92-.87-1.64-.1l.32-.91c-.07.2-.74-.13-1,.34.22.64.37,1.47.53,2-.3.57-.63-.43-.71.43l.15-1.06c0-.24-1-.57-1.65-.09-.27.48-.34,1.68.5,1.5-.31.24-1,.25-1-.31-.58.7.5.48.13,1.26-.51-.16-1.65-.07-2.49-.2v-1.34l-.44.32c0-1.11-.67-.31-.91-1.27-.38.11-.55.63-.68,1,1.73.5.26,2.3,1.32,3.16-.91,1.17-2.71-2-2.61.6.41.11.48,1.35,1,.48-.8.45.35,1.41-.82,1.65.27-.92-1.5-.5-1.11-1.84.21.39.7-.14.76-.35-.61-.16-.77-1.09-1.5-.5-.36.46-1,1-.42,1.44s.62-.62.82.21c-.7.92-1.58.15-1.09,1.48.49-.53,1.12,0,1.44.37l-.43.76-.2-.49c-1.25.56.29.95-.77,1.67l-1.1-.37c-.32-.85,1.66-.91.59-1.84-.67.5-.42,1.22-1.26,1.45.06-.2.22-.38.27-.59-.26.16-1.69-1.06-1.89.55-.2.72.2.48.53.89-.92,1-.87,1.67-1.48,2.31-.53-.89-1.22.95-1.19-.47a2.13,2.13,0,0,0,1.89-2.24c-1.16-.59.92-.57.34-1.68-.84.68-1.58-.24-2.23-.72-.26.16-.27.6-.32.81.38.64.67.37,1.19.93a3.47,3.47,0,0,0-1.7,2.72c-.55,0-.94-.64-.62-1a14.56,14.56,0,0,1-3.4,2.84c1.47.31-1,1.24.12,1.59.74-.29,1.8-.08,1.83.6-.41.26-.33-.4-.65-.47,0,.89-1.39-.18-1.17,1,.78-1.18-.75-1.28-1.17-2.16-.39,1-.4-.53-1.13.09a10.9,10.9,0,0,1-1.78,3c-1.62.17-2.75,2.12-3.75,2.89-.81,0-1.06-1.13-1.74-.89-.65.48,1.15.6-.11.89l0-.24c-.15.43-2.23.6-1.72,2.09l-.3-1.18c-.24,0-.27.38-.37.57-.2-.31-.6-.47-.42-.86-1.05-.32-1.25.9-1.94,1.31l.78.34c-1,1.14-2.1,1-3.22,1.76l-.24-.63c-.19.23-.37.48-.56.69a.55.55,0,0,0-1.09-.11c.43-.76.83-1.52,1.19-2.3.66.12-.21,1,.38,1.44s1.57-.3,1.43-1c-.44.15-.4.28-.62.65-.54-.77.11-1,.12-1.74-.19.15-.61,0-.53.32a2.31,2.31,0,0,1,1.25-1.27c-.29.56.53.37.48.7-.33-.74.17-1.32,1.1-1.61,1.09.47,1.2-1.46,2.24-1.85a3.92,3.92,0,0,1-.43,2.46c.83,0,.66-.44,1.49-.49a3.54,3.54,0,0,1,.13-2.45l.4.47c.49-.74-.05-1.47.89-2a30.23,30.23,0,0,0,4.18-2.86l.43.44c-.24-1.49,1.66-2,2.07-3.17,1.73-.73,2.53-3,3.92-2.83a35.34,35.34,0,0,1,6.66-6.55l.12,1c.05-.88.62.16,1-.31-1-.13.05-1.21,0-1.9,1.58-.39,2.63-2.12,3.31-3.42l.41.46c.38-1.71,2.26-1.86,3.71-2.66.31.09.88.39,1.24,0,.17-1.31.59-1.52,1.33-2.78a11,11,0,0,1,3.26-1.44c2.28-3.15,5.91-4.37,8.76-7l.6.48c2.42-3.17,7.08-4.08,9.52-6.17l.28,1.23c1-.1,1.86-1.28,1.25-1.95,1.05-.1,2-1.6,3-1,1-.23.9-1,1.61-1.53a12.53,12.53,0,0,0,4.44-1.71l-.48.1c-.1.33.08.82.56.72.53-.6,2.58-.65,1.39-1.76a7.48,7.48,0,0,0,3.3-1.06,5.58,5.58,0,0,1,3.37-.73c-.28-.33.2-.55.33-.86a20.09,20.09,0,0,1,2.76-.45,4.79,4.79,0,0,0,2.4-.75c.33.13-.31.76.43.64.4-.25-.1-.51.39-.86a10,10,0,0,1,4.5-.73,26,26,0,0,0,4.41,0c4.89-1.16,10.27-.49,15.08.49l-.12.27a3.07,3.07,0,0,1,2.64.61c.82.49,1.6.89,2.51.31a3.22,3.22,0,0,0,.73.5c.25.18.4.36.16.56,1.53-.19,3.06,2,5.25,2.19a.74.74,0,0,0-.51-.11c1.39,1.53,3.36,1.79,4.65,3.65-.25-.05-.6-.24-.84,0,.13.47.69.55,1.16.69s.82.37.49,1c.34.32.74-.26.5-.44a43.49,43.49,0,0,1,4.43,6.16,16.59,16.59,0,0,1,2.18,8.2c-.65,2-1.31,1.89-1.64,1.8s-.41-.29-.25,1.28c-.33.16.47.32.17.28,0,.61-.5.92-1,1.16s-.89.4-.7.9c.92.07.24.67.69.91a11.51,11.51,0,0,1-1.85,1.65,2.81,2.81,0,0,0-1,1.64l-.29-.37a5.86,5.86,0,0,1-1.15,2.88,5.66,5.66,0,0,0-1.14,2.72,61.62,61.62,0,0,1-5.68,4.88c-1.85,1.48-3.73,2.86-5.62,4.22a116.53,116.53,0,0,1-11.68,7.36c-8.13,4-15.73,8.18-24,11.42-2.39-.16-2.51,0-4.3,1.42,0-.22.1-.32-.12-.41.35.92-1.37.81-1.12,1.75-3,1.35-5.18,3-8.65,4.78.47-.37.36-1.22-.22-.84-.12.3-.24.6-.37.89l-.23-.19c-.37.33-.64,1-.05,1.06A35.72,35.72,0,0,1,472,458.44c-4.65.65-9.18.67-13.55,1-2.1-.3-5,.15-7.21.36-6.55-1.28-12.27-2.47-18.75-1.55A5,5,0,0,1,436.05,455.15Z"/><path class="cls-1" d="M421.71,435c.37.38,1.15.35.85,1.19C422.32,435.77,421.79,435.42,421.71,435Z"/><path class="cls-1" d="M441.14,428.44c-.07-.13.35,0,.45,0-.16.19-.08.65-.4.59C441.36,428.82,441.19,428.67,441.14,428.44Z"/><path class="cls-1" d="M445.22,425.29c.23.37-.36,1.36-.82,1.83Z"/><path class="cls-1" d="M449.94,423.54c.55,0,.59.25.18.59C449.94,424,450,423.78,449.94,423.54Z"/><path class="cls-1" d="M449.54,422.57a.92.92,0,0,1,.9-.12C450.19,422.18,449.92,423.21,449.54,422.57Z"/><path class="cls-1" d="M458.1,417.22c.17-.17.36-.78.83-.53C458.52,416.58,458.34,417.84,458.1,417.22Z"/><path class="cls-1" d="M461.41,413.9c.14-.07.23,0,.3-.24.35,0,.3.43.14.6Z"/><polygon class="cls-1" points="537.22 389.67 536.7 389.68 536.94 389.32 537.22 389.67"/><path class="cls-1" d="M539.34,413.67c-.21.51-.52-.12-.62-.12C539,413.24,538.92,414.07,539.34,413.67Z"/><polygon class="cls-1" points="523.48 426.27 523.61 426.19 523.99 427 523.48 426.27"/><path class="cls-1" d="M289.81,392.58c1.08.81.06-1,.86.39C290.28,393.07,289.91,393.08,289.81,392.58Z"/><path class="cls-1" d="M362.55,479.2c-4.39,2.28-10.17,0-15,1.42-.56.09.15-1.26-1.13-1-4.66,1.77-12,.7-17.68-.67l.35-.36c-1.08-.26-2.41.92-3.55.75,0-.24.37-.33.1-.66-.29.71-2.07.33-2.56.86-.45-.28-.41-.84-1-1.15l-.66.8c-1.82,1.92-4.43-.14-6.92.85.12-.19.37-.33.17-.51-4,1.16-9,.93-13.46,1.36a1.05,1.05,0,0,0,.09-1.13c-.23.85-1.61,1.06-2.8,1.23-.54-.88-2.06.79-3.46.31l.12-.2c-1,.92-1.54-.53-2.39.56l-.65-.69c-.46,1.23-1.5-.64-2.36,0l0,.26c-.81.29-1.22-.33-2-.13l-.07-.15c-1.76.31-2.77-.38-2.74.58-.61-.78,1.71-.33.75-1.46-5.79.92-11.76.58-17.58.27-.64-.43-1.05-.58-1.18-.95-.59.16-2.19,0-2.75.49.19,0-.34-.51-.65-.58-1-.45-1.23.95-2.36.43.49-.22.67-.51.54-.88-1.05.66-2.36.44-3.55.55.2-.14.49-.21.47-.51-1.36.71-2.3-.42-3.48,0l.48-.51c-1.72-.87-.66,1.09-2.17.5.39-.12.29-.36.38-.57-1.57.82-3.88.19-5.37.29a.29.29,0,0,0,.1-.22c-1.6-.1-3.19-.69-5-.58-.58-.36.45-1.29-1.23-1.39-.16,1.11-2.89-.14-2.17,1.3-.69-.24-1.57-.58-2.41-.84a5.54,5.54,0,0,0-2.13-.42c.73-.26-.35-1.49.82-1.3l-.71-.86c.24-.41.86.37.72-.26-.58-.1-2.37-.06-2.84-.39-1.22.36-2.55,1.31-4.34.95.94-.17-.1-1.31.5-1.33l-3,1.27c-.59-.14.15-.88-.77-.87,0,.29-.47.35-.81.49-.17-.18-2.47-.61-2.33-1.72-.1-.5,1,.12.51-.48-1-.37-1.22,0-2.27-.41l0-.14c-.62-.43-2.18-.4-1.67.47.46.23.07-.69.65-.1-.71.39-2,0-3-.38.43,0,.5-.3.77-.52a13.6,13.6,0,0,1-5-.65c-.25.46,1-.58,1.09-.23a4,4,0,0,0-1.41-.84,12.55,12.55,0,0,0-1.57-.52,4.09,4.09,0,0,1-2.59-1.53c.3.06-.22.72-.17.59-.88-.59-.46-1.23-1.19-1.33.17-.42-.81-.31-1.48-.55-.48.09,0-.28.5,0a13.46,13.46,0,0,1-6.24-3.56c-.13.27-1.76.05-2.18-.29l.58-.43c-.14-.61-1.46-1-1.17-1.51-1.41,0,3.9,2,2.29,1.59,0-.69-2.35-.36-1.53-.92-.88-.57-2.13-.65-2.52-1.78.17.27,1.26-.2.58-.7-1.23-.84-.54,0-1.62-.6-.26-.09-.52-.17-.77-.27-.47.47-.94-1-1,0,.23-.54-1.86-1.23-1-1.94l.74-.5c-.52-.38-1.41,0-2-.1,0-.11,0-.36.11-.44-1,.88-1-1.18-2.28-1a11.67,11.67,0,0,0-1.42-1.89,2.54,2.54,0,0,1-.75-1.74c-1-.53-2-.92-2.53-2.07.25.11.48.35.74.22-.15-.85-.54-.77-1.13-1.19.25,0-.29-1.67-.41-2.6-.93-.6-1.3.08-1.72.26.56-1.54-2.37-2-2-3.68.34.22,1.39.93,1.19,0,.6-1.47-1.8-1.15-2-2.81l-.77.86c.26-.92-1.7-1.7-.61-2.09-.58-.29-.47-1.81-1.35-1.19a17.15,17.15,0,0,0-1.5-4c-.54-1.34-.88-2.64-.2-3.68-.29-.29-.39-1.21-.86-.87-.38.76.67.68.35,1a.49.49,0,0,0-.58-.27c0-.85-.13-1.46.95-1,.16-1.85-2.28-1.25-2.39-3.6.45,0,.57-.2.36-.83l-1-1.11c-.1-1.5.85-1,1.57-1.15-.24-.75-.33-1.69-.93-2l.84-1c-.61.75-.51-.59-.72-.94l.21.34c.29-.16,0-1-.07-1.49-.46.13-.61,1.07-.68,1.59-.37-.38-.34-1-.74-1.54.75.14.44-1.31.55-1.95s-.66-.82-.63-1c.37,0,.1-1.2.61-.61.11.25-.38.56-.05,1,.3-.48.92-.4.5-1.4-.32-.76-1.46.12-.91-1.29.16.39.45.48.69.79l.47-1.29-.66-.12c.19-.16.23,0,.33-.11-.64-.47,0-2.05-.69-2.47.06-.7.69-1.35.91-2l0,.13a2.84,2.84,0,0,0,.32-2.53l.13.07a3.85,3.85,0,0,0,.19-2.08c.87-.88,2.49.53,2.14-.89.36-1-.41-2.06-1-1.83a17.72,17.72,0,0,0,1.42-2.86,4.44,4.44,0,0,1,2-2.37c-.06-.39-.31-.33-.09-.92.24-.29.47-.6.69-.91s.46-.6.69-.92c.46-.61.86-1.28,1.36-1.84a11.67,11.67,0,0,1,1.52-1.54,4.68,4.68,0,0,1,1.79-.88c-.42.78.42.53.69.8.09-.91,1-.1.5-1-.45-.4-.59-.67-1.36-.29,1.05-1.45,3.17-3.11,4.28-3.2-.55.06-.36-.31-.16-.68.47.86,1.55.2,2.17-.58l-.22-.56.86.16c.2-.35-.33-1.26.78-1.3a1.15,1.15,0,0,0,.56.39c.6-.89,1.4-2.35,2.6-2.39l1.17.34c.35-.29.8-1.11,0-.95,1.85-.38,2.94-.78,3.75-.36,2.06-2.93,6.36-4.64,9.83-5.53l0,.45c1,.11.26-.88,1-.77-.19.48,1,.69.37,1.38,1.44.09,1.49-1.19,2.31-1.62,0-.59-.6.54-.62-.21.09-.24,2-.06,1.94-1,.42.24.31.94.22,1.33l.71-.63c1.21.73-1.8,2.37-.46,3.31l.69-.33c.9.71-1.65,1.51.22,1.33.67-.64,1.08-2,.27-2.22,1.62-.59.31-2.19,2.17-2.5.61.39-1.45.42-.94,1.05,1,.51,1.64-.74,2.46-.66-.91-.15-.37-1.16.16-1.43,1,.2-.45.93.89.74.12-.55,1.3-1.12.17-1.29.29-1.21,1.46.1,2.05-.89.56.73-1.09,2,.45,2.22-.36-.73,1.65-1.31.7-2.33.62.13.77.73.41,1.26.89.35,1.83-1.7,2.29-.22l.19-.82c.29.23.69.39,1.16.77.73-.05,2.26-1.28,2.3-.08.22-.15,1.9-.25,1.19-1-1.09-.41-1.15.71-1.83-.35.82.84,1.5-.26,2.09-.62l.14.45c.34-.22,1.19-.17,1.39-.67a.4.4,0,0,0,.19.69l.35-.72c1.46-.4.4,1.23,1.82,1l-1.06.59c.23-.13.74.51,1.41.27.25-.65.73-1.44.95-1.94.81-.31.37.71,1.17,0l-1,.81c-.15.22.72,1,1.78,1,.68-.2,1.77-1.1.68-1.48.54,0,1.3.41.86.87,1.23-.19-.15-.69.92-1.07.43.44,1.76,1.09,2.53,1.73l-1.13,1,.72,0c-1,.84.44.67-.13,1.56a2.61,2.61,0,0,0,1.56-.33c-1.35-1.57,1.74-1.84,1.43-3.2,2.05-.18,1,3.32,3.23,1.44-.31-.37.79-1.29-.52-1,1.23.27,1-1.29,2.42-.51-1.15.38,1,1.51-.67,2.05.16-.42-.83-.45-1.08-.33.45.56-.25,1.28,1,1.46.77,0,1.81.12,1.76-.59s-1.18-.09-.58-.78c1.57,0,1.64,1.15,2.49-.08a1.06,1.06,0,0,1-1-1.37l1.2-.13-.3.46c1.76.64.69-.83,2.45-.4l.64,1.16c-.57.71-2.49-.85-2.42.59,1.13.21,1.63-.4,2.63.2-.26.06-.59,0-.85.1.41.13.43,2,2.24,1.32.92-.23.33-.43.46-.94,1.85.26,2.53-.18,3.71.11-.5.92,2,.7.46,1.33a2.88,2.88,0,0,0-1.78-.91,2.77,2.77,0,0,0-2.13.35c.38,1.32-1.37-.48-2,.64,1.42.34,1.08,1.48,1.13,2.29.38.14.83-.1,1.09-.16.33-.68-.18-.78,0-1.52a6.51,6.51,0,0,0,4.2.16.61.61,0,0,1-.58,1,21.1,21.1,0,0,1,2.86.74,18.55,18.55,0,0,1,2.63,1.18c-.69-1.54,2,.47,1.63-.75-.84-.6-1.36-1.71-.65-2,.57.3-.2.49,0,.82,1-.32.78,1.42,1.9.74-1.83-.28-.87,1.23-1.52,2,1.38,0-.3.6.86,1a15.08,15.08,0,0,1,4.3.72c1.24,1.48,3.95,2.13,5.37,2.89.48.82-.56,1.44.11,2,.89.52,0-1.39,1-.14l-.23.09c.52.07,1.9,2.2,3.16,1.23l-1.06.66c.17.25.54.19.81.23-.21.31-.14.77-.66.7.3,1.17,1.69,1,2.48,1.67l-.09-.95c1.69.72,2.17,2,3.63,2.92l-.49.46a8.2,8.2,0,0,1,1,.41c-.61.29-.26,1.25.49,1.24a27.1,27.1,0,0,0-3-.6c-.28-.75,1.14-.1,1.24-.87s-1.24-1.56-1.84-1.23c.4.44.52.35,1,.47-.46.82-1.12.21-1.85.4.25.17.4.66.64.49a3.44,3.44,0,0,1-2-1c.74.15.07-.68.43-.72-.58.59-1.4.13-2.3-.72-.17-1.27-2.23-.83-3.23-1.84a4.48,4.48,0,0,1,2.81-.25c-.51-.87-.84-.57-1.36-1.44a4.17,4.17,0,0,1-2.67.61l.26-.55c-1.08-.27-1.53.52-2.6-.3-.46-.35-.93-.68-1.4-1l-1.48-.8-2.67-1.37.18-.59c-1.39.77-3.23-.73-4.65-.68a7.89,7.89,0,0,0-3.21-1.11c-1.06-.22-2-.46-2.37-1.13-2-.29-3.85-.4-5.68-.68a48.9,48.9,0,0,1-5.73-.8l.79-.78c-.81.54-.41-.59-1.15-.52.75.78-1.1.83-1.66,1.32a5.64,5.64,0,0,0-2.93-.41,12.34,12.34,0,0,0-2.82.74l0-.61a3.45,3.45,0,0,1-2.64.4c-.94-.15-1.93-.37-2.95-.44-.24-.25-.63-.81-1.24-.72-1.06,1-1.63.95-3.18,1.73a18.61,18.61,0,0,1-4.32-.21,17.74,17.74,0,0,1-3.19,1.16c-.54.14-1.08.27-1.63.38l-1.63.4c-1.09.26-2.19.5-3.28.78a20.89,20.89,0,0,0-3.19,1.21l-.51-.6a27.68,27.68,0,0,1-6.47,2.81A21,21,0,0,0,200,382.8l-.2-1.26c-1.23.16-2.26,1.46-1.59,2.1a5,5,0,0,0-1.71.94c-.54.39-1.06.69-1.63.44-1.14.4-.93,1.23-1.64,1.89a9.87,9.87,0,0,0-2.4,1.29,14.51,14.51,0,0,0-1.9,1.76l.46-.28c0-.35-.3-.77-.77-.48-.44.73-2.41,1.76-.84,2.26a6.54,6.54,0,0,0-2.64,2.58,11.65,11.65,0,0,1-1.11,1.52,4,4,0,0,1-1.33,1.16c.43.08.19.56.29.88-.93,1.59-2.6,3-2.48,4.7-.3.21-.46-.7-.78,0,0,.48.48.19.49.79a17.69,17.69,0,0,1-1.19,4.41c-.28.72-.47,1.47-.68,2.2a9.41,9.41,0,0,0-.23,2.22c.32,2.57.65,5.18,1.15,7.76a39.62,39.62,0,0,0,2.11,7.49l-.3.05a3.78,3.78,0,0,1,1.11,2.58c.22,1,.5,1.87,1.55,2.11-.09.49.55,1.45-.08,1.44,1.39.79,1.21,3.78,3.23,4.88-.07-.17-.18-.23-.41-.33a6.68,6.68,0,0,0,1.49,2.53,8.72,8.72,0,0,1,1.71,2.49c-.23-.09-.54-.35-.81-.22.06,1,2.19.75,1.41,2,.33.36.77-.2.54-.4,2.65,4,7,6.87,11.08,9.59,2.35,2.77-1.24,2,1.66,2.85,0,.36.44-.34.31-.08,1.09.33.51,2.27,1.57,2.09.21-.9.69-.13,1-.56,1.51,1.68,1.51,2.58,3.36,2.89l-.35.32c2.39,0,4.18,1.62,6.35,1.1,10.08,4.75,20.64,6.83,31.45,8.5,10.67,2.08,21.47,2.07,32.73,3.12,2.63,1.27,2.84,1.22,5.76.79-.12.19-.3.23-.11.42.16-1,2.07-.08,2.35-1,4.21.23,8.1,0,12.46,0-.69.1-1,.91-.22.84l.86-.62.14.27c.56-.14,1.17-.63.59-.94,11-.84,21.73,1.15,32.46.92,2.54.41,6.17,0,8.94-.16,8.2,1.33,15.59,2.39,23.92,1.49A6,6,0,0,1,362.55,479.2Z"/><path class="cls-1" d="M288.62,391.51c.16-.54-.32-1.4.68-1.33C289,390.57,289,391.28,288.62,391.51Z"/><path class="cls-1" d="M270.1,373.18c-.09.13-.28-.32-.33-.42.32.08.77-.19.92.14C270.36,372.81,270.32,373.05,270.1,373.18Z"/><path class="cls-1" d="M263.77,370.62c.22-.38,1.76-.34,2.59-.06C265.51,370.51,264.62,370.6,263.77,370.62Z"/><path class="cls-1" d="M258,367.22c-.47-.48-.27-.65.47-.47C258.51,367,258.24,367.05,258,367.22Z"/><path class="cls-1" d="M257.38,368.09a1.33,1.33,0,0,1-.93-.71C256.39,367.75,257.71,367.41,257.38,368.09Z"/><path class="cls-1" d="M243.76,364.87c-.34,0-1.09.3-1.37-.18C242.72,365,244.06,364.25,243.76,364.87Z"/><path class="cls-1" d="M237.26,365.31c-.21,0-.29-.12-.53,0-.39-.18,0-.52.34-.56Z"/><polygon class="cls-1" points="178.03 439.57 177.5 439.07 177.93 438.95 178.03 439.57"/><path class="cls-1" d="M216.21,472c.74,0,.27.56.35.66C216,472.42,217,472.22,216.21,472Z"/><polygon class="cls-1" points="242.47 477.7 242.26 477.68 242.5 476.81 242.47 477.7"/><path class="cls-1" d="M355.44,424.44a.56.56,0,0,0-.15.38c0,.13,0,.16-.09-.11C355.45,424.43,355.45,424.16,355.44,424.44Z"/><path class="cls-1" d="M351.91,456.7a6.94,6.94,0,0,1-2.82,1.31,19.39,19.39,0,0,1-3.18.28c-1.09,0-2.19,0-3.26.12a9.67,9.67,0,0,0-3.12.62c-.47.11.08-1.26-1-.92-3.86,1.94-10.1.74-14.72-.88l.31-.34c-.88-.28-2,.79-3,.56,0-.24.33-.31.13-.65-.29.69-1.74.19-2.19.69-.35-.31-.27-.87-.72-1.21l-.62.76c-1.7,1.81-3.66-.53-5.83.25.12-.18.34-.3.2-.5a18.27,18.27,0,0,1-5.56.24l-2.92-.23c-1-.1-1.93-.21-2.88-.26a1.19,1.19,0,0,0,.26-1.09c-.32.8-1.5.82-2.52.81-.29-.94-1.85.5-2.92-.22l.14-.17c-1,.72-1.17-.77-2.08.16l-.41-.78c-.62,1.13-1.1-.88-1.94-.41l0,.26c-.73.15-.94-.51-1.6-.46l0-.15c-1.51,0-2.19-.87-2.37.07-.34-.86,1.47,0,.92-1.29a36.17,36.17,0,0,1-7.32-1q-1.82-.4-3.6-.87l-3.54-1c-.43-.52-.74-.72-.76-1.11-.52.06-1.82-.31-2.38,0,.17,0-.16-.56-.39-.68-.75-.6-1.23.74-2,0,.44-.13.66-.39.64-.77-1,.48-2,0-3.06,0,.2-.11.45-.13.51-.43-1.29.51-1.82-.74-2.88-.52l.5-.42c-1.23-1.11-.77,1-1.9.18.35-.07.31-.31.44-.51-1.47.59-3.26-.33-4.53-.39a.32.32,0,0,0,.13-.2c-1.3-.31-2.52-1.06-4.05-1.12-.42-.4.61-1.22-.78-1.48-.32,1.07-2.41-.36-2,1.11-1.08-.58-2.73-1.62-3.61-1.56.65-.21-.07-1.48.9-1.22l-.46-.89c.26-.39.66.41.64-.21-.48-.13-2-.24-2.33-.58-1.11.3-2.38,1.15-3.84.68.83-.12.12-1.29.64-1.27-.92.37-1.85.73-2.8,1.07-.49-.17.27-.84-.52-.9-.09.28-.46.31-.77.42-.12-.18-2-.73-1.71-1.8,0-.48.84.18.52-.42-.83-.42-1-.13-1.86-.57l.06-.14c-.46-.43-1.81-.54-1.55.34.35.26.2-.65.58,0a3.1,3.1,0,0,1-2.57-.64c.37,0,.5-.23.78-.42a7.6,7.6,0,0,1-2.19-.35c-.69-.23-1.35-.55-2.06-.85-.34.4,1-.42,1-.07a5.32,5.32,0,0,0-2.28-1.71c-.83-.49-1.65-1-1.82-1.92.25.12-.42.62-.33.51-.6-.73,0-1.21-.64-1.45.28-.33-.6-.46-1.11-.86-.45,0,.07-.26.45.12a7.93,7.93,0,0,1-2.18-1.83c-.21-.24-.43-.49-.63-.76a8.94,8.94,0,0,1-.51-.84,4.9,4.9,0,0,1-.65-1.67c-.23.19-1.53-.67-1.72-1.13l.71-.11c.19-.56-.65-1.46-.14-1.75-.57-.32,0,.53.48,1.31s1.17,1.42.58,1c.18-.28-.27-.58-.65-.85s-.64-.49-.16-.54c-.37-.85-1.45-1.47-1.08-2.55,0,.29,1.12.43.86-.26-.49-1.22-.44-.26-.94-1.24l-.42-.6c-.66.1-.18-1.2-.8-.56.47-.25-.66-1.93.46-1.94l.89.06c-.14-.54-1.06-.8-1.47-1.24.07-.08.24-.25.38-.23-1.33,0,0-1.41-1-2.1a10.59,10.59,0,0,0,.38-2.16c.14-.72.32-1.34.77-1.57a6.25,6.25,0,0,1-.28-1.52,2.63,2.63,0,0,1,.34-1.54c0,.25,0,.56.28.7.54-.58.29-.82.28-1.51.08.1.37-.18.74-.53a8,8,0,0,1,1.24-1c0-1-.74-1.08-1.09-1.36.77-.12,1-.79,1.17-1.55s.53-1.54,1.35-1.61c-.09.39-.39,1.52.38,1.09.79.06.86-.41.94-1a1.71,1.71,0,0,1,1-1.56l-1-.56c.9,0,1.31-1.93,1.87-1,.16-.65,1.63-.67.92-1.48a5.55,5.55,0,0,0,1-.31,9.51,9.51,0,0,0,.95-.39c.62-.31,1.25-.61,1.88-.86,1.24-.5,2.46-.72,3.36,0,.27-.26,1.09-.26.82-.75-.66-.48-.64.59-.93.24.28-.11.27-.41.27-.56.76.07,1.31.07.84,1.05,1.59.38,1.26-2.09,3.32-1.89-.05.45.12.6.68.49.34-.29.69-.57,1-.83,1.27.13.74,1,.8,1.73.65-.17,1.44-.11,1.74-.67.26.31.52.62.77,1-.55-.7.54-.44.85-.61l-.31.17c.11.32.85.15,1.23.08-.06-.47-.81-.69-1.23-.83.34-.32.86-.23,1.32-.59-.18.73,1,.57,1.53.7s.71-.6.88-.56c0,.37.95.14.45.63-.21.1-.42-.4-.78-.1.36.32.26,1,1.09.56.63-.3,0-1.46,1.07-.88-.31.15-.4.44-.65.67l1,.49.11-.66c.13.19,0,.23.08.33.39-.67,1.62,0,1.94-.79.53,0,1,.6,1.53.74l-.1,0a1.67,1.67,0,0,0,2-.07l0,.14a2.25,2.25,0,0,0,1.59-.25c.77.61-.05,2.54,1,1.83.85.09,1.49-1,1.2-1.5,1.47.66,3.36-.2,4.62,1.05.26-.24.14-.42.62-.51,2.19.59,4.85-.07,6.41,1.52-.69.17-.15.65-.19,1,.63-.5.54.72.89-.26.05-.61.15-.89-.44-1.23,1.38-.11,3.41.23,4.05.92-.32-.34,0-.47.32-.6-.26.93.69,1.25,1.49,1.05l.21-.56.38.67c.32-.13.53-1.15,1.17-.47a1.32,1.32,0,0,0,.1.66c.85-.34,2.08-.93,2.82-.29l.52,1c.38,0,1.07-.42.49-.78,1.32.78,2.22,1,2.53,1.83,2.78-1.29,6.35-.64,9.15.11l-.18.41c.67.57.56-.66,1-.25-.33.36.39,1-.32,1.39,1,.68,1.56-.44,2.31-.47.23-.54-.65.23-.35-.45.16-.18,1.4.78,1.76,0,.2.4-.16,1-.38,1.29l.75-.26c.58,1.17-2.24,1.35-1.67,2.77h.64c.37,1-1.83.64-.38,1.29.75-.27,1.6-1.38,1.1-1.89,1.43.08,1.1-1.88,2.57-1.47.29.59-1.22-.15-1.09.62.54.84,1.49-.07,2,.33-.61-.49.17-1.21.66-1.25.66.58-.68.68.36,1,.3-.44,1.37-.57.6-1.12.65-1,1,.58,1.83-.14.16.86-1.54,1.54-.46,2.21,0-.8,1.7-.67,1.35-1.94a.84.84,0,0,1-.14,1.31c.54.62,1.94-1,1.78.58l.42-.71c.14.3.39.56.62,1.06.57.16,2.12-.57,1.77.58.22-.07,1.52.31,1.22-.62-.69-.69-1.09.35-1.27-.85.35,1,1.21.19,1.77,0l0,.47c.32-.1.95.17,1.25-.26a.43.43,0,0,0-.05.7l.47-.6c1.24,0-.05,1.26,1.12,1.36l-1,.31c.22-.07.43.67,1,.6.37-.57,1-1.21,1.27-1.64.7-.1.09.77.88.3l-1,.53c-.18.17.27,1.17,1.1,1.38.59-.06,1.67-.72.92-1.3.42.11.91.65.45,1,1,.05.06-.7,1-.86.22.51,1.1,1.39,1.55,2.17l-1.14.79.56.17c-1,.62.19.73-.47,1.49.35.25.9.08,1.34,0-.73-1.72,1.81-1.56,1.85-2.92,1.66.11.07,3.38,2.26,1.87-.16-.41.88-1.15-.2-1.08.92.43,1-1.08,2-.22-1,.28.51,1.56-.93,2,.21-.4-.58-.52-.8-.46.25.61-.46,1.26.52,1.55.64.05,1.46.27,1.54-.43s-.94-.19-.33-.81c1.27.1,1.13,1.27,2,.14-.78-.14-.75-.94-.58-1.44l1,0-.32.43c1.3.78.68-.74,2-.19l.35,1.15c-.58.71-1.87-1-2,.43.87.33,1.37-.26,2.1.34-.22.06-.49,0-.71.08.31.14.07,2,1.66,1.36.77-.21.32-.43.49-.92,1.46.3,2.05-.07,3,.15-.5.91,1.58.61.25,1.28-.28-.72-2.35-1.32-3.14-.55.15,1.31-1.06-.51-1.73.56,1.13.38.71,1.5.66,2.3.3.15.7-.07.92-.12.36-.66-.06-.78.15-1.51a4,4,0,0,0,3.46.14.65.65,0,0,1-.57,1,16.33,16.33,0,0,1,4.49,1.6c-.53-1.45,1.69.29,1.39-.87-.68-.53-1.07-1.56-.47-1.92.46.24-.19.49-.07.8.84-.4.62,1.33,1.57.57-1.53-.13-.76,1.28-1.33,2.07,1.17-.15-.26.61.71,1a11.16,11.16,0,0,1,3.68.19c1,1.37,3.45,1.48,4.68,2.07.42.74-.49,1.47.09,2,.78.39,0-1.32.88-.28l-.21.13c.48,0,1.7,1.78,2.83.7l-.95.77c.15.22.48.11.71.11-.19.32-.13.76-.59.76.23,1.08,1.45.78,2.16,1.27l-.05-.88c1.53.46,1.93,1.6,3.16,2.39l-.47.47.75.23.15,0,.12.61,0,.22a.58.58,0,0,0-.76.18,1,1,0,0,0-.24.84,1.67,1.67,0,0,0-.35-1.31l.15.38-1.27-.09c-.18-.69,1-.18,1.17-.92s-1-1.37-1.57-1c.35.37.45.27.91.33-.47.81-1,.32-1.69.57.22.13.32.58.55.38a2.59,2.59,0,0,1-1.76-.67c.66,0,.09-.64.42-.73-.53.61-1.3.37-2-.37-.11-1.19-1.93-.49-2.81-1.26a4,4,0,0,1,2.49-.68c-.45-.75-.75-.4-1.21-1.15a3.71,3.71,0,0,1-2.33,1l.23-.57c-.94-.11-1.32.69-2.26.08a29.9,29.9,0,0,0-4.82-2.4l.16-.58c-1.23.93-2.76-.49-4-.3-1.61-1.17-4.12-.73-4.73-2a54.18,54.18,0,0,1-9.61-2.24l.82-.68c-.79.44-.25-.6-.88-.65.48.87-1.07.63-1.64,1-1.3-1.11-3.44-.93-4.93-.7l.11-.6c-1.65.72-3-.69-4.62-1.32-.12-.29-.28-.93-.8-1-1.16.71-1.62.5-3.11.75a12.11,12.11,0,0,1-3.41-1.51c-4,.42-7.57-1.32-11.6-1.38L293,405a15.35,15.35,0,0,1-6.12-.56,22.86,22.86,0,0,0-5.59-.93l.54-1.14c-.93-.56-2.35-.12-2.26.78-.94-.56-2.62.11-3.07-1-1-.41-1.37.33-2.25.34a11.18,11.18,0,0,0-4.75-.95l.47.16a.51.51,0,0,0-.11-.9c-.78.22-2.62-.76-2.13.8-1.95-1.19-5-.08-6.82-1.51.12.42-.4.42-.66.65-1.82-.24-3.64-1.3-5.19-.83-.27-.24.55-.61-.19-.76-.46.09-.08.52-.65.67-3,.38-5.95-1.55-8.55-1.58-2.34.19-4.61.19-6.75.31a20.2,20.2,0,0,0-5.79,1l0-.29a1.42,1.42,0,0,1-.78.63c-.3.09-.67.09-1,.15-.68.07-1.3.31-1.2,1.23-.38-.1-.85.48-1.05-.09-.14.56-.61.86-1.23,1.18s-1.15.86-1,1.69c.08-.08.07-.17,0-.35a2.54,2.54,0,0,0-.71.67,4.46,4.46,0,0,0-.37.87,5.07,5.07,0,0,1-.85,1.84c-.07-.17-.07-.45-.34-.58-.37.18-.18.61,0,1s.16.63-.57.66c-.06.34.65.36.65.16a9.63,9.63,0,0,0-.18,5.18,22.76,22.76,0,0,0,1.92,5.07c.06,1.33-.43,1.63-.77,1.74s-.48.09.46.81c-.17.29.53-.13.28,0,.69.52-.72,1.88.2,2,.61-.67.59.07,1.05-.22.24.79.23,1.4.38,1.87a1.74,1.74,0,0,0,1.1,1.13l-.4.23c2,.29,2.84,2.07,4.85,1.75a43.7,43.7,0,0,0,11.51,6c4.18,1.55,8.61,2.84,13.12,4.27,8.72,3.26,17.6,5.22,26.52,8.23,1.86,1.69,2,1.67,4.51,1.75-.14.17-.3.17-.18.39.33-.93,1.68.29,2.11-.58a101.89,101.89,0,0,0,10.05,1.86c-.58,0-1,.75-.32.8l.8-.49.06.28c.48-.06,1-.45.64-.85a118.75,118.75,0,0,1,13.11,2,73.72,73.72,0,0,0,13,1.57c2.06.51,5,.09,7.26-.08,6.63,1.2,12.84,1.84,19.46.06A5,5,0,0,1,351.91,456.7Z"/><path class="cls-1" d="M355.75,424.27a1.47,1.47,0,0,0,.55.41.63.63,0,0,1,.41.65A2.93,2.93,0,0,1,355.75,424.27Z"/><path class="cls-1" d="M342.14,411.73c-.08.12-.23-.3-.27-.4.27.06.65-.24.76.07C342.36,411.34,342.32,411.57,342.14,411.73Z"/><path class="cls-1" d="M337,409.66c.21-.4,1.45-.36,2.13-.18Z"/><path class="cls-1" d="M332.63,406.37c-.31-.49-.13-.65.44-.46C333,406.15,332.81,406.2,332.63,406.37Z"/><path class="cls-1" d="M332,407.21c-.41-.12-.53-.42-.66-.72C331.23,406.85,332.34,406.55,332,407.21Z"/><path class="cls-1" d="M321.66,402.78c-.27,0-.93.15-1-.38C320.8,402.8,322,402.22,321.66,402.78Z"/><path class="cls-1" d="M316.48,402c-.15-.07-.2-.17-.42-.1-.24-.27.16-.5.42-.47Z"/><polygon class="cls-1" points="222.16 396.85 222.5 396.23 222.73 396.6 222.16 396.85"/><path class="cls-1" d="M231.5,436.82c.64.11.11.58.16.69C231.19,437.24,232.12,437.17,231.5,436.82Z"/><polygon class="cls-1" points="252.98 444.29 252.81 444.25 253.16 443.42 252.98 444.29"/><path class="cls-1" d="M353.36,488.23c.95-.82-1-.31.51-.72C353.91,487.9,353.85,488.26,353.36,488.23Z"/><path class="cls-1" d="M391.51,480.37c1.15,4.48-2.54,8.91-2.47,13.52-.06.52-1.15-.51-1.21.69.43,4.6-2.71,10.67-5.77,15l-.23-.41c-.58.84.13,2.37-.4,3.29-.22-.07-.19-.43-.58-.31.57.49-.36,1.88,0,2.48-.4.29-.91.05-1.39.44l.55.84c1.2,2.25-1.59,3.71-1.49,6.19-.13-.17-.19-.43-.42-.33-.28,3.81-2.22,8-3.47,11.86a1.13,1.13,0,0,0-1-.52c.7.53.39,1.77.1,2.84-1,.09,0,2-1,3l-.13-.18c.44,1.25-1.06,1.07-.38,2.22l-.88.26c.95.9-1.15,1-.92,2l.24.09c-.05.8-.77.88-.87,1.59h-.16c-.39,1.59-1.41,2.14-.54,2.52-.93.17.37-1.56-1-1.25-1.36,5.19-4.11,10-6.38,14.7-.6.38-.88.68-1.26.65,0,.57-.66,1.9-.39,2.53.05-.17-.58.13-.73.37-.7.76.57,1.36-.19,2.19-.09-.48-.33-.73-.71-.72.37,1.11-.14,2.19-.22,3.28-.1-.2-.11-.48-.41-.53.43,1.35-.77,2-.51,3.12l-.45-.5c-1,1.47,1,.73.34,2-.1-.36-.34-.29-.55-.39a5.34,5.34,0,0,1,.38,2.46,11.44,11.44,0,0,0,.11,2.34.31.31,0,0,0-.23-.06c.1.69,0,1.41.1,2.13a5.07,5.07,0,0,0,.6,2.15c-.11.6-1.37.12-.79,1.57,1.05-.37,1.31,2.22,2.17.93.15.58.41,1.32.66,2a2.63,2.63,0,0,0,1.1,1.33c-.68-.14-.6,1.38-1.38.62a10.3,10.3,0,0,0,.07,1.09c-.44.22-.5-.79-.74-.2a7.22,7.22,0,0,0,1.2.9,6.53,6.53,0,0,1,1.2.81,5.27,5.27,0,0,0,2-.44,14.78,14.78,0,0,1,1.74-.66.6.6,0,0,0,0,.81c.15.25.37.47.11.6a3.9,3.9,0,0,0,.77-1.27,2.73,2.73,0,0,0,.07-1.29c.18-.2.65.62.8,0-.24-.15-.26-.44-.4-.69.09,0,.18-.34.35-.67a1.09,1.09,0,0,1,.94-.77c.46-.17.12.79.58.32.1-.92-.3-1-.38-1.83l.14,0a1.08,1.08,0,0,0-.46-.91.52.52,0,0,0-.81.16c.06.34.59-.31.44.28a3.19,3.19,0,0,1-1.49-1.33c.28.06.49-.1.81-.19-.59-.19-1.09-.32-1.55-.43s-1.05-.23-1.6-.28c-.25.45.75-.68.79-.35a2.25,2.25,0,0,0-2.12-.68,2.81,2.81,0,0,1-2.2-.44c.24-.08.08.74.07.59-.78-.1-.74-.85-1.29-.57-.05-.45-.69.15-1.24.32-.28.34-.17-.21.33-.29a13.41,13.41,0,0,1-2.5.81,9.11,9.11,0,0,1-3.51.28c.07.28-1,1.24-1.49,1.28l.07-.7c-.47-.34-1.49.29-1.66-.27-.82,1,3.58-1.3,2.39-.45-.43-.51-1.64,1.37-1.5.4-.9.17-1.64,1.06-2.61.59.27.06.57-1.07-.15-.89-1.26.35-.31.39-1.3.8l-.6.4c.08.66-1.16.12-.54.77-.27-.53-1.78.7-1.87-.41v-.9c-.54.18-.72,1.09-1.08,1.56-.08-.07-.26-.21-.27-.35.19,1.32-1.33.16-1.76,1.32-1.25-.19-2.92.62-3.65-.05a4,4,0,0,1-2.54,1.24c.17-.17.43-.27.42-.57-.73-.22-.8.16-1.32.52.08-.23-1.45-.42-2.28-.7-.77.62-.28,1.23-.25,1.68-1.15-1.05-2.23,1.51-3.55.63.26-.26,1.1-1,.28-1.09-1.16-1-1.33,1.39-2.79,1.16l.62,1c-.76-.49-1.7,1.15-1.89,0-.31.5-1.61.11-1.15,1.09-2.37-.23-4.92,2.1-6.79.69-.25.27-1.05.34-.73.81.68.4.56-.63.88-.3-.26.11-.23.41-.22.56-.72,0-1.26.07-.91-1-1.66-.15-.94,2.2-2.9,2.42-.06-.45-.25-.56-.76-.32l-.79,1.06c-1.24.23-1-.73-1.26-1.43-.69.38-1.73.69-2,1.38a10.59,10.59,0,0,1-1.06-.63c.74.47-.65.69-1.06,1l.4-.33c-.14-.29-1.06.23-1.6.51,0,.24.27.33.62.34a6.27,6.27,0,0,0,1-.06c-.46.51-1.15.66-1.91,1.33.35-.89-1.44-.06-2.16.11s-1.31,1.15-1.57,1.21c.19-.47-1.43.42-.4-.5.36-.25.46.24,1.14-.35-.43-.15.06-1-1.36,0-1.12.77-.81,1.81-2.22,1.8a12.15,12.15,0,0,0,1.47-1.28h-1.19l-.68.94c-.06-.16.14-.29.13-.38-1,1-2.17,1.11-3.29,1.9a.7.7,0,0,0-.34.16,31.76,31.76,0,0,1,.95-3.36l.05.09c.57-1.44.43-2.36,0-2.84l.16-.08a3.72,3.72,0,0,0-.16-2.23c.74-1.73,2.78-1.87,2.06-2.79.14-1.16-1-1.65-1.53-1a21.46,21.46,0,0,0,.58-4.08l.09-.83a6.4,6.4,0,0,1,.14-.63,2.72,2.72,0,0,1,.63-1.15c-.23-.28-.43-.16-.49-.68.7-2.4.18-5.33,1.89-7,.13.76.64.18,1,.25-.47-.7.75-.57-.21-1-.61-.07-.88-.19-1.26.45,0-1.53.5-3.73,1.22-4.4-.36.33-.47,0-.58-.38.92.33,1.29-.71,1.17-1.59l-.54-.25.71-.38c-.1-.35-1.11-.63-.36-1.3a1.14,1.14,0,0,0,.66-.08c-.26-.94-.75-2.32,0-3.1l1-.51c0-.41-.31-1.19-.73-.58.91-1.4,1.25-2.36,2.11-2.64-1-3.11.1-7,1.25-10l.39.23c.66-.68-.59-.67-.11-1.14.31.4,1.07-.32,1.34.48.82-1-.22-1.73-.14-2.55-.5-.3.14.72-.5.34-.15-.2,1-1.45.23-1.92.43-.17.95.27,1.23.54l-.15-.84c1.27-.51,1,2.56,2.52,2.08l.1-.68c1.08-.3.37,2,1.24.54-.16-.84-1.14-1.87-1.72-1.38.3-1.54-1.72-1.39-1.06-2.94.64-.24-.36,1.3.43,1.25.93-.49.19-1.62.67-2.18-.59.61-1.18-.32-1.15-.85.69-.65.58.81,1.09-.29-.4-.36-.35-1.54-1-.77-.92-.82.75-1.06.17-2,.89-.06,1.27,1.84,2.13.76-.8-.09-.36-1.91-1.69-1.69a.8.8,0,0,1,1.29.31c.71-.51-.64-2.21.88-1.86l-.64-.53c.33-.12.64-.35,1.19-.54.26-.59-.16-2.36.91-1.84,0-.24.61-1.59-.38-1.39-.82.66.14,1.22-1.09,1.26,1.09-.25.41-1.29.35-1.91l.46.11c0-.37.37-1,0-1.39a.42.42,0,0,0,.69.16l-.5-.6c.22-1.34,1.25.23,1.59-1l.1,1.1c0-.24.75-.36.8-1-.49-.48-1-1.2-1.37-1.6.05-.77.79,0,.5-.91l.31,1.17c.13.21,1.22-.12,1.61-1,.06-.64-.36-1.91-1.09-1.18.19-.45.84-.89,1.1-.34.28-1.08-.69-.17-.63-1.2.55-.16,1.64-1,2.53-1.34l.51,1.37.3-.58c.39,1.14.78-.08,1.37.75a2,2,0,0,0,.29-1.43c-1.89.49-1.09-2.22-2.42-2.51.55-1.79,3.36.56,2.47-2.11-.45.11-.88-1.18-1.12,0,.69-.91-.77-1.33.39-2.23,0,1.13,1.7-.24,1.65,1.4-.33-.31-.69.52-.69.77.67-.15,1.11.75,1.68-.24.24-.66.72-1.49.06-1.74s-.49,1-.91.18c.51-1.35,1.63-.92.8-2.15a1,1,0,0,1-1.61.31l.3-1.07.32.45c1.22-1.24-.5-.92.53-2.25l1.27-.08c.47.8-1.65,1.79-.33,2.31.63-.85.24-1.55,1.11-2.17,0,.25-.17.52-.19.77.26-.29,2,.46,2-1.38.12-.88-.28-.46-.69-.79.9-1.47.81-2.21,1.46-3.14.63.82,1.35-1.46,1.35.15-.83,0-2.36,2.07-1.92,3.14,1.34.22-.93,1-.14,2,.81-1.08,1.74-.31,2.49,0,.25-.26.2-.73.24-1-.49-.57-.77-.18-1.39-.62a5.47,5.47,0,0,0,1.66-3.54.63.63,0,0,1,.72.95,16.51,16.51,0,0,1,3.74-3.85c-1.62-.1,1.18-1.51-.05-1.71-.85.43-2,.39-2-.36.48-.35.35.39.71.4.09-1,1.55,0,1.37-1.28-.94,1.43.77,1.29,1.18,2.19.49-1.18.41.51,1.26-.25a13.05,13.05,0,0,1,2.18-3.37c1.8-.33,3.21-2.49,4.37-3.36.88-.05,1.09,1.11,1.85.79.75-.55-1.24-.53.19-.93v.25c.2-.46,2.5-.85,2-2.34l.28,1.19c.28-.06.33-.41.44-.63.22.31.66.43.44.86,1.15.2,1.42-1.09,2.19-1.61l-.87-.25c1.06-1.31,2.32-1.31,3.5-2.32l.31.59.57-.82a.62.62,0,0,0,1.21-.13L349,490.47c-.77,0,.18-1.06-.51-1.4s-1.71.6-1.57,1.27c.5-.23.45-.37.68-.79.64.69-.08,1.09-.09,1.83.22-.18.71-.16.6-.44a2.93,2.93,0,0,1-1.43,1.55c.34-.64-.59-.29-.54-.65.38.73-.23,1.41-1.3,1.85-1.2-.34-1.44,1.68-2.66,2.21a4.44,4.44,0,0,1,.64-2.64c-.92.12-.75.53-1.68.66a3.62,3.62,0,0,1-.34,2.6l-.4-.46c-.61.83-.08,1.55-1.16,2.15a34.45,34.45,0,0,0-4.8,3.4l-.44-.42c.19,1.56-1.89,2.35-2.31,3.62-1.87,1-2.53,3.58-4,3.72-1.89,3.09-3.23,5.91-5.3,9l-.44-1c.22.91-.66.12-.88.76,1-.3.33,1.25.59,1.92-1.41,1.13-1.74,3.4-1.84,5l-.57-.22c.36,1.84-1.31,3-2.26,4.66-.31.09-1,.17-1.14.71.48,1.34.18,1.79.15,3.41a14.88,14.88,0,0,1-2.13,3.41c-.27,4.31-2.58,7.89-3.2,12.19l-.78.06c.1,4.38-2.71,8.79-2.91,12.4l-1.08-.66c-.67,1-.35,2.53.55,2.48-.64,1-.15,2.8-1.28,3.24-.49,1,.22,1.48.15,2.42a12.82,12.82,0,0,0-1.3,5.06l.19-.5a.5.5,0,0,0-.91.09c.15.84-.92,2.8.67,2.32-1.31,2.05-.35,5.31-1.85,7.28.42-.12.41.45.63.72a6.47,6.47,0,0,1-.15.74l-.09.36c0,.05,0,.14,0,.16l0,0c-.08.11-.18.22-.26.35s-.23.55.11.56c-.23.19-.71.19-.8.47.15.06.57-.28.8-.29s.23.14.14.37-.3.6-.45,1c0,.25.25.44.7.2l.63-.47.27-.18a3,3,0,0,1,.36-.19c.25-.13.5-.24.74-.34l.18-.07.24-.09,1-.33,7.59-2.49,0,.29c1.31-1.59,4.21-.11,5-2.13.48.15,1.54-.32,1.41.31,1.11-1.16,3.92-.38,5.58-1.88a.73.73,0,0,0-.44.29c2.11.07,3.62-1.23,5.83-1.2-.18.17-.53.36-.52.66.93.34,1.6-1.67,2.38-.41.45-.12.15-.77-.12-.66,4.68-.58,9.38-2.5,14.21-3.61,3.62.28.57,2.3,3.16.84.26.24.08-.55.16-.27,1-.53,1.87,1.34,2.5.51-.41-.82.43-.55.39-1.08,2.28.3,2.78,1,4.59.32l-.12.46a6.63,6.63,0,0,1,3.58-.8,19.77,19.77,0,0,0,3.94-.23,16.16,16.16,0,0,1,2.2.94c.36.19.71.41,1.06.62s.75.52,1.11.79a11.48,11.48,0,0,1,3.65,5.23,12.94,12.94,0,0,1,.6,6.1,11.13,11.13,0,0,1-.36,1.63,12.7,12.7,0,0,1-.64,1.67,9.91,9.91,0,0,1-2.5,3.19,9.46,9.46,0,0,1-3.85,2,10.09,10.09,0,0,1-4,.18,12.39,12.39,0,0,1-6-2.85,15.72,15.72,0,0,1-2-2c-.3-.35-.57-.72-.84-1.09l-.38-.58-.3-.52a21.72,21.72,0,0,1-3.06-9,33,33,0,0,1,.69-9.61,52.28,52.28,0,0,1,2.54-8.36,74.07,74.07,0,0,1,3.43-7.47c1.28-2.4,2.49-4.55,3.83-6.78,2.14-1.63,2.19-1.82,2.92-4.42.13.18.09.35.34.27-.83-.54.71-1.73,0-2.36.9-1.68,1.66-3.35,2.38-5s1.44-3.41,2.2-5.22c-.15.61.46,1.22.69.52l-.26-1h.3c.07-.52-.15-1.22-.65-.87,3.12-9.33,8.48-17.62,11.41-26.85,1.15-2,1.82-5.25,2.4-7.68,3.52-6.61,6.42-12.77,7.46-20.28A5.48,5.48,0,0,1,391.51,480.37Z"/><path class="cls-1" d="M352.13,489.09c-.48-.28-1.36-.06-1.12-1C351.33,488.46,352,488.66,352.13,489.09Z"/><path class="cls-1" d="M330,498.56c.08.13-.39.09-.51.08.2-.23.14-.72.49-.69C329.82,498.18,330,498.32,330,498.56Z"/><path class="cls-1" d="M325.39,502.81c-.26-.35.4-1.61.94-2.22C326,501.32,325.7,502.08,325.39,502.81Z"/><path class="cls-1" d="M320.23,506.31c-.61.2-.69,0-.26-.59C320.18,505.81,320.14,506.07,320.23,506.31Z"/><path class="cls-1" d="M320.78,507.24a1.26,1.26,0,0,1-1,.51C320.11,508,320.28,506.68,320.78,507.24Z"/><path class="cls-1" d="M313,517.45c-.11.29-.09,1-.65,1.06C312.83,518.39,312.58,517,313,517.45Z"/><path class="cls-1" d="M311.05,523c-.11.15-.22.18-.2.43-.32.23-.46-.24-.37-.52Z"/><polygon class="cls-1" points="324.8 588.42 324.29 588.79 324.25 588.35 324.8 588.42"/><path class="cls-1" d="M364.5,583.58c.4.08-.2.42-.22.49C364.09,583.91,364.76,583.83,364.5,583.58Z"/><polygon class="cls-1" points="357.87 582.91 357.92 583.07 357.05 583.27 357.87 582.91"/><path class="cls-1" d="M401,475c-1.27-.3.35,1-.91,0C400.43,474.69,400.76,474.53,401,475Z"/><path class="cls-1" d="M437.39,472.29c-4.73.2-8.76-4-13.53-4.55-.52-.13.64-1.08-.55-1.31l-.43,0-.19,0s0-.07-.21.21c-.16.07-.05,0-.05.18a.19.19,0,0,1,0,.08V467h0a8.32,8.32,0,0,1,.9-.06,9.65,9.65,0,0,1,2,.15,20.8,20.8,0,0,1,2.05.48c.68.22,1.37.48,2,.77a32.09,32.09,0,0,1,4,2c1.27.8,2.49,1.61,3.58,2.44l-.43.2c.83.64,2.43,0,3.36.62-.09.21-.45.17-.35.56.54-.56,1.91.49,2.54.19.28.43,0,.92.38,1.43l.9-.48c2.36-1,3.73,1.87,6.25,2-.19.12-.46.15-.37.4,3.9.6,8,3,11.84,4.83-.29.16-.69.53-.64.93.61-.62,1.86-.16,2.9.33,0,1,2.09.37,2.94,1.55l-.2.1c1.34-.17.89,1.28,2.2.88,0,.3.07.6.09.93,1.11-.68.72,1.42,1.75,1.46l.15-.2c.81.31.65,1.09,1.32,1.47l-.05.15c1.39,1.07,1.41,2.28,2.15,1.65-.24.93-1.29-1.06-1.59.36,4.2,3.67,7.05,8.7,9.67,13.53-.05.74,0,1.15-.22,1.44.43.39,1.12,1.75,1.78,2-.1-.16-.27.54-.19.82.14,1.05,1.44.5,1.55,1.68-.43-.28-.77-.27-1,0,1.09.5,1.54,1.68,2.24,2.56-.22-.08-.42-.28-.67-.11,1.29.72.8,2.07,1.75,2.79l-.67-.12c.14,1.83,1.26,0,1.55,1.45-.31-.24-.45,0-.69,0,1.51.79,2.19,2.94,3.1,4a.28.28,0,0,0-.23,0c.76,1.29,1.16,2.84,2.28,4.13,0,.64-1.3.41-.43,1.75,1-.54,1.59,2.22,2.32.83.42,1.29,1,3.4,1.72,4-.65-.36-.94,1.19-1.52.22l-.23,1.06c-.46.08-.24-.86-.64-.36.28.49,1.4,1.77,1.46,2.3,1.07.64,2.63,1,3.5,2.41-.74-.53-.91.94-1.32.54l3,1.19c.29.48-.74.5-.12,1.1.24-.17.56.07.88.19,0,.25,1.27,2,.4,2.68-.28.42-.61-.72-.69,0,.46.93.82.81,1.29,1.74l-.12.08c.15.69,1.3,1.62,1.52.68-.18-.45-.51.45-.54-.32.79.15,1.48,1.16,1.94,2.09-.31-.24-.56-.07-.9-.07a13.87,13.87,0,0,1,3.28,3.34c.48-.2-1.1-.11-.95-.43.22,2.11,2.72,3.26,2.5,5.22-.2-.2.6-.45.48-.37.36.89-.34,1.18.19,1.62-.38.25.47.65.87,1.17.44.16-.12.25-.41-.23a12,12,0,0,1,1.78,2.3,13.33,13.33,0,0,1,1.67,3.86c.13-.07.6.27,1.09.76a6.64,6.64,0,0,1,1.16,1.47l-.87-.22c-.17.6,1.11,2.16.47,2.19.81.73,0-.6-.83-1.8s-1.56-2.23-.81-1.44c-.19.28.38.81.88,1.33s.92.95.3.73a19,19,0,0,0,1.27,1.9,2.55,2.55,0,0,1,.66,1.77c0-.33-1.68-1.31-1.18-.38s.63,1,.8,1.13a1.78,1.78,0,0,1,.29.25c.24.19,0,.24-.25.42l-.57.5c.74.45-1.79.56-.23.79-.43-.14-1,.17-1.68.42s-1.28.42-1.65,0c-.16-.25-.33-.49-.51-.74-.65.3-.46,1.14-.86,1.69-.16,0-.49-.09-.54-.23.37.58-.16.74-.81.9s-1.39.3-1.73,1l-.6.06c-.17,0-.35.06-.53.1l-1.07.27a2.14,2.14,0,0,1-1.74,0,4.32,4.32,0,0,1-2.62,1.46c.17-.18.45-.31.42-.6-.78-.17-.83.22-1.37.61.07-.23-1.55-.34-2.41-.58-.8.66-.29,1.25-.25,1.71-1.21-1-2.36,1.58-3.75.72.27-.27,1.17-1,.31-1.1-1.19-1-1.42,1.42-2.95,1.17l.62,1c-.79-.49-1.85,1.15-2,0-.36.51-1.7.07-1.28,1.06-2.47-.28-5.36,1.9-7.18.37-.28.25-1.13.25-.84.75.67.46.65-.59.94-.24a.49.49,0,0,0-.27.55c-.76-.08-1.33,0-.87-1-1.7-.3-1.2,2.14-3.3,2.16,0-.45-.18-.58-.75-.39l-1,1c-1.33.09-.93-.84-1.12-1.56-.66.26-1.51.4-1.71,1l-1-.76c.37.27.25.41,0,.51l-.44.14a1.64,1.64,0,0,0-.48.17l.41-.27c-.22-.28-1.23.13-1.78.31.1.46,1.27.43,1.95.43-.46.42-1.28.52-2,1,.24-.76-1.62-.29-2.38-.47s-1.21.5-1.48.41c.11-.32-1.39-.55-.5-.78.33,0,.52.57,1.14.35-.24-.19-.27-.44-.41-.62s-.37-.28-1-.33-.62.27-.79.48-.43.27-1-.52c.47.17.71,0,1.14-.05a5.33,5.33,0,0,1-.94-1.36l-.49.46c0-.3.11-.23.11-.37-.38.08-.8-.39-1.15-.91s-.65-1.05-1.06-1c-.41-.83-.21-2.1-.37-2.84a.35.35,0,0,1,.09.11,2.21,2.21,0,0,0-.94-2.07h.15a2.82,2.82,0,0,0-.91-1.59c.23-1.07,2.34-1,1.26-1.78-.26-.94-1.56-1.18-1.88-.7,0-1.81-1.5-3.52-.85-5.34-.31-.18-.45,0-.71-.47-.3-2.57-1.87-5.17-.95-7.42.41.68.66-.07,1-.16-.7-.49.48-.83-.57-.86-.59.17-.89.16-1,.92-.6-1.44-1-3.72-.6-4.65-.2.47-.44.18-.68-.12,1-.05.92-1.18.44-2l-.6,0,.5-.64c-.24-.29-1.27-.14-.86-1.06a1.25,1.25,0,0,0,.57-.35c-.62-.78-1.64-1.84-1.31-2.85l.71-.91c-.17-.38-.79-.95-.91-.21.22-1.67.1-2.69.73-3.33-2.27-2.38-3.11-6.23-3.68-9.32h.45c.21-.92-.85-.26-.69-.9.47.17.74-.83,1.39-.3.17-1.29-1.09-1.35-1.48-2.06-.59,0,.51.52-.23.55-.23-.08,0-1.71-.88-1.67.26-.37.94-.31,1.32-.24l-.59-.61c.76-1.14,2.28,1.53,3.26.3l-.31-.64c.71-.87,1.46,1.52,1.32-.25-.61-.63-2-.91-2.19-.17-.64-1.43-2.2-.13-2.58-1.73.37-.58.48,1.23,1.09.73.45-1-.82-1.4-.77-2.13-.11.84-1.12.46-1.43,0,.14-.92,1,.27.68-.88-.54,0-1.23-1-1.28,0-1.21,0-.06-1.27-1.11-1.58.64-.63,2.15.55,2.12-.81-.67.44-1.53-1.15-2.39-.13.05-.55.6-.8,1.17-.61.2-.85-1.9-1.17-.56-1.92l-.83,0c.16-.3.22-.67.49-1.16-.22-.61-1.74-1.5-.63-1.9-.19-.14-.72-1.48-1.26-.64-.11,1,1,.7.13,1.59.6-.93-.62-1.13-1.09-1.47l.39-.26c-.29-.21-.48-.89-1-.86a.42.42,0,0,0,.57-.4h-.77c-.85-1,1-.79.28-1.79l.89.59c-.19-.13.22-.78-.23-1.22-.67.09-1.54.05-2.07.11-.56-.46.5-.6-.39-.87l1.09.41c.25,0,.67-1,.22-1.81-.47-.41-1.7-.75-1.58.22-.21-.39-.19-1.13.4-1-.71-.76-.54.45-1.33-.1.19-.51.15-1.78.33-2.7l1.39.24-.31-.55c1.15.26.35-.7,1.35-.78-.09-.46-.67-.72-1.09-.95-.53,1.83-2.44-.08-3.33,1-1.18-1.17,2-2.71-.67-2.92-.1.43-1.39.38-.47,1-.5-.91-1.46.23-1.76-1,1,.35.44-1.58,1.89-1.07-.39.2.17.8.4.89.14-.66,1.12-.74.46-1.61-.52-.44-1.12-1.12-1.57-.58s.7.72-.16.88c-1-.82-.28-1.75-1.64-1.27.6.55.12,1.22-.28,1.54l-.82-.5.49-.2c-.72-1.32-1,.29-1.82-.82l.27-1.17c.85-.34,1.13,1.77,2,.65-.6-.73-1.33-.47-1.67-1.37.22.06.43.23.65.29-.19-.27.9-1.85-.87-2-.8-.18-.47.24-.85.6-1.18-.94-1.89-.79-2.67-1.34.8-.66-1.23-1.16.24-1.29,0,.79,1.69,2.09,2.72,1.79.42-1.26.75.95,1.86.31-.9-.88,0-1.71.35-2.42-.23-.29-.71-.29-.94-.35-.61.44-.26.76-.75,1.33a4.11,4.11,0,0,0-3.25-1.56.64.64,0,0,1,.9-.77,31.08,31.08,0,0,1-4.09-3c.25,1.54-1.66-.68-1.57.54.59.66.72,1.76.06,2-.38-.33.29-.44.25-.77-.89.23-.35-1.43-1.43-.86,1.48.41,1-1.12,1.69-1.79-1.24-.1.37-.56-.6-1.11a19,19,0,0,1-3.87-.71c-1-1.5-3.64-1.69-5-2.2-.51-.73.37-1.51-.31-2-.9-.35.22,1.33-.91.34l.21-.14c-.49.06-2.14-1.66-3.11-.41l.84-.9c-.21-.2-.54,0-.78,0,.13-.35,0-.78.46-.84-.51-1.07-1.76-.59-2.66-.92l.32.86c-1.72-.13-2.48-1.17-4-1.55l.29-.6h-1c.46-.51-.18-1.22-.85-.91l2.89-.58c.48.62-1,.46-.85,1.23a1.42,1.42,0,0,0,2,.56c-.49-.28-.57-.16-1.07-.1.18-.93,1-.57,1.58-1-.28-.08-.57-.5-.73-.25a3.16,3.16,0,0,1,2.17.3c-.74.08.11.66-.22.81.38-.72,1.33-.6,2.34.06.43,1.19,2.3.28,3.48,1a4.77,4.77,0,0,1-2.65.88c.64.72.9.35,1.55,1.06a3.57,3.57,0,0,1,2.45-1.07l-.18.59c1.07.11,1.43-.72,2.58,0,2,1.18,4.08,2.19,5.59,3.09l-.22.56c1.48-.7,3.07,1.16,4.49,1.39,1.56,1.72,4.4,2.41,4.62,4a29.54,29.54,0,0,1,8.51,7.92c-.38,0-.74,0-1.12,0,1,.17-.12.69.41,1.18.08-1.09,1.32.25,2.07.35.51,1.89,2.41,3.43,3.77,4.56l-.49.36a3.32,3.32,0,0,1,1.73,2.11c.33.91.57,1.92.91,2.89-.12.32-.48.9-.16,1.41,1.38.57,1.54,1.14,2.75,2.39a14.64,14.64,0,0,1,1,4.24c2.86,3.71,3.34,8.37,5.24,12.63l-.62.49c2.55,4,2.25,9.63,3.68,13.15l-1.27-.14c-.15,1.22.8,2.57,1.6,2.13-.17,1.21,1.1,2.78.23,3.68,0,1.21.81,1.34,1.14,2.28a14.6,14.6,0,0,0,.84,5.43l0-.56c-.31-.19-.83-.12-.8.44.47.76.23,3.07,1.51,2-.4,2.5,1.73,5.26,1.11,7.72.35-.28.54.27.86.45.46,2,.19,4.26,1.26,5.66-.11.37-.8-.32-.62.49.28.43.51-.12.89.4a9.73,9.73,0,0,1,.85,2.31l.15.6.06.3,0,.15s0,0,0,0l-.08.32a2.1,2.1,0,0,0-.07.84c.05.28.24.5.5.48a11.53,11.53,0,0,0,1.16-.52c1.33-.32,2.68-.64,4-.91,2.67-.58,5.33-1.11,7.84-1.78v.29c1.42-1.49,4.24.13,5.17-1.85.46.17,1.54-.28,1.4.35,1.12-1.12,3.94-.3,5.59-1.83-.18,0-.27.11-.44.29,2.13,0,3.59-1.31,5.8-1.39-.17.19-.52.4-.5.69,1,.29,1.5-1.77,2.36-.56.45-.15.1-.77-.16-.65a25.12,25.12,0,0,0,3.44-1l.78-.28.29-.14a4.92,4.92,0,0,0,.51-.31,3,3,0,0,0,.71-.63l.07-.07s0,0,0-.09l-.22-.26-.37-.44a2,2,0,0,1,1.28-.49c.4,0,.53,0-.28-.47.22-.16-.56.09-.28,0-.14-.07-.13-.16-.06-.29l.14-.21c0-.13.08-.25.11-.37.15-.49.28-.93-.22-1.11-.64.66-.65-.24-1.13,0-.45-2.19.07-2.93-1.27-4.18l.46-.08c-2-1.25-2.43-3.64-4.51-4.51-5.07-9.84-10.45-19-15.32-28.65-2.21-4.85-4.59-9.62-6.94-14.21s-4.75-9-7.24-13.42c-.34-2.62-.5-2.78-2.46-4.51.22-.05.36.05.39-.19-.84.53-1.25-1.43-2-.78l-.61-.7c-.27-.25-.6-.52-.9-.77s-.59-.5-.93-.75l-1.07-.73-1.08-.73-1.17-.71c-.79-.48-1.56-1-2.41-1.47.58.23,1.27-.3.6-.62l-1,.14,0-.3c-.51-.13-1.23,0-.94.54-4.44-2.12-8.71-4.64-13-7.1a82.93,82.93,0,0,0-13.29-6.44,23.42,23.42,0,0,0-7.46-2.27l-1.05-.47-.52-.23,0,0h0l.67-4.31v-.06l0-.12a2.92,2.92,0,0,0,0-.51.32.32,0,0,0,0-.25,1.89,1.89,0,0,0,.45-.51c.14-.23.47-.71.72-1.14l.9-1.57.48-.89.12-.22.07-.13h0a.09.09,0,0,0,0,.05,10,10,0,0,0,1,.71l1.16.75q2.37,1.49,4.83,2.84c1.65.91,3.33,1.76,5.09,2.59L440,470.4c.49.23,1,.46,1.57.78a10,10,0,0,1,1.05.66l.39.32.27.27.14.14.2.25.19.28.09.14.16.29a4.47,4.47,0,0,1,.25.6,3,3,0,0,1,.11.37,4.09,4.09,0,0,1,.1.61,4.35,4.35,0,0,1-.62,2.69,4.26,4.26,0,0,1-.74.91,5.21,5.21,0,0,1-.81.61l.21-.17a5.2,5.2,0,0,0,.6-.59,4.74,4.74,0,0,0,.38-.52A4.27,4.27,0,0,0,444,477a3.51,3.51,0,0,0,.19-1.24,4.24,4.24,0,0,0-.2-1.25,2.81,2.81,0,0,0-1.42-1.64,2.63,2.63,0,0,0-1.05-.24A13.55,13.55,0,0,1,437.39,472.29Z"/><path class="cls-1" d="M402.51,475.45c.07.56.81,1.15-.11,1.49C402.49,476.48,402.26,475.82,402.51,475.45Z"/><path class="cls-1" d="M422.29,489.58c.1-.11.19.33.21.44-.26-.1-.69.13-.76-.2C422,489.92,422.08,489.7,422.29,489.58Z"/><path class="cls-1" d="M426.93,492.92c-.34.3-1.49-.12-2.1-.47C425.53,492.58,426.22,492.76,426.93,492.92Z"/><path class="cls-1" d="M429.74,497.62c.07.57-.16.63-.58.22C429.29,497.64,429.51,497.69,429.74,497.62Z"/><path class="cls-1" d="M430.7,497.15a1,1,0,0,1,.27,1C431.22,497.82,430.08,497.58,430.7,497.15Z"/><path class="cls-1" d="M436.87,506.68c.18.2.81.5.54,1C437.54,507.23,436.22,506.85,436.87,506.68Z"/><path class="cls-1" d="M440.16,510.92c0,.17,0,.27.22.39,0,.37-.47.23-.63,0Z"/><polygon class="cls-1" points="492.62 581.6 492.06 581.98 492.04 581.53 492.62 581.6"/><path class="cls-1" d="M505.77,548.81c-.52-.44.18-.57.19-.69C506.25,548.61,505.39,548.17,505.77,548.81Z"/><polygon class="cls-1" points="492.93 527.38 493.02 527.55 492.19 527.88 492.93 527.38"/></svg>