<svg xmlns="http://www.w3.org/2000/svg" viewBox="0 0 499.08 88.73"><defs><style>.cls-1{fill:#0c1c2a;}</style></defs><g id="Layer_2" data-name="Layer 2"><g id="Layer_1-2" data-name="Layer 1"><path class="cls-1" d="M47.72,46.43C47,50.18,46,58.17,45.35,64c-1.68-.19-5.82-.29-11.44-.39s-12.52-.1-20.4-.1c-4.54,0-11.44.3-13.51.3L.1,62.7l5.12-.49c2.17-.3,2.77-.79,3-2.56.4-3.55.69-12.33.69-22.88V20.31c0-10.55-.2-14.39-.29-16.66,0-1.48-.69-2.07-2.66-2.17l-4.84-.3L1.18,0C3.06,0,10,.39,13.11.39c3.45,0,7.69-.29,12-.39l.39,1.18-4.93.4c-2.07.19-2.76.88-2.85,2.56-.2,4.34-.5,11.34-.5,22.08V36.58c0,10.94,0,21.29.3,24,.2,1.09,1,1.48,7.88,1.48,11,0,14.2-.59,16.27-3.75s3.65-7.59,4.83-11.92Z"/><path class="cls-1" d="M70.19,63.88c-2.27,0-5.62-.39-9.95-.39-4.15,0-6.51.39-9.27.39l.2-1.18c4.73-.2,5.42-.89,5.61-2.66s.4-6.11.4-12.23V36.67A108.65,108.65,0,0,0,56.78,25c-.09-1.28-1.08-1.58-5.42-1.38l.2-1.18a77.56,77.56,0,0,0,13.6-1.68c-.09,2.57-.39,8.09-.39,16v11c0,7.2.1,10.16.3,12.23S66,62.5,70.29,62.7ZM60.73,1.58c2.76,0,4.14,1.77,4.14,4.43a4.35,4.35,0,0,1-4.54,4.34,4,4,0,0,1-4-4.24,4.36,4.36,0,0,1,4.34-4.53Z"/><path class="cls-1" d="M101.25,31.15c0-4.63-2.17-8.87-8-8.87-6.31,0-8.87,3.45-8.87,7.79a22.47,22.47,0,0,0,.39,3.15A1.76,1.76,0,0,1,84.19,35a4.83,4.83,0,0,1-2.86.79c-1.87,0-3.55-1.28-3.55-4,0-4.44,5.72-10.95,16.86-10.95,8,0,11.24,3.16,12.62,5.33a10,10,0,0,1,1.38,5V56.79c0,4.33,1.28,4.93,2.56,4.93,2,0,3.55-2.67,4.44-6.31l1.18.49c-1.18,6-4.34,8.87-9.07,8.87-5.12,0-6.5-3.45-6.7-7.69-4.44,5-9.47,7.69-14.2,7.69-7.19,0-11.14-4.93-11.14-11.53,0-3.65,1.38-7,5-8.48,6.9-2.86,17.05-6.21,20.51-8.68ZM84.19,52.05c0,4.93,2.46,9.17,6.9,9.17,5.42,0,8.18-3.55,9.56-7.19a25,25,0,0,0,.6-4V37.66c-2.76,1.58-8.58,3.94-12.13,5.82-2.37,1.28-4.93,3-4.93,8.48Z"/><path class="cls-1" d="M118.5,62.7c4.53-.2,5.52-.39,5.62-2.86.19-3,.39-5.72.39-11.24V37.46c0-5.52-.2-9.76-.3-12.22-.09-1.38-.69-1.58-5.42-1.58l.2-1.08a62.07,62.07,0,0,0,12.82-1.38c.09,2.26.29,5.91.39,7.69,3.45-3.65,8.38-8.09,15.28-8.09,6.21,0,9.47,3.06,10.65,5.62a12.28,12.28,0,0,1,1.18,5.52V60c0,2.07.59,2.27,5.62,2.66l-.2,1.18c-2.46,0-6-.39-9.66-.39-3.84,0-7.1.39-9.17.39l.1-1.18c4-.2,5-.79,5.23-2.56.19-2.27.49-6.61.49-15.87,0-13.51-.2-14.4-1-16.07-1.28-2.67-3.45-4.05-7-4.05a11.42,11.42,0,0,0-10.64,6.61,8.12,8.12,0,0,0-1,4.53V48.8c0,4.93.1,9.17.3,11.34.19,1.87,1,2.36,5.62,2.56l-.2,1.18c-2.17,0-6.9-.39-9.76-.39-3.75,0-7,.39-9.56.39Z"/><path class="cls-1" d="M195.69,31.15c0-4.63-2.17-8.87-8-8.87-6.31,0-8.87,3.45-8.87,7.79a22.47,22.47,0,0,0,.39,3.15,1.74,1.74,0,0,1-.59,1.78,4.83,4.83,0,0,1-2.86.79c-1.87,0-3.55-1.28-3.55-4,0-4.44,5.72-10.95,16.86-10.95,8,0,11.24,3.16,12.62,5.33a10,10,0,0,1,1.38,5V56.79c0,4.33,1.28,4.93,2.56,4.93,2,0,3.55-2.67,4.44-6.31l1.18.49c-1.18,6-4.33,8.87-9.07,8.87-5.12,0-6.5-3.45-6.7-7.69-4.44,5-9.46,7.69-14.2,7.69-7.19,0-11.14-4.93-11.14-11.53,0-3.65,1.38-7,5-8.48,6.9-2.86,17.06-6.21,20.51-8.68Zm-17.06,20.9c0,4.93,2.47,9.17,6.9,9.17,5.43,0,8.18-3.55,9.57-7.19a26.27,26.27,0,0,0,.59-4V37.66c-2.76,1.58-8.58,3.94-12.13,5.82-2.37,1.28-4.93,3-4.93,8.48Z"/><path class="cls-1" d="M266,63.88c-4.24,0-9.76-.39-14-.39-5.33,0-9.07.39-12.33.39l-.39-1.18A45.06,45.06,0,0,0,245,62c2.26-.29,3.15-1.28,3.35-3.45.3-3.65.59-15.18.59-20.9a10.42,10.42,0,0,0-.89-4.73A273.33,273.33,0,0,0,232.85,5.82c-2.56-4.05-3.45-4.44-8.48-4.64L224.27,0c2,0,6.41.39,10.45.39C239.65.39,244.19,0,247,0l.29,1.18-4.14.4c-1.67.1-2,.69-1.38,2.07,2,4.63,10.36,19.72,14.79,28.1C263.81,18,267.26,11,270.12,4.54c.88-2.17.29-2.67-1.19-2.77s-3.15-.39-4.83-.59L264.3,0c2.17,0,5.82.39,8.68.39S278.59,0,281.55,0l.3,1.18c-5.23.2-6.61.79-9,4.54-4.05,6.41-10.65,18.83-14.3,25.73a10.53,10.53,0,0,0-1.28,5.22c0,6.22,0,18.74.39,23.27.1,1.18.5,1.87,2.37,2.07,1.38.1,3.55.4,5.42.69Z"/><path class="cls-1" d="M293.58,20.8c12.62,0,19.92,9,19.92,21.49,0,14-8,22.48-20.61,22.48-13.31,0-20.31-9.17-20.31-21.49s7.3-22.48,20.9-22.48ZM293,22.28c-4.14,0-7,2-9.07,5.52-1.78,3.35-2.66,8.48-2.66,14.2s1,11.34,2.56,14.79c2.07,4.24,5.62,6.6,10,6.6,4,0,6.9-1.67,8.87-5.91,1.28-3,2.27-8,2.27-14.3,0-6-1-11.63-2.57-14.79-1.87-3.64-4.73-6.11-9.26-6.11Z"/><path class="cls-1" d="M344.65,22c2.76,0,7-.09,9.46-.19,2.66-.2,4.34-.5,5.32-.59-.19,3.05-.39,8.18-.39,14.39V47.22c0,6.9.2,11,.39,13.21.3,1.58.79,1.88,6.12,1.78l-.3,1.28c-2,.1-4.34.3-7.1.49a60.28,60.28,0,0,0-7,.89c.2-2.66,0-7.29.2-9.76-2.76,3.85-9.47,9.66-17.45,9.66-5.42,0-8-2.17-8.87-3.94a10.5,10.5,0,0,1-1.19-5.42c0-5.23.3-14.89.3-23.17,0-4.44-.1-6.41-.2-7.79S322.66,23,318.22,23l.3-1.08c2.86,0,5.72-.1,8.28-.3s4.63-.39,5.72-.59c-.39,2.76-.79,9.86-.79,20.8,0,9.56.1,13.8.59,16.17s2.17,3.75,4.93,3.75a14.31,14.31,0,0,0,13.21-9.17,12.54,12.54,0,0,0,1-5.62V35.39c0-5.81-.1-8.77-.3-10.74-.19-1.28-1.38-1.48-6.31-1.48Z"/><path class="cls-1" d="M368.5,62.7c4.54-.2,5.52-.39,5.62-2.86.2-3,.4-5.72.4-11.24V37.46c0-5.52-.2-9.76-.3-12.22-.1-1.38-.69-1.58-5.42-1.58l.2-1.08a61.9,61.9,0,0,0,12.81-1.38c.1,2.26.3,5.91.4,7.69,3.45-3.65,8.38-8.09,15.28-8.09,6.21,0,9.46,3.06,10.64,5.62a12.28,12.28,0,0,1,1.19,5.52V60c0,2.07.59,2.27,5.62,2.66l-.2,1.18c-2.47,0-6-.39-9.66-.39-3.85,0-7.1.39-9.17.39l.1-1.18c4-.2,5-.79,5.22-2.56.2-2.27.5-6.61.5-15.87,0-13.51-.2-14.4-1-16.07-1.28-2.67-3.45-4.05-7-4.05a11.42,11.42,0,0,0-10.65,6.61,8.12,8.12,0,0,0-1,4.53V48.8c0,4.93.1,9.17.29,11.34.2,1.87,1,2.36,5.62,2.56l-.19,1.18c-2.17,0-6.91-.39-9.77-.39-3.74,0-7,.39-9.56.39Z"/><path class="cls-1" d="M429.82,68.62c-2.66.79-5.62,2.56-5.62,7.49,0,7.1,7.1,10.45,14.59,10.45,11.14,0,16.57-6.31,16.57-13.21,0-4.64-3.65-7-7.2-7.1-7.89,0-13.9,0-17.16-.1-3.64,0-6.9-.89-9.07-3.35a8.58,8.58,0,0,1-2.26-6.11c0-4.44,3.35-8,6.31-10-2.27-2.46-3.36-6.51-3.36-10,0-10.74,7.79-16,16.47-16a17.62,17.62,0,0,1,9.66,2.57c3.25-2.57,6-4.24,8.28-4.24s3.65,1.57,3.65,2.56A5.87,5.87,0,0,1,458,25a6.69,6.69,0,0,0-4.64-1.67,8.28,8.28,0,0,0-3.64.88,16.45,16.45,0,0,1,4.43,11.44c0,10.45-7.59,15.58-16,15.58-5.13,0-9-1.48-11.14-3.36A6.56,6.56,0,0,0,422.72,54c0,3,2.66,4.43,5.23,4.43,7.29,0,13.11-.2,20.7-.2A10.92,10.92,0,0,1,460.19,69.6c0,13.11-13.31,19.13-23.86,19.13-11.34,0-17.25-4.64-17.25-11.44a7,7,0,0,1,3.15-6,20.26,20.26,0,0,1,7-3.45Zm8.48-46.24c-5.42,0-7.79,5.42-7.79,13.51,0,6.4,2,14,8,14s7.69-6.4,7.69-13.6c0-6.31-1.38-13.9-7.79-13.9Z"/><path class="cls-1" d="M483,15.77c-.06,0-.15,0-.16-.08a2.25,2.25,0,0,0-.72-1,.92.92,0,0,1-.17-1c.15-.53.34-1,.53-1.57.11-.26.63-.46.83-.26s.64,0,.78.38c.35-.3.67.11,1,.06s.35.26.64.2.4.2.61.29a11,11,0,0,0,1.09.41,6,6,0,0,1,1.47.46c.13.07.33,0,.49.06.51.15,1,.29,1.53.47.87.32,1.74.64,2.59,1,.68.27,1.33.6,2,.9s1.07.43,1.6.66c.17.08.33.19.57.32a.8.8,0,0,1-.67,0,5.84,5.84,0,0,0-.93-.27,1.57,1.57,0,0,0-.6.07,13.18,13.18,0,0,0,3.58.92,1.57,1.57,0,0,1,0,.53c-.19.53-.41,1-.64,1.54a.65.65,0,0,1-.6.41,6.68,6.68,0,0,0-1,.28c-.08,0-.16.1-.23.09A8.31,8.31,0,0,0,495,21c-.49,0-1,.18-1.45.24a.51.51,0,0,0-.49.34c-.19.55-.44,1.07-.59,1.63-.5,1.74-1,3.48-1.45,5.23s-1,3.58-1.46,5.36c-.32,1.15-.69,2.28-1,3.42-.09.28-.18.56-.27.87a3.22,3.22,0,0,0,.35.38,7.31,7.31,0,0,1,1.79,2.09,5.94,5.94,0,0,1,.78,2.29,8.53,8.53,0,0,1-.32,2.72c-.06.46-.35.62-.83.62a3.62,3.62,0,0,1-1.08-.12l.66,0c-.1-.45.4-.35.6-.64,0-.07.06-.24,0-.31-.21-.27-.1-.54,0-.81.07-.47.13-.94.19-1.41,0-.08,0-.2,0-.25-.33-.4-.32-.92-.54-1.35a2.82,2.82,0,0,0-1-1c-.11-.09-.27-.11-.23-.33s-.09-.18-.17-.24a1.92,1.92,0,0,0-.5-.29c-.26-.07,0-.32-.16-.41l-.62-.35c-.07-.05-.12-.11-.23-.21a.94.94,0,0,0,.87-.78c.36-1.21.76-2.42,1.13-3.63s.68-2.12.93-3.21c.21-.9.51-1.78.77-2.66.31-1.05.63-2.1.94-3.15s.53-2.31,1-3.41c.08-.21-.14-.39,0-.61,0,0-.16-.23-.26-.34l-.46-.5.72.05,0-.07-.45-.21s0-.07.07-.07a3,3,0,0,1,1.45.2,4.08,4.08,0,0,0,1.27.22l-1.18-.51c.12,0,.21-.12.29-.11.56.05,1.11.12,1.67.18l1.21.16c.17,0,.39.12.49.05a1.54,1.54,0,0,0,.53-.63.94.94,0,0,1,.73-.7l-.41-.49.15-.13s-.05-.05-.08-.05a7.3,7.3,0,0,1-.81-.18.94.94,0,0,0-.62,0,2.5,2.5,0,0,1-.7,0,1.14,1.14,0,0,1,.17.45c0,.12-.2.23-.22.35s0,.31-.3.31l.24.37a1.08,1.08,0,0,1-.36.24,1.23,1.23,0,0,1-.54,0L493.17,19a1.56,1.56,0,0,0-.57,0c-.13,0-.33.13-.35.23-.07.36-.39.55-.52.87s-.15.38.13.6l.3.22c-.37.52-.85.09-1.37.2l.38.1a1.87,1.87,0,0,1-.07,1.19,9.32,9.32,0,0,0-.26,1.19l-.27,1.52a.66.66,0,0,1-.06.25,16.92,16.92,0,0,0-.69,2.27c-.27.73-.41,1.5-.74,2.22a1.58,1.58,0,0,0-.24,1c0,.05,0,.12-.07.18a18.12,18.12,0,0,1-.67,1.87.65.65,0,0,0-.14.35,3.24,3.24,0,0,1-.36,1.37c-.07.22-.07.44-.14.65a3.15,3.15,0,0,1-.41.57c-.07.11-.08.25-.14.36s-.23.46-.36.68-.29.41-.43.61c.36.26.81.32,1,.72a1.89,1.89,0,0,0-.5.07,1.94,1.94,0,0,1-1.44-.06c-.25-.09-.25-.07-.46.19l.46.58c-.3.37-.74.1-1.18.26l.7.07.18.44-.39.3a2,2,0,0,0-1.39,0l1.42.59v.08l-.56.07s0,.07,0,.07c.51.14,1,.27,1.54.42l3.56,1a.73.73,0,0,0,0,.62l.37.56a6.92,6.92,0,0,0-.8,0,.75.75,0,0,0-.47.14c-.24.33-.61.32-1,.47a1.52,1.52,0,0,0,.91.48c-.17.15-.27.29-.33.27a1.52,1.52,0,0,0-1.33.14.57.57,0,0,1-.16,0c.32.33.32.33,1.27.58-.24.18-.24.18-.5.06,0,0,0,0,0,0-.21.12-.39.16-.53-.11,0,0-.23,0-.35,0s-.05-.15-.08-.22c-.23.26-.43-.17-.68,0s-.28-.32-.52-.13c-.1-.25-.39,0-.53-.23s-.36-.07-.54-.11-.23-.39-.51-.18-.25-.32-.51-.15c-.07,0-.19-.23-.4-.12s-.1-.33-.32-.14c-.43-.18-.54-.16-.71.19-.27.54-.53,1.09-.76,1.64-.48,1.2-1,2.39-1.42,3.6-.59,1.58-1.15,3.18-1.75,4.76-.49,1.3-1,2.6-1.54,3.88-.43,1-.92,2-1.38,3l-1,2.16a16.29,16.29,0,0,0,2.87-.11l-.3.45a2.53,2.53,0,0,0-.38,0l-1.52.12a.88.88,0,0,0-.43.1,1.21,1.21,0,0,1-1,.12,1.81,1.81,0,0,1-1.33-.72c.24-.77.5-1.56.72-2.36a45.43,45.43,0,0,1,1.72-4.83c.86-2.21,1.78-4.39,2.61-6.61.36-1,.84-1.87,1.19-2.83.4-1.12.77-2.26,1.15-3.39.08-.24,0-.33-.28-.4-.08,0-.16-.09-.23-.09s-.19-.32-.46-.18c-.1.06-.36-.08-.43-.3-.37.24-.54-.33-.91-.22-.09,0-.24-.2-.38-.27s-.3-.06-.43-.13-.33-.32-.4-.29-.27-.29-.44-.08a2.74,2.74,0,0,1-.39-.45c-.18-.37-.25-.42-.71-.32-.06-.13-.09-.29-.19-.36s-.25.11-.31.11a2.85,2.85,0,0,1-.7-.12.63.63,0,0,1,.44-.69c.06,0,.1-.12.14-.19.29-.53.31-.54.82-.25a.61.61,0,0,0,.18,0,3.1,3.1,0,0,1,.46-.31,2.31,2.31,0,0,1,.47-.12l.29.32.37-.47-1.07-.36c0-.28.18-.39.39-.47l1.12.34c-.06-.18-.07-.32-.14-.39a.84.84,0,0,0-.4-.2,1,1,0,0,1-.61-.4c-.17-.2-.45-.31-.66-.51a3.39,3.39,0,0,1,1.54.48c.5.21,1,.44,1.52.61-.25-.42-.82-.38-1.08-.8a.52.52,0,0,1,.56-.32,10,10,0,0,1,1.19.23,1.54,1.54,0,0,1,.35.15,1.09,1.09,0,0,0,1.28-.07l.24.45c.22-.06.53-.05.65-.2a2.85,2.85,0,0,1,.58-.52c.05,0,.05-.18,0-.24s-.19-.18-.25-.15c-.3.13-.45.1-.39-.27a3.76,3.76,0,0,1-.55-.32c-.29-.25-.59-.36-.91-.1-.54-.48-.26-1-.12-1.46a6.74,6.74,0,0,1,.34-.72c.22-.56.39-1.14.65-1.67.62-1.25,1.05-2.58,1.65-3.84.34-.72.61-1.47.91-2.2s.47-1.32.78-2c.51-1.06,1-2.14,1.46-3.2a1.92,1.92,0,0,1,.18-.35c.22-.31.46-.61.71-.93l-.11-.35c.36-.1.77.05,1-.3a5.5,5.5,0,0,1-.11-.69c0-.25-.09-.52.21-.7.06,0,0-.24,0-.35l-.45-.29-.21.3c-.08,0-.16-.09-.23-.08-.85.1-1.34-.54-2-.92.24-.28.34.08.5,0,.1-.32-.18-.34-.34-.46l-.38.25a.87.87,0,0,1-.67-.47c0-.11.09-.24.15-.39l-.16-.09-.18-.07c0,.07-.08.13-.07.18l.24,1Zm-8.89,41.14a1.5,1.5,0,0,0,.24-.27c.32-.73.63-1.45.92-2.19.62-1.56,1.23-3.13,1.85-4.7.23-.6.52-1.17.73-1.78a4.22,4.22,0,0,0,.51-1.56c-.57,1.25-1.1,2.52-1.63,3.79l-2.4,5.93a6.69,6.69,0,0,0-.21.8c-.34.35-.36.84-.55,1.25a20.23,20.23,0,0,0-1.08,2.8c-.07.22-.18.42-.25.64q-.24.8-.45,1.59s.08.14.16.26c.13-.46.22-.87.35-1.26.44-1.24.89-2.47,1.34-3.71A6.2,6.2,0,0,0,474.11,56.91ZM483,12.58c0,.67-.49,1-.87,1.43l.18.32c0-.5.38-.68.77-.79.11,0,.29-.06.32-.14.14-.28.41-.2.61-.26l.13-.31A1.36,1.36,0,0,0,483,12.58Z"/><path class="cls-1" d="M483,15.78a9.09,9.09,0,0,0,3.24,1.48c.11,1.18-.12,1.49-1,1.33-.53,1.36-1.13,2.68-1.71,4s-1.14,2.74-1.74,4.1-1.2,2.67-1.8,4-1.2,2.72-1.8,4.09l.33.4c-.05.24-.19.32-.39.28a2.36,2.36,0,0,1-.67-.18.91.91,0,0,0-1,0,2.11,2.11,0,0,1-.73.21c-.37.06-.74.19-1.12.23s-.73.33-1.12-.07c0,.31.23.39.39.58a1.12,1.12,0,0,0-1,.4,2.15,2.15,0,0,1-.46.3c-.48.3-.64.86-1,1.26-.09.11-.13.27-.22.39a5.54,5.54,0,0,1-.42.42l-.32-.53a9.37,9.37,0,0,1,2-2.84,4.4,4.4,0,0,1,2.27-1.1c.34,0,.68-.12,1-.18l.58-.08,1.28-.12c.21,0,.28-.16.36-.33.32-.7.66-1.39,1-2.09s.67-1.53,1-2.28c.73-1.58,1.49-3.14,2.22-4.71q1-2.1,1.9-4.21l.9-2.05c-.67-.82-1.33-1.63-2-2.45a1,1,0,0,1-.09-.3Z"/></g></g></svg>